<mxfile host="65bd71144e">
    <diagram id="kn9X3Y3uHCY6ZmzlzWRY" name="Page-1">
        <mxGraphModel dx="527" dy="390" grid="1" gridSize="10" guides="1" tooltips="1" connect="1" arrows="1" fold="1" page="1" pageScale="1" pageWidth="827" pageHeight="1169" math="0" shadow="0">
            <root>
                <mxCell id="0"/>
                <mxCell id="1" parent="0"/>
                <mxCell id="2" value="" style="shape=image;verticalLabelPosition=bottom;labelBackgroundColor=default;verticalAlign=top;aspect=fixed;imageAspect=0;image=data:image/png,iVBORw0KGgoAAAANSUhEUgAAAggAAAEaCAYAAAB0Cq9uAAAAAXNSR0IArs4c6QAAIABJREFUeF7svQd4XFeZN/67dbpGvVu25Rr3XuLYcZzYIYEQEsB0CLBk6csu7P9jWWCBZb9d+FOW3YUldJYWakJCYNMTO7HjxIl7L7Kt3keaPrd9z3tGI42kafdqJEvOXD96ZM2c+p5z7vs7b+WW3/YZA1aeLLWsNWplIBOsM2MGOsF5JlV/tU1ZjQXRfvJR1BQb8Hq9uHTpEpqamtDS0oKuri7EYjFommaZwLIsg35Onz6N/fv24+E/PYw5c+ags7MTCxcuRH19PQwj/1TnOA6f+tSnMGvWLDanvr4+0GfV1dVwOBzYvXs3+7vw5J8COidDE+zDDQu8AlmMguPi6yxwAnhOgKIrAAxULnNiwW3eUQNZXb0dA9EeBGID8Md8CCt+RIMKZKcEl+zBG677ICtvwMBLLY+jZfAcblt4D9oHL6In1I42/0Wsq9uJcmcNiu2l6Ai2sHILSleiwlWHC33HcbrnJahsDPFnXe3N4HkBB1ufwOaG29E8cA5XfGexs/Et4HgBF/uOY27pEmi6ClVXcbLrAFbVbMMrbc9gY/0u9hnP84goAXQH23DJdwp3LfkgTne9jJaBc+iPdmPzrNtxqf8UYkoMbcELoC2oxnTWvyjzlhYj3K3jyqNRRPs41n8+9zWdzck4n2YmSnNK9dC4dD1Ou1weokviJ135mkYb1i9rBMdp4LgIVLUSstwCTbNB04ohSZ2IxeogSR3gCgAhF7JfW2Xyz6ri9JF5DZJALxYBusFBN3j2e7L6y3VVMgGEI0eO4JFHHkF7W3uuzY0rd8MNN+CWnbekBQhLly6F2+223H66iuFwGO973/sKACHvlM3eYDaAwIGDyEvQYTBmW7nMMQ4g1HgaGaPtj3QNd5gACA7JiQ11uxDTIgAHdPgv4/LAGayo2gKBF9EZaEZvqBVLKjaA40T4It0Qhn7z4NAf6cHiinXwRXrQPHAWuqGyPpySF5tm7cLxzgPgOcAfG0AwNoAiWwnmlCxFIDqAeaUrMBDpwuGOvQzkzC1egs7AFXgd5XDLXvSGOhBS/JhTvBht/ksQOQlVntloG7wIh+RChasep7pfRCDmG55XASBk3lNTCRCq5srYuHweOE5nIMEwZPB8GJomwjAE8LwCXafPYgWAcNW5V/Z3UV5LTCaz9sphlNmD0HQeikG3J56BBUUXoBo8+1wzCDzkdUpZG7vaAGH79u1oO/cKOE7IOlYzBepn1WPrjtdg+ZpNBQmCGcLloWw2gDC2i1QShFTDiAQU2FwSu3VP1uMQ3bCJDgxEe2EYo2+nBD5K7FUMcKh6zNQQSGrikUsR0UKIqMFRddWoxoCOKFs7A0yC8FgMsb7sN2RTgyYJzTSXIJgdXzYJi6dSwNq1ZRAFO3RDgF3ugqjNg2GoEMV+KEoFJKkLqlpSAAivFoAw2TyZ5wwUyyGU2ELjzqdG4GDoR9c5RHWRgYbYEHgwjEl8G4LEm+lVDM3NzUzVQLdxq09lZSVqamrSShBI3fDeTXao/larXaStV7bsDsza8MYCQMg7ZTM3OGkAIagwcJBPEfoUkyZld7qmM3AwEYDQ/LgCpT8uis+nSsAKrUnsb3YMmfpJ912mPtJ9l03F4K0VsX5NBQTeTvIthPU+2DkZbrGYgQJZbkc02gBZbi0AhFcDQJhscEAHlgBCiS2IYjk7oyVAoINUEKR+4BDVRMR0ERFNgqLFwUQ+n0wAobe3N29dZbJB+NY9CxA8+o2c++IlL+SaW6D6z0DtP562Hrfk03Cuv7cAEHKmbH4KThZAMHTSh+dnjNOtFY6n27+1UZEEIRkgmNHLZ+sxnXg/Uz3q3+wYrPSTaQyZAEKmetXznNi6xsskBcwOQWyBL1yCqB6DJAShaWUQhB4our0AEK51gDBV7xqB11FhD8AlRrOdx4zfM8Cgy+gKuZmKIh9PJoBAxornzp2D3++33FVDQwMaGxszGil+670LEDj4+Zz7ECvWoOTOPyJ84n4EX/oyDHUgZV1u+T/DtfEjOQEEvkSHUZy7wVPOg53Egpyfh96Tn32Qz2GOBQg8p0IWI+D51CculYpBU8hCYapOaD5nP8Vt6RwC7So6nzOgB/m8qwTG3rj1uLlGxmcmA4S6+SJWLdoKm62JmcBGowvhdB6GrrsQi9VCli8jFpsLSWovAIRr/XxO1etH5HVUOvxwCOb0lqlOoWyTEdQ9aO6jl0G2o5r9+6ttg0BeDLkABE5wgBOd4CQXXGs+A8fq90LrPYfBpz8GtfcEDC0CQyHd7ojHhSmAsDWCxdvmo05syE60aVCiW+vCoVcOg/tz/g08Jzq9cQABcYDAJQCCEfc+4MkSEBjxYjCASFCBElIhOUTLN+qJjn+m1TfGSRXz8GIYJkKSWEPX0Xtch+9wZlA6kwFCzTwntqwmdUIpkyAIgg+qWs6oIQh+aFoR+63rtgJAuJYBQj6PULYXisRrqHIOwsbnAL+zNGZ32BHS3bjUw006QDh58iT27tmL7u7ubFNM+/3qNauxadOmCUkQOKkItnlvhVy9EYKnBlLdenC2Iobw1Y6jUPsvQvNdQuTc/VD7D4+82sxIELZG8J5d78MS+2rLc53KipeVC/jP5742IwDCWDdHolMC3BL7KV9iR+POIuiaATLYs7nE8fp4A9BUEl0zdMGM+lI/JGfjwIsceGH6SVemco9MRl/9F2No+0tmXchMBgi18xzYtLIBcdBFngxkT0HGo+Q+qkHXRfC8yj4ruDlOJRedjN2c9hUyhZ0NuTjWOAcg8tbjCSRG7HQ50Rd1oa1/5CU7kdlkkiC0t7ez+AEUC8HqU1RUhOLi4okBBLkM7k1fhGPFu8EJtpRD0XrOYuCJj0LpfLYAEKwuVp7q5WqDkAAJFdfZMfcWDwMNJFWgeACkk088pG4gyYIaoxe0AbJFSCdeYJY7HIEDakeE3S2x/xee/FDgmgcI823YsGwBOI7eeQQOnOB5P3N3TLg86jp9Fi4AhGtRgnA1MI9NUFHn8iEfUQ9cHjc6/A50D8YvUhN9poWRYg42CIK7Aa6NX4Rj2dvHTVnzXYH/iY8j1v4UDH3EzsOMioHbGsY9u94/ToIQi5F7E/k/k8TGgKpRABW6o3IQhm6o9PlYS+v4Lcpgdel7RVEhy9K4sRNTtGKcRhKE/9r7NeAv01/FkEqCkEyITG6OsYiGkI8C1pi0DxmiqyjxcJXYLXkIqIoOJaIDdJu0skgTPZwW6+uGzgyjJRtvOfhSuq77L0bR+ufMgMus6yH1ZcVbIhN5rBop1jS6sGWNB6pawQBCPDBSPQvyJQh97HNR7GaqhoIEIR8cyOImn4xqV2s6LjGGamdqQzpT8+Q4uD1uXO63wzfaldpUM8mFMwGE48eP48knnmRRD60+GzZswNZtWyckQUj0LTjmovzeU+Pky4E9/4Lg4X8BjNESGjMAAVvDeG8SQPANBHC+qQ2dXT4UeRyY21CNwUAYLa1d7HZbUeLFnNnVCIYiOHWuGRVlxZg3p5qBgXMX26AqKmKqhsUL6qGqGk6fa0ZtTTkikShm11eizxfAoD+Mfp8fsxsqUVdTjs6ufrS0djMgsWbl/IwvTQII/7H3a+CvYYBAkgNfZ3BiQNgABIlHUZkTgpSbJEFTDQz2SwgESqDprrT6DJJkiEz0HAePGtm/pIn6l/H8EJihcXIcNN2AzhmjJCi5nD3qn0w8KHgTDB0qdIhCBG53L4pKFQhibnPP1hcBhOY/pX+TToTRm3WNzDZWK9/XzZewevEm5sZIACEWmwO7/TSTJJBngyy3McBAIKEAEK4WR7WyslnqXM2pFMkRVNitewIkpkY6VYfLgws9MoKR/BBpphgp0mylih0offtfmG7F0Mknngd4EeHDP8Xgs/eOI8iEAIIvgBdfOQO7XWahphPM/UJTO2MGpaVFWDivnkkGLjd3orqyFE6HHRXlRWhp60ZHVz94jsP8RrJ8lrB3/zHY7Ta43Q4snFsLh8OOk6cvM4awZuU8JmkgsHDo6AUsWjALNVWlwxKKVCt9zQMEA+hvp8BiI5IDvk+BrI42P6AwIbFiEXom5m8AdpfEJAnZBAGaCvR3OzEYqKQdl/KQOQUbdi3biPXzlqHY5WHrTLf2mKri6OWz+N9j+9EZ6IOexYrYJkhYVb8AtyzbiJoS8r3n2V5r7unA06cO4nDrOcRoQBkeigw5y1uBW5dvxqK6uXDa7NB0DcFIGPvPHsXecwcR486jtCoIQZz4O+NaBwg181zYstoLTStlBs+CMABVLWOEE4QANM0NQQiyaIoFgHA1uerE9/JwC1d7GsW2EMpsE7/yi6II0e5GU4+EkHWzgFGUzQQQzpw5gxdeeAF9vX2WV2PZsmVYs3ZNXiQI9sZ3wXPzv0HtOQnlyjMQimZDmrUVas8Z+P78hrwCBLr1v3zkHDo7+9EwqxKL5tej6XIHLjV3wlvkwqA/iC0blqGvfxAXL3cwZr5+9UKomo7Dxy5AVVXIkoia6jIGHM43tSISVWCzSViysAFFRU688OIpSJKItasWMHXEwcNnoWk6HHaZAZBZdRVMtUGfERMiX3ECEvRc6wAhGlIx2BMauUkbgLp/AF7/mHgBAofwehe0oswGiaLAw1Vqh2TLEK3QAPwDEnq6a2Agta1LlasY9+54I66rb0x7JojB/+TZh3C660paV02ZF7F7/S24fc3WlO0Qg//TK8/i0RMHEFHTH/al1XPwoVt2o9QzOpcFNUpA9lDTafxy/8MIC4dQUj5xG6hrHSDUznNi08oa6BTngNOZrQG5ONLDcVHougOCEGK5GQoA4WpzVstsaXTFqz2NckcAXil7kKRs0xUlCZDcuNwrIjKSYyZbtYzfzxQbBIbgvcsg16xH7MpT0EKXwQkeSDWbmetjtOmBvAKEgcEAWlp7QDYIJEWoqS7F4GAQ3b0DcDod7OVLn9kkCW0dPey2WFVRyhj6pSsdiMUUZnRXWV7MgsZEFRXRaIzVm9tQwwBCa1sP023XVpexm21P3yBIQuFy2pjKQSCDPUlANEp2EDxEQYDDEWdc1zpAIHBA9gfJKD/0vB9FAZHZfww/IqCtt0H3jnzGQ2C5HjRDZT/sMQBPqZ2Faqan2j0HRfZSDEZ6Wf4ERY+SZB7tV7yIKCQ9GP/Qbf2tG3bh1pXXQxJFtLZ1IRAMoaG+Bt09fejs6sPS6xpBnkb7zxzGL/b/Bb5I6ovB6roF+NQd7xlWI11pbmf1G+qrUVUVv7F2+npw31N/wOnOyynHQ+qNf37jBzG7so59Hw5HcO4CqbIqUF5WzD4jCczvXngMj538E6obOhngckhueORiRkdSCfSHu1Htno1SZ3WcVIbGck2QhK7EXslo2RNqg25ouOYBwnwb1i9dCkEYZCoGsjkgdQO5NZLdgSj2ss8Eob8AECam/JsQ38pb5asNDui1RS6OEw2SRAShrIgK78GVPh6xiXtMMhrPGIDASRC9S6EOHINYdB3UgXgERd7RAHAS9NCFvAKEaFSBoqpwOe2IxlQm+iURMKl5iOHbZAmKqjEpAf1Nt3yS8FD8fpIGRGMKsz2g7xO3/oR+lqQN9H8CESRBSNbbksqCJAUJA8h0B+FaBwh9bYG4S+PQw5Fa6YAPRYPEpuMPo5vII7DWAbUoLhkgcLBm9lasmLUBPf4OPHTkf+JMTzfgLrbD4ZGZjmJd7S2oK2rEZd9p9sPyK2gGWi5WQsP42zi1USQ78aFb3oyVsxeyV+Pp0xdx+mwTtm9dh0uX2/H4U/vx7re/DtXVFbjQ0Ywf7fkjmnpTJDozDLzvhtfjlhWb2NjILuWpZ1/E4WNnsWj+bLzxDbcMMWoD333it3j+/FGW2GrsU+Usxjff8/fDHweCYfzlsecwt6EW69YuHf785Qsn8N1n7kdJ5QnIDhH1RfNRZC9nCaNULYb+SDfW1GzH0sqNkAUby4b5uxP/yQDDbO8iNA+cR1ew+VUBEOIqhiJoWglzZZTlK4hG414NotgFRalnwZIUpboAEGY6QLja4IC9xADUunywCxO/8tvsNoQMD1r6OKgTlxbOKIBga7gD7s2fhxHtBkQPQoe+x4yx5IabwIkOKK37EG19BtrgiRGmYiIOwlgjxbwh1Elq6Fr3Yuhr8SPZb4EAgnrAD67fMWw0aLM7ITsdCC31w3DHS9OtuL54Hm5d9mY8f+5RnOp8Jb4ChgGX1waHxwaO57Ft9htQ6qhCd7AVL7c9hbBK+mUOzRcroaOIgY8tC1aiqqgMvYF+7Dl7GF4CCDe/Gcsa5rMmu7v7cODgcdyweTWi0Sh+/ftHsWnDSmxYtwyXulrxw2f/iAs9rZhXUYdN81egubcdx1svojcwgA9uvxs3LlnH2vEN+PGnP+9BZ3cviopc+MA9bxzeNd974nfYc+4wBFHA7Su2sM+PNp/DpZ521LvL8ZV3fmK4LEmnnnzmAFxOJzZvXDH8+ZGm0/ivp+6Ht/wY7C4BC8pWYpZ3IboCrTjV8yLLdLm29mYsKl/NpAYdgSt49NzPWKbKas9svNL+NMIsCBmYBKHlkUna1NOg2Zp5NmxcTumeVRb3IG5z4INhSEztELdDKALPBwoAYSYDhOkADhIAod7dx9I9T/SxOxwYVN0sBoJm0usrXd8zRYLACUUofcd+gBNhRLrQ/9tbwNnr4L3th5BKF6H3V7ugBQgcJN06TQAEvhAoaaLbc7h+rnEQEhVSuTn6ukIs7kHiIYCAAz6U+CkQUvzheAmcJMK32gbFM9oGgRhdcjZGkiB4SuywkwSBpHqe2dg2+050BVpwpOM5+CJdMHQOLRdLoBhxET/PxSVG5GGgaCoEcPjgjjfh+oUr2ffP7zuEF146hi2bVzFp0NETZ7Hzpk1YvKiRGSv+ZO/D6PD3gSdPB568FATEtPhF4TVLNuLdN76e/Z8kUL/5w2NoutSCDWuX4+abNrLPw9EIvv34b/FK82n2t8DH3W1JbUB1BB34/gc+D7scVzt1dffhdw8+ztRV73zr6+Bxx3XnTx59Afe/+BtUzGpmMSHml67AgrLVkEQbS019rGMf5pUuZymqmRoh3I0nm37N1GGLytfBIxXjSOceRNQQKA5CyyNxt14rHgvpcjRYbS9vm3ZoHQggbFi2FDwfZCmdY7E62O3noaouFl2R1A3R6BzIcksBIMxUgDBdwAF7iXEGGj09E9/HHAeH04GesAudA/kJkkSDSgUQ7vvufTh06BDLYZCvh4z2opEont//PCiDI7lOLly4ELmEWuZ4F9ybvwT7sneAl9zQo4OInPwtoKuwzb8NnCBD7TmNwWc/Dc0/krzJjBcDvz4K71o3ioW47na6Pz6tH32nB8E945x2Q80HQAgNxhAaiA67LBCTDu0bhMc/2gaBvPrUDWSDkNlIkRiru8TOROzsXIKDTXRCFGSEYoOMMRIG8XXL8A3MokDQKem6tHou3nvj61FbOtpOIRQKM3WRJEnoDw7i9weexNOnDyJdMlYbJ+Fzd70fsyvqmOqK2alEY7Db454WBEieP30Iv3npCfjCgbRrfOviDdi95VY4ZPu4MmQX00F2DE/+Bh2hA6iojbs+kSskB0r8RnpKg/1d5qiBU/JAY3TQ0RG8Ak2Pse9EXoaqR5mnxmQBhHwna7JyKGgN4iqGEmga2Q5JcDhOIhhcB44LsfwModAyuFyHEIksKgCEmQgQphM4oE0q8zpmuSeeFZGMi+xOCpJkR8/EPSaHz08qgLB+3Xr09fchGJy450WiIxY4SNNZu+YBghP2Re+G3LAdgqcO6sAVqO0vQfOdixspig5Em5+CNngB2mD8tsWYgAkJAmcnXzgrr5WrWCcKGOH8+Lfncxb5AAhkf9DfGhhmsAQQYvsH4BmIB6kafkQgtsEJzZvBO4HOoV1kACFbVEUlyqG304twtBQGUre5rmExdizdgApPMbMXibs5UqZJAwOhAF64cBx7z7yCyJC0IB1t6zxleP3a7Wgor4YsiEz1QWdE0VWcbruEx4+/gLbBzO8OWZCwc8kGrJu7BG6Hg0kZDLKJMXR0DfbjmRMHcLrrJRRXdWNI0DChpb7WAUItSRCWLwTHKeD5CGKxathsl6FpDgYaJIkMkOvZ74IXw3Tjtlm29nQcrkNUUOv0TehQMtTP85AdbrQN2tCfP749SoJQU1ODgYEB07nczUyO5uH1epl0IlcJApu/XAHeWUVy5bghYLiT2SPw9pq4kWL4yrhhmAEIZuZQKJuZAvkACNRDNKTA3xthUgQCCMbZAKTBMda5JHJf5ILuTu/kLwgcXMUj0oNMoycpQizCY9DnQjjogmbYhoDC6LcLGSzWlZKFP8/OJgPAhoG+4CA6BnrTSg7G9u0QZdSXVMImyUylQcawUS2G5r4uRLMAjERbpLqo9BSjxOWByJPRrAZNV9Eb6EDY6ICn2A+7k6IxTXznXusAoabRgc2r6pnNAREsnqypjL1zyLNBVUsgin2FSIpsK01Hjpthj0/H4XrkKCrt5DIzsUcQBAh2D1p9EgYn7jE5PJiEBMHFD6CqqmpigzRRu62tDatXr85JxWCi2VFFCwDBKuUmVi9fAIFGEfbHEBqMxpM7RXVAS3HK7RQwazz3I1BBum1XmQ02u5Q7g2SJoQBFEaEoPAyNy5nhT4xyeaqtGxQ/DJKoQZQ1iISd8gAOaHTXOkDwVktYv7YEAu9m6mG7IDDgputEQDL8ihOSvitIEKYjx51hAMEhqWgoCsHQVXbLsBpOlFzoOLkIV/oFhEbSDUz4jZIACIHus+wmNFUP0WLnzp0FgDBVBJ/CfvIJEOiSokRVhAZiUCIq8+NPp9cfniJJG3SKniiy6InZ1ArZJApTSLq8dpUtaqSVzq51gEA2LTZHPFkYvQ4rFxRhzWwbdM3JJAlxI8XZ7HcBIBQAgpUzNK6OUzZQ7tbhkjTwoOAtGjRVg6GRlXacyNmAg0j+9pIXV3p5RCfuMZl6XlO83usXl0CKXMA33jkbAy/9U15ondyIsOKf4dn8EabOoKyUdJusrq6Gw+HA7t27LVlh532Q12CDeQUISfShdNCxsApKopQWyxocRBsPyUY6/WuQuFd5SgmAEL9Fm/dkmO5eDOPIywH1i0uxbM4sOJ1nEQish8fzPHz+6woAoaBiyP9ptIkGSNrpkHTYRQMir8aTDBk6OEMDx1KMxg2ekkGDJEtQhWJc6gbMJrbLaRZTDA5oTAQQ7Mol3L14EKcO/D6nYZoptOw1n8bGu/8uJ4BAvGSWGoNzaNOHOA7tvIRYmmvYLCUKJ0eBeV7dD1kENAsSIknceBxA4FRIYoRlGGTPGHH3WDdHXQOLSWBkFRW8ummfavZEWqIyvUfoJ6+PAfSeiSEpo/p4fjoZYosMk8h2scrL/DnAU8FBliSmWtANHpFQtAAQCgAhL9srYyMUWl8WCDQYkHj6vwaBi/+IHB1wAg8GKMxyUHfjck/+XByHB3YVwEECIKyZ70Rv00GEo3nUmwxN7Prtt+GW2+/KCSCU6ho+5+9CyVBGSB8v4I82Dw5KDvj50dbsDWoMHxnsRiU/4pM/+TtlevZAMrD/cJbjSJKb3ViAQGnOeV4BP/RCoRj3gkCBaOJzSgYIqsLhclsNWgMNUI08ZBeanmSbtFElAII95kN94BgE5CBuJJVMupd90ruBygQuGVAG0xs0WImNMBFiTAlASDPAgorhKjEOqxtmhg035TTJ1koSDBBwoN8Sr0MSdDhlDv6YxGIg5PW5ikQjCcJtN8zFpabxYZLzMcdVq1Zhy5YtOQGEuWoUXw30QEzccilSHsfjSdGJU5IjoQiCx9CwMxbAck1hlvVRMmhjt7VJfthLnAMlLbSlMMhL17sKDirl8KCUxJSeWFMhkYI+j89/2kvwlC0elIeesQBhbFcEGEQ+ClFQmBqgYqkTC24rAoGDC82zsK/5ZnRoc9LGIsjj0K/ZpjyRTmxq/ilcWn9Oc0wn+qfKZphwASDkQu4sL92r+E7OZfQjZWbMQONDnmHDzWkt6JZF/EDgSbSVvxDL04FgBBCKhQ541rwDTlv+hfVr5rixZUm1ZYBANApyHEJJigQRBorI5QmAQi5xuoFJGHqavcGx/iQ+DhQyPZogQlm2Aq7XvgG2xvngJQm6qkJpb4f/sUcgvbgPQiQ/7jD/ZS/BkyYAAo2bSRVYOFsdQl0DuBVrENYcaAouQJ9ajjiFC49VCrijPdjU/BO41dxisBQAgnlKFyQIM4zjzrDhmt+R+awxDYiVMFKcc9eX8E97c08pTV5t890ifKqBtrCGpJw+oyj05U0OfHRH2YQAQiaSxwwDmmHAMYXeH2EjHr5HzqDr1QUBys7bUPnpL0AuKR1yARxCFIYBPRpB+7e/CfGXPwEfm3jecCsAIZmu4cp1OD7vbUOYddJlMfk8RdO2rQJAmPylKQCEacBEzCzzDBuumanlt+w0IVQyQPjHZ3O76SwolvCjN9ZgyzwngjEd//5UL766vx9+ZbzY/P9uduDjN5ebAwg8wDmcEErL2G+ttxtGKAi+pAyczQZOlqG1tkAPBRFjEetyBwicKIGc0o1oBByFtSOXvXCGWzyBAEGMG/WpZMxqIBkgcE4nOHcR+84IDMIYYvbR6lqUfu9ncM6dx/YNhfClTH+UgdLtjodmVkNBtLzvHXCdOMz+prlypIqggAMU9CccAu90ATZbXD0RDsEIBsG73IDDASMSZn9T+YkChBADCG/P7x5/lbdWAAiTvwEKAGGaMJJclnoGDTWX6UxumWlCLCsA4Yl3z8LN143ou6OKgff+rAW/Ojc+vKQVgCDZZdi27YD95l3gPV6oV5oQffIx2G55DcT5CxlYiD33DEIP/QHRcHgYIAhVNRBqaqG1XGEMVaiuhdbRBr66FpxNhhEIgLM7GPCIvPA87Dt2gnd7EHnifwG7A3xREdRLTRDnzIXW3grO5oCmaxC3bAPv8iD61OPxOmwUAAAgAElEQVTg2ppHAQTb+o1wvvXdUM+fQeTZp6GcOUnm/wjt2IXZ3/re8B56Zs9BHDl+GsXeIrzrba8bjnfR/uPvQvzGvzEQYtuyjY3NGPRB9w8iduwI7Fu2QVq9DlBURPY8idiRQ3Bsvxny1psQ2fM0onueZhGFCgBhco+rldYZQLjyY7hyVDGkszPIZH8w1fYGY+lgxjYiUZfGbDbey1iPsuG2lt/2GWuv0oINgpU9PaE61hZqQl3OzMrTiFBmAQJdpINfWgTHGAX8t57oxSee7B63HlYAgijykNdsgPPu3YCqQD19EtGDB+Dc/Q4IdfUwolGox4/C/6PvIqZSTIu4BMFxy61w3PUWhH/3K/A1tbBtvB6Rpx+HbftO8GVlUI68AuXEMfBlpQg/9CBcb30X+OISBH/zC8jrN0FesgyBH30Xnk99FqFf/wxC7SyE9+2B8yN/C768EoF/+wKMpgujAIL9hu2w33YH9PYWRJ5+EsrZUzAUBbG3vwd1//DFYXp8/8e/h6KqCAYj+OhfvwUORzzpRPtvfwnxS58BSSLsW28CX1GJ2Ev7oV68wGJ0SEtXwPWmt0I5cRShhx8AJ9nguPONDMxobS2I7H0Gek93ASBMwzcBAYSNl380DiBYYarppmcFIOSz/0xkT9cPRaS1Mu5UNhoFCcI0YibZzuAMGmq2qUze99OMSFYAwksfmoO1DSNZlSj+/V//og0/ODE+g5UlgCBwsK1cA8fud4AvK0fop99D7MxpuN79Pog1daA0wsqZUwj8+D5EFWUEILzmtbBtuRFq8xUmZZCXrkB03x7Yb9oFrqoayksvIPbKS7Bt3Izg/T9jYMN+2+sReegP4Gvr2G099IffwvWBD0Nvb4N65RICP/gOuNo6kGpCvxLPrJmsYhBnNcD91x+D7utnYEQ5epgBhNC6zWj44S9Y8h96fv/g47h4qRVutwv3vvdu0EuSntb//8uQ/+cH4BwOOO64G/KyFVCbLkDvaEf40UfAV9fA9ca3IHbyeFxaIMlwEx0WLGYqhsAPvwv14vlxAMHgKGaHI+d9XFAx5EyqnAu6I53YePnH47wY8smgrTDafPZfAAg5b4dJKjjNGErGDTFJJLhmmp2Ga2kWINBabKqw4efvqsO8ChmU8e9H+/rx94/3wBfLjw2C5LBDXrkGoIQ3XZ2QrlsCra0VECVmg6B1dzKGTWqAiM83DBCIyQolpdADAVaXc7igBwOsDoghx6LMRoCz25m6gUIBCuWV0AP+eHmnG7p/ALynKB7mJhSEQd+NeUYZKZIqo7IafHExGysBBbIJUItK4PjXb6B4201xUBGJoq/XB3eRG15PXD0TvnQRvR+8B7bWuEqEpBksaD/Fo6BkWH4/U4HQGLWuDjYeeqicWD8Len8/1M52Zv8wVsVA49d4AnG5GRzGvHPhr7p+1EwNCwF3OJawYfKfTE6iVphmvkdM6SrKwhdREzgyLlhSPhm0lbnms/8CQMj3zjHb3tScN7OjSll+Bg01L/M11cg0JY4ZgGATOLx5gRuvW+LB+a4IfJS4xzCwtMaBwbCGn7zcj6M+EvmPUMaSBCEpDkI2GpMXA7k6ukzEJcjWZrbvgxTLgGIhZGCgxFxj8xeh6NOfh5vADsczsSoLhqMbiF65hJ6vfAm2l/aD0yceE2E8QMg2i9Hf22w2uFwjdiX0rRXmQ/WuJgOiMSekM2YokE7HbaaNXMvmkz5W1iif/RcAQq6rPlnlpiljSTXdGTTUyVqt1O1OY8KYAQj/dGMZ/s+OMjjk1PESLvfG8PaftWJf50hExskGCAp5FegGZJ7P8a48gaUn3g6DBc8lcEAgIeMLEkCsyAtu3UZwVTXgJRmaqgC+fugvvwi5qwN8nm7cBYAQX4kCQMi+vwsAgcHY7Ic3OymnQYlpzFzGUmcGDdXUwo69KJp6p0+AKMn9murTxOzMAIT731qL3SuKhsPzju2GpAgf/V0HfnZyRCxvBiDM0WL4ir8Lcm5S8eHuVRLpT4DOJsjF5i6ROsBMpSko+y17CZ5JCpRktstrSYKQzkI+2207FeNMaz2fJUlSJiacTwadbU4pL3KT9TJJ0VmqudL6pBt3pvmkaqtgpDhFLz6zL5RXkwTBjCp21NmbwNqZ6ZPhYYt9mQEIu69z49b5LkhCag7eG9Tw3Zd8OOMbiT1vBiC4DR3vC/Wj2qD0Q4BXU1Gs63CmUR8EDQ5tggCVEYvE95P/xGeez54oIVKKcXO5zyjE8fi5zYtLomyZAKkAQrrGrDClRFv5ZI6pxpdpbFYyH9J4NZbxdfSTTVKRr6iIVhZ0Oq8PzSfT+My6PxYAQj7fRVZ2m4k6M2ioJmbF7MfMP0PEsMq4LfWZNMpc+zUDEOwCB4+cXpSv6AYGovqo/HVmAAINv1jXYB9iwCWaijeF+rGGkmWNeUIGhx/bi3BCskOfKLHMr+60qkHU6ecFUB5Sq08BIKSmXAEgWN1R6esVAEI+aTqDuO5MGaoZ0b0l3pNNvZUDoSz1m2HfpQMMYwHCLKeAtZU22EQed67wwOCBLz/diwUeEU9cCSOUFFPZwQNvXuyBL6jhz1dC+ObOSnx7Xx/Cqs5CMA+oBswChOQpELur0hV81N+DuUNSBfo+rHP4sbMY++3ufCfTzefJnVFtFQBCASAQBSZbwlOQIOT7tZADM8l3l1bbmwlDzcR4UzFR04zaAhHy0q+FRaN+xwKERSUSbpzlxKwiAZ/cWY73/6oNgzpwY70dX9/XB4PnMBDR0Vgi4f2rilDuFvG5p3rwtiUefOiGUvijGnxhHV98sgenemP4h7U2vPeG0pxCLaebAiVncg9Z+lO64gjHg8TqhSd/FCgAhAJAKACEZBFs/s7W5LZkgeFM7oDStz4Thmqa4ZshZp4IQIx7UseZNKd1i0sghS+AkjVRLga6tde4BPzNxhLUeSW884F2vHaRG29Y4MKJ9ghqiyR8+0A/Pr6lFKvq7PjVcT9+cNAHkePwtZvLUVUs4s9ngjjaEsZrl3mwazaHdXOcOQOEGk2ByzBgcECA49HNi2mlBOWaAs9MT0icbs9Y1xak3LEhjmO0pNTTqZ4CQCgAhAJAKAAEM+zOVNk88UZTfVopPGmMdwoIkBg76ypP/Y0FCOV2Hm9Y4EZjmYQfvTyA834VW2c7cO8qL1oGFTx8Ooj97RGUSBzetMSDPtXA74YiKN5znRulRRK+caB/eGnMqBi8uoYPB3tRSc6EHNAFEX+2uXBUGh8R0GPouCfQiwZoSGMzaWV7TH2dTOuYR5DQAQG/cnjRLKQ2ZCSA4Ha7p37+k9BjNkNFM12SyD2dwWGmeAtWvBimc84FMzTLpawVL4ZU7RaMFPPECHJZtImUmSHDnJybefLk6aU+ScQYJVVP6mMigGEsQHBJHOrcIvpCGnooEBJ5E9h41HlEdAdU9EbiRojkWFDjEkFxCLqCcSPCKrsAl53HRYteDHPUKL4S6B52c6R+LnEiHpScOC/HQQKRVzZ03BHx4wY1wsrSGKbMzRGAxHMs3fNMegbB4euuMhwTEyago0dvFiCkY2ZWLOiteBdYob3VYEgp3essJBzKNOZMxpBWaJpOGmC1LbPeBVbWh+pk8v4oAIRUFJgkZmN1AdPVm47DTBW/IO8ShKSJD3nbjSIRsy/IE3FyVbub6XMsQMj3vjAjQZirRvHVQA/EpEiKRLogOAS5IZZsUBRDA15Dh0iBiAwDET0euMjqy8/MnAkeUdwFOwuUlPmKb4BDtKQU3PXbwNXVQ5Bt0JUo9N5eGPufg9zWAt6YeBTFXMbvB4evvcoBAtEplctiLvQbW8ZKRkIrAIHqWGXO6YCNlflaHYPZvsyuT0GCkCfmYnahzJafbsPMOxDIARmlAgjjqhnWYhbkCg7SDjMNH5ruACHbPpzWoZaXrUTxZ/8Z7iXLx00j0t6Knn/9AqQ9T4FP4Wefbd5mv5/OAGGqmE8BIFgPnz1Va1QACGZP9nTjvGnGP92GOSUAYcykcwIISfRLxOPTk2+RaQg5UYAwdtkSUoZpCRB4gLPZWQpkThBgRCMwIlGW8ZCTSG7AQevtYUiLAEIi3XMuR4uTbeBkCXooFC9Oi2aSQY9K1kRNUA4DVYMRoyRL8QVUSsrh+vp/wbt+0/CwgqEwHHbb8I0w0tqM7o+8H/YLZ+NDoURNso0ljuKLiqH1doOTZEBTAZsNBo3ZMMCXlgFKjOV3YMmoaA68wBJSsTGo8UBTlPgpkZiqABDiJDHLgNLtqYIEIZfTZr6M2fUpSBCmG+ctAIQ4BVKsixkmHheHpxBRMwnD6MbpbzNtmzmWaxfGvRik9ffivucumKmaU9kv7JqNv71zSU5eDAkVgyQJkJYsg23D9Yz5UvbG6PN7YduyDULDbJbtMPrC84gePIBYLDaSzdFmYymc9e5uGEoMvMcLfZCyM7pZJkhinJR1kXN7oJw6AbFhDmC3Qzl2hGVN5EtKWEZGzuWGEQyCEwXoThek65YxRqucOAqjtWV0uue6esjbb4F+4TyU0yegUTZHitWweRsa7vvpsDtKb58Pe59/BTfesBYlJd5h2rV96yuQfvDfjLnL1y1h81abLrKxhZ98DPKS5TBUBeL8hYge2MeyULre834Gmmj/RJ96nKW2llasZqmllQvnWJpqygBJqbLF2bMR2fMMfJ0d+Jq9eFraIEzV7bQAEAoShJGXVhbGOkP4bt701zm9zSdQaLrRMx8ShLRtJBsIJv5PoXFNWJ2nBQip1oD1oQ/jiVyjJOaynAQQFlbrONwcQjulDs7z87bX7cC73/w6cwBBFmHbsBn2Xbez9Mzq+XNQTh2H/fY7IMyaDSgKtKbzGPzOt0YBBCovL1mG8CN/ZOXktRugHDwAefMN4Iq8UM+chHrxPLiiIkSefgKee+4F5y1B6He/gLh4KXiXG+G/PAz3+z+IyKN/hlBZhdDpE3B/8jMQqmow8NlPgWu6MAogOO/eDdvO22B0dSLy+F8QfXE/G3PsHfeg7tNfGKZmX98Afnb/n3DXHTvQMKtm+PP23/4K4pf+gQEE2+YbIK9YBb2nG4avH5EXX4Dj1tuhdbRD3rIN4Qd/B72vF97P/jOTGJC0IPK/DwGKCvvtd0I9fZJJGyJ7n2GAwnb9NiAagf9H9xUAwhDFzd5QCxKEOAWmCsSZXZ+CBGG6cd5XkQTBDMMnsrB0vjlyb1MAgdE8lRHBCCLJtd+xy0cAYfdrViAaGRK55xkgzJo1C4sXLzYFEESRh/2GG+G4+63gPB6Ef/5jKOdOw3XPB8A7XeyGTww+9MBvRqkYpEVL4LzzLuiBIGDo4EvLEXv+WTjuegu4qmqoBw8g+tJ+iA2zEXr4ATh23gahogqBX/0U0ryFsN/6Wsbk3R/5O0QefRicw4XAj+8DN38BINmgnzoBTtdGAQTq033PX0E5fw6Rx/4MtbWZTLERvOEmzPnvH4+i5g9/+gB27tg0GiD84DsQv/XVOEBYv4lJEZSmJsSOHWZqBNfb3g2ttQV8WRlCDz/IJCBF//BFhkZJXeL/5r9CvdQE5xvfwsCDeu4slHNnmCTF9fb3QO/tgf87/45sKga73Q6PxzNqvGYtyq1uHavGpWY9Kax4MVj1sLAyp3T0TjcGK/OZyjUyuz7sLWcy9XkBIBQAgqU9bZa5p+rETBvpGH78kIxfxHwAhEx95goYCCCUyz3oVi9D4ki/n9/n5htuxR277jIFECSng6kT5EVLmD7ekGUoB55nt3xxTiPU82fByTKCf/w9Ij3dwyoG+46dkJevROyFfdD8fti3bod68jhjqvB4oLc0Q21vY5KF6N5nmGje9fZ3Qzl3lun2pXkLEPrTH2HbtBl8eSVihw4ysf7YZ5QNgiDA+fo3QqytQ+zQy4i+fAAGqUDKK1HyvZ/BtWARq36xqQWvHD2NyvIybN6wHJIkQvUPouVdb4LrwlkGeqRF14EjL41588GJMkL/+xCkxUsg1M6CTmqWA/vAlZRALK+C4867mZ1G4Oc/hnruDOzbtkP3DyJ2+FDcTqG8Ap53vRfB394PteWKJYCQbwaUKTOilV1nhQGZ7SeTrUG6GAlWwEGmcWW6ved7jTKBFLO0m5L1WX7bZ6yxyIKKwex6Tqi8tUWaUJdpK5th7JlGYKad9Ax/PEAwDCsueeMlCLmAjOFaBFRSSDcSNgh3f+oGXPadzmlBSG7BcyJkwQbd0BDTojDS+HIu8W7CmrrtpgBCsptjtgHFjRQBR5qMj9nqW/me8lGIHCBn2CAGL0C5YTvK/u7TkOtmMcPIhI7IUFWovj503/dfEB/4DXgyOJzkx4oEId/MpwAQrC1yASCkp9urW4Iwnbhulr09nYZqhrHTtIYjFI6NaWDiPJsBCMQokm8ZCb6dahzxIeRLCjEiy2CGjwDWLCyGFLqAN31qG/ZcfiDLjDm4JA9KnVWo9sxFnbsRYTWA5oGz6A62oj/SDVUfzew2V70O2xvfOGkAQTGAqG5AniKAQGulwmDgQMpic6LxAtSFi2G/6RbIDXPAiRJ0VWNGl6HnnoZ45BUI0aiJXWa9aAEgWKNdQYIQp5sVqUhBgmBtz+Veazpx3Qyjnm7DtAoQRk8xwcRHZhdn5Klny6V1M0jF3FNLEGjcLBAjXfaTBpNeTTHxhEVrFhRDDJ3PCSDMK12J5VWb4bEVI6QE0R1ohk10oMJVB54T0Oa/iIOtT2Iw2jc8+skGCEQnCviogwCPCSvR3E9h8kqwdZFyAAfJzVMaZlUUmFsidAOCpoISUE3lMwjg667ytF4MqWwQChKEOGNMd4MvqBgy7+ACQJjsEz617xDLs7law0wGAsnS83wAhFwZfrzfTCoD8wAh3ULoQ5OMHzwraorxLZsBCG9a+jHMKVmMfVf+guOd++GP9UPkRFR55mBz/a1YUL4KD5y8D6e6X7QEECgXwz/6u1GmqwwpOTjAntoZlLVP6pNBI7X5puXNfI1W7OIEfN9ViouiLeUMCwAh9cIXAEJBgjB9XwlXi/OapMjVGqZZIJBqWunayBUgDB2fYRHcaDV/atVAOuaekCCMHedY8V6STIMVTWNekNMqmgEI71j591hYthpBZRCtgxdxsuslJk1YVrkJsiBDEh147NwvcaRjjyWAQPf/El2DNHS7boxF8aZwPxpTCEoMncMjsgOP2j1Qhhcx1U60KlVIt6uttpfTckxaIcriOMDzabM5ToUXQz6TEWWSbuQzWVMmL4Z8S1jSLX4mGwSzVv/ZNlg+18iKwaNZVUbBBiHbik6D72cCQEiXQ8k8QEjtbpjY2C3HHoYa8VtaFbJgT3OPydoez3NpLBUyV92+dSPKi5148/+3I6sNAgGE6yrWDzdIhomdgSt44cqjONTxLP5q7RfxQvP/WgYIqUa6XAnjb4P9cCflZ6AVeJC34dee8ikW1GddhhlbwGyyJisTnSp3vUzGkOkYUDYgMHa+uXoJWaHT1aqTiQb5BCKZgFU6MJRubAWAcLV2i4l+rwZAMCs9IBu2seMkfpxvgHD+ue8jFhrRwZsgY84xFFK1aTWQyc6dO1FdXY3d/+fmrADh7Ss/hSUVG4a7V/QYHj79Q7zS9jTsogvvW/N5PH/lTzjSsdeSBCEdrWapMZQa8YyRJC5ROQ6nJQeGPjFD4kLZNBQggOCikNE5PGZvedRkNgacT4ZrFiBki3VghTnmcz45LMmoIlbWhxqYKm+JAkAwu6Lpyl8Nzmth7FdjmPkACPEX12j5NbPuZ1LkdKLkVO6GI21cywDh5nm7san+NXBIbrZLCCA8cf7X6AxcxsKyNagrnodHz/4CVwZG3CXNGCla2HqFKnmiQAEgpFcdFQBCPPx7vkBPASDk6dDOFPnpzAUI2YwLkxeSytJBefUChCJbGRpLl2FpxQbMK1sOkZfQGWhGIDaATv9lnO07jCu+M1B1Ja8ShHwdp0I76SlQAAgFgFCQICSdj6vB1Ey/oGbEIK9OuggzEgSWFimFiiG9ISKt1FggQO5O418idLtIbudaliAkRMVFcilqi+bhuvL1GIz14nTPy+gOtCCqhcdt8YIEwfSpvyoVCgChABAKAKEAECbl5XM1cIwZgJDg62PHaQ4gAAKfOu4A6fwSbZ/b+z1Eg9emDcIYeQoEXmRiR80YSi+cYncVAMKkHLm8N1oACAWAUAAIBYCQ9xcLNTjVAMEMOKDxpTJQTGV/MEKcVJ4KmQFCou7ZawQgUNAhu+gEz4uo9TTCKXpwaeDksPqAVC0RNQjdiEtQkoM5eeQSeO1l8EV6sLJ0G7bNzS0Xw6RszklvdGa6PY4li2yzw+UZSUOdiWxWzjuT4qUB2GR4mrLNdJ9nWdN0unLBUDMYJadWN+ZT9z7pW3GCHWQDCOmaN2ubYMWVsuDFkIr6Vk7iBDeJlepTPcz8AYTEy33sSz513gM+Zcdx24RrDSBIgh0rqjZDFh2YW7IUA+FeBJQBeG2lLA6CR/Ji7+WHwfMCKl31GIj2IaIEEYj1Y13dzQxUcODRN9CNdfU35xRq2creu5p1dE6EzgmYeDzLqzmLeN+qpwH+qnU5DYRF90jjkht3J04BmjhYopNZ5pOJiTUMvgyHak26lxNhhgoRo7XqSWCmn0xlSfWZyrgyk8eGFU+odNEk8zWPbO0U3ByzUWgafD9zAUIy8eIvtfjBTgpFNPQiZId+qLgaC0GLUnpk8pMcvQCXXvk9lPCApVWZyMvQyuGmQWZzcyxxVGH7nLtxrHMfaormojvQivN9h7Fr/jtwqO0ZVLobMLdkCUodVXix5VG0DF5ggMIpuVFXNB+tPU3YNvcN1yBA4KAKThicYGmtp1ulUOU6HJ/39uk2rLyOZ3nrI5jjezavbaZqrAAQJp3Ewx0UAMLU0dpST1MNDuJMPPehpjdQTN1G/HAPfccSIMZnGEfe8aiFA+0n0N9yFLoWt9ZPpkHE3w2DQgVbeKYbQGjwLsTq2pvQ6b+CQ+3PYFPDa1Akl6Ev0oF6zwI83fR7KFoEG+p3QeJteOLir9isyXix3ruQBUyqsy/IKVlTRUUFgsEgKKKfqqoYHKTsAemfuro69PT0wOl0IhaLsbqJRxRFeL1e+P1+9h09jY2N6O3thaIoKCsrQ2dn5/B3FpYKBsdBE1wwLN2LrfRovY7IA/TD9nCaZsoWrEftje8y1YmmG4jENJzsjOFQP48opjdYWtzxNBb0/sXUHK0ULgAEK1SzVqcAEKzRbcpqTXeAkN5AMQeAkMT9k0FJz6WX0HX+eWhqfjPxTTeAUO6sgyRI6A11IKZFmFSAgIAOnakPgsoABE5Eib2S5WUIKX5muFhsK4dmaBiM9mJj5e05AYTdu3ezgE01NTV46KGHEI1GcfnyZZSUlDBGX1xcDGL89PmlS5fwuc99Di+++CLmzZuHY8eOIRwO4+zZs6itrUVVVRVkWWblqN6ZM2dw77334uLFi2hqasLKlSvxxBNPYM6cOThx4gQcDgfrh+pTO7k8MwUgOCQOTgngNJVlk0xnB7D1xu344Ic/lsvUh8vEBgfQd/Qo+Pq5+OVZHf/yQhgxTjTVRr4Lz3cLuKXRDYfM4eXWCA52RRGifOAACgAhc8AqK1LIgooh3zvYTHtXg/uaGd80MlBMle1XN+IGikl8fnh26aQQgjBGozy0Bq9GgGByK6QsnqsXAzHyX/ziF4zZHz16FLt27cLx48cZADh48CDWrFnDJAB79+7F008/jde+9rW4/fbbEQgEcODAAdx5550MMKxduxYvv/xy3LtC07Bx40YGDChKoNvtZp/R3ySxWLZsGXw+H5qbmxlA+OY3v8lAQi7PTAAIMg+UuMW42EvXKVReWvHbjh078IlPfGLc1JMlaGO/1EJhhDvaYa+ogOjx4G9+chT/cUZmxejYiQLBSEDVydMl/lnieKlDZj4k2ZjlFDAYM9AXo5ycgDDkkkznN9GWJHCsncSZFoYOZL2dR0dER0Q3sLHShg9tKsH9r/jgj+rYuciFC70Kfns2iLBmFABCloiWBYCQtMNnAO+deveAXN6MY8pMNR3TMfZUAIG9XMjCfmjMyZb2BYAQJ0o2GwQLW2JUlVwBAlX65Cc/yW70JCm4/vrr0dbWhsrKSiY18Hg8OHfuHJ599lmcP3+e/f3tb38bjz76KAsRSwyOgEFDQwMefPBBLFmyhEkTZs2axaQGtPaSJIHc+a5cucIkCyRpICkFgQTq77777sMrr7yS05STAQLtPVnkIQmApgNhRWdnN8EMiaklGBtziR2yzie+7ZAF9neE6jAGyoGYIe1PYq7UliTwLAYH9aPrBqJq/DNimIm2qK5DirdF+z2m6ih20pjGRwqNRwuNI+fE/6/fcgM+8IF74XQ6mHFbQhlx+Mhp9tmC+Q1QFBWUUdThsCEcjkDXDHi9bsiyxNpq74tg6VdOop93Yp5HxEc2lqDGI+C5CyH87myAlfnrtcWwCxw+t7cXEs/h+goZty3xoGNAxYstYRzoieHDK4qwvzWCA11xCd1Kr4jP7qzAI6eD+MvFIBYWifj41jL0BlTUFUt4/HQAvz/lx/vXl7D/r6mz4/WrivCPj3Th1nlO/OyUH1cG1CkDCJkyQOa0ufJQiNYwlQfGZBgpXk1Pj4KKIQ+bZTKbmAkAgb0IxxKBH3o5Jn1Or8xxwZBS5Gt4tagY8rFvzACERYsWob+/n9kJLFy4kAEEAgvE5MkmgX66urqY1IAekgB0dHQwpj937lz09fUxENDa2soABP2/vLyclaeXGEkQuru7GQMkmwXqg/ojOwWSIJw6dSqr7UOCJqkAgijQbRlQFB0GBzglurEDimogphqQRB4iQ7IGFC3+QwCB5+Lfq9pod79ihwBfWGOggerRbZuV0w32GTVFYCKq0g3dgHMIbFAZmmNFUZxxJz+MsesEluKqAEVVIUsSGubMx7oNN2LL5lXo7OxDv28AC+bPwXhAtB4AACAASURBVIGDR1HkdmPhggYcPnoWwVAYa1YtxtGjZ1BWVoIl183DksWNrC2ySVjw2ZfRZLgx2y3iE5tLUCTzONwSxiMXQmgLafir1V5sqLPj0090oyei48Y6O3bOdyES0xkY+vrLA/ibVV48eyWMAd1AZ1DFSq+ET+4oxxNngjjVE4XMcXjnWi+bv6YBHQEF978ygJvmu9Af1PGezSWYXynh28/0MZr96Lgfl3yKJYCQyRshrScHs1cyYSg1gYM2EbVkqm7Njttq/1brjR1zASBMYPNMRdWZABDGjZFZLo6nDr1wyJVRiQbQdX7/cIGxRcP+ToR9bdD16ZMuyOzBTkyOJAik93/tRzfh8SMP5H3L7FhwF25b+bZrzoshGSAQL5BJnM5xiGrEnOP5PGS6+XNgN/6EBIE+o/QfUSX+Gbv1w2DMlRg/tUFMjfanQ+LhC2msDbsU96IJxijuRLw/AglUhwABfUZtUTuJn3K3MA7wBgIh8AIPUqXROEnlQgChcd5irFq3BRvXrUBvnw9Hjp7Bu95+B46fPI+e3n7Mm1OPAwePo7mlHXfcvh2PP/UCVixbgPraKqxds4TtGzJYbPz8IbRzblQ5BdyzvAjrZtlxsj2Knx4awNxSCRvrHfBHdJS4BPz8yCBW19rR6BWhaiRl0fHfR/34m9VecEIcFP3qpB83z3KgtkiAYnB4oSUMj8DhLau86AmobP6Dqo77XvThA2uL8eKlMLbOc+KmxW58+dEurKu1439O+nHZogQhG0BIxeisiOrZJSZtNtf0xzJVnWzJp6z0Y/X9km7kVsaQEtAsv+0z1nhQllrWGs37+zNzgzNgkFM9RDMqhvimHolyOEzsNI7rTIxLL7pAD87u+f4UL/bEurN6gAkgkIV/k/8omtubJzaIFLXfc/cH8Nfv/Pg1DRBo2kySb4Dp2hMP6clpCxITSzzE9EhMn/iI/mb2Ekm2Lol4G6zu0BdM8MBxcfCRJOmiv6lqXL8/um23DXDZRhsNDvvGD7nkxFUMPK7fsgXvetc9TGJDagW7XcaWzasRicbg8w3C43YhGoshFI6gqrIMXd19EAUBpSVeuFwONr0/7G/B2/7oGzZUrPOIWF4sMgnHyT6FqR36VQPtIQ2bqm1o8ynwOAREVAONxRLO9MdwrF/BXI+IGqeAvqiOi4MqFnglhFUDsswx2wKSvFS4RQQiGm6staMlpOHJK2Hc2uDAzfNc2HchBLudQ4VLRDim4zdngxhU9EmRIBQAgrVXRgEgWKPb6FpTzX0tjHmqh5gKINBnqQR6ZgECvWCpnVcbQPjYxz4GkemvLWyALFWqq6rQ2DgvJ4BAzKm+vn64xYSh4diXCd3QBGG0Sx0xProNJz9ULnGbS9a5U7mxbZL6grwlcn1mgpEiQWNSU8ik6sjyJIwUYzGFgQCX085UNLk+R5v6sfP7F9BlxDN9joCk+P8SEhT6nTBETJSJ/80xNUkCOA3hrWHwQ2VTbU+ZQBFI+gKIHLC8RMSORjdcMo+XWyLY1x6Bj1Q+Fr0YChKE+CpZvYCk2z8FgJDrycpUbhJe2PkYVnIbUznEdNKDAkCwfoBJgkAeAaeOX2Ci73w/227cgttuvzUngJDvviezvZkAEOIvdsAhAjYpbuiY7lm3aSve+t4PmyIZSUL6Agr2nu7D914J4IpiN1V/qgtbcXMsAIQCQJjqfZp7f1PJfXMf1aiSUzlE8wAhPtSxoV+5pBdl8vhfrRIEskG4e/MXMdg/kqbZ4nYYV61xlYSlm4sLACFfBJ1AOymUbcOtRSvW4NK8N5tqnc5O2OAQ4yjQwiSgS1OjyV74uvYnMb/v0ewFk0oUAEIBIJjaMFNaeCq5r8WJTeUQrQOEkcklDHgSbSWyLpByIYEbXm0qBgIIb9ryJTz9+/acdoGnVILDJaKnNQLZwaOkwoauljA0dfxu2PKGYtz8tupXBUAgYTfPxcXZDJga5GKbJgMowVaOdt9UnqD0y6vXLELvdTtyWv+rUYi0R0G/G5pqMVqjrmJR91OoCJ/K2/AzeTHkrZNrtKF80a7gxTDNN8hUvt7yBRBSiVqZmmLoFkThks+8iowUzQKEuz48GyWVMp5/qAtVsx1YvqUYj/ywFZdOjdfhv1oAAt3ORSEGgVcBjhTtZFDIQ9FsKUCCAZFTIIpKvOw0eEoWelG3vXoajCT1EFQF6DwuYuBcLgCB4kOMboczNLi1XogwFwZ9Kn38rXo/pKJYumRNyXY5ZhY7VeInM/XHlk3nfWGWBgWAMJFVmIK6U/l6S2mgmCY3Q6Ls2PHFg5iM18UmuwZF/D04s+d7U0C9/HVh1Ygo4eZoRoLwsW9ch8rZdhzb44OnVMTCtUX4+f+9iGP7+sdN6NUDEHTIYgSCMGIoSUxK0wSomi3Jr9YAzyuQBGVaSeXLr3Ng3q6icetHc+DFoVTnU+Pan/JQ6KqBrkMxdL+Q25lJ511g5Zzkmzmmm4FZ5piJEvkGCPkGSgWAkNs+zlxqKrmvxfFO5RDTAYTEwYpvuviI0gEEAgepXhIFgJBdxdC4zIP6BS50tUSw823VeO6P3ahf4ERJtQ17HuzE/KUe7HukC6HAyC3NCkCYqDZ7ZBdY3NQ5VBtrpEjqhbEAYbiZcSg1hw4mu8hQIrLEi9o7V0L15vFGhhy5URKoBmBzSXAW2yCwQA1T+1DUxu5DMXSNhCfJOIACQEid7tmqBKEAEKZ2v+fW21Ry39xGNP6GYbGelWqpXRzjAWrGPszNm/1jyuDhrwsAYTSlzEgQ3vSx2Vh7Sxme/FUH9jzQARcFuFEMZnvwif9YAsnO4ZdfbcK5QyOZGM0ABJehY6kSxvWxMBqVCOIe/LleW4mRAZ2CjL2yE4clBwZ4AQkbEyv7LVMdUwAh351PsD06DgblZkh6ihtl1BBAyEZuA3CX2mBzyqayqk5wyCyscwEg5E7FggQhG62yMNdpz3un/QDjCzCVwzQLEOhlN5ZBkHZh7Dsw2f6A5lRQMaQ+XEs3l2DrnZVoOR9C0Kdi8foiBAc1nH7Jh7W3lGOgJ4aHvteMgG/EGyJXgODVNbwhMohdsSCc2ZhUlrMfBod9oh0P2ovQKkiTskdnKkAwhvI3jCKhAZRW8ahbZ4NeJEKngAIZ0ZEBV7EdDk88MdNUPAWAYI7KBYCQjV4FgJCNQnn5fjIAwlCQt3HjmyhAoPokbUj1+qNEd4knPNhbsEFIsTsEkUPtXBe23VWJ6zZ6IdniROtuieClx3pxZE8ffD2xUTVzAQgkKbgzPIDdsQDkPLHzCDj8WXLiAbsXgeTFzcuuJxtEDprgGjZAzKhiyFOfE22GiYmTojqy9uhvDShz6phVa4CrsUOvtkFxCUwik+4hlZy33AHRlovR4ERHjqsmQci3aD0TJfJtg5AvPT+NOd90yNfYXr1GipPBeSd+Tse1MBnDNJPnhA7VuPcY80iIDzVZgpAOILDPWfz7eKXwYA9OP1MwUky1XWYtcOODX10AcUx0vrOH/Pjh58anSs4FINRqCj4V6sVcPXcLc87lgdTYiNixI2l3dQt4fNNVhosiGQnm95mRACFZekAHl+wph0Ibljo01HsU8BIPsURCZJYNWrV9JF96CvLZHCI8ZfEwy5P95CpByBShL1uOglRzyNRetr7M0sSKAWW6PvI9tnxFPkyMN5Oboxk6FACC2V02xeWvJkAYjmkwds4ZAEIij3xyFfJuTPZsIBXDqacLACHVVnIXS7j13XUI9iloOhWAu1jEnCUetDWFsP9PXeOq5AIQ1sdC+GDEh1KD4uWKEBtmQ6isgXLuLITyMuitreAqK8DbHeC9XihXLsOxfSek2+5A/zvvZiBQfs0dkFaugREJI/idb0BQVEQN4D+dJdgvu/Jui5AbQKCESiLDnZo2GvyMzts4Qjae45m7rZYElniObukUhjgOd+NlKMkTpfSNp/VNPAn5GH0i8lSG8jNozOZglDU+NaUMhRAzKCSzjrleFaqmwxeMIlYjw3t9JfgMEgICiUUVzowRGvP1OiKAQF4MXfsm441jbZT58uW31rv16KlW+8tUL98AItcxFgBCrpS6SuXyfVzNSA/MAoREtsZxeKIAEEwFSjKz1XIBCDdGA3hvdBBeQwdfUgrPhz4Bvq4esT1PwXb3WxD8j6/AcdsbwHm94BvmQHnqUfi/8y0U//wP6H/LHWw44vZb4PnkZxB+7BGE//PrTKqkGRzuc3jxlM0FLav1nZlZZVcxSIINLPgWL0DRYhBAoY4FaDRHyhiqxVUx9H/GuMlextDB6nGUFlpERAlSC5BFG/tO1RUGHGTBAYGPi/bpM5Xa5yUIHBllUjZJFZqhQuQliLyMmEYpnrVxAMGIxf09iFZlDh3FYghd/UEEwgq8i72o2lHLAEKJswK7luyG0+bE48f/gJaBi6yeKPBwldgh2SdfzVAACKn3p5nbtrkdnnvpqwUOaIQFgJD7Ol2VklcbIKTzYEhEfk1WuSZUDKMINaReSD5oBQlC6q0kyTycHpH579MLO+QnpkMpisGYRPVsO3rboxjsM2ekuESJ4G/C/ag0NPBFXjheeyc4mw1aRxvsr7sLyoF9EGrqYPgHwJdVQG26gPCzT8Lz2S9j8NOfgO7rjycAapwH7eKFYSjgNzh801mKw7IjT5YNI3TJRYJAN3+SIBATF1k4YkrFrLHPNF1hUgDavwInQtGjLMsjD5IOxCUPUTXMviOAQI8yBAZEQYbIxX086DOSIhAYIFBA0gVVVxk4sYkO9p1maAyQ6MnJrHTAUJivI2vHJSiI+buHs0d6Fxeh6qZaCHYBDsmFbQtfC6+jFI+d+C184V5Wh1JGu0pskO2jM0ZOxouoABAKACEVBQoAYTJOWx7bnO4AIXmqcYnDKK9H9jcxvFEAYbAHpwo2CON2ibdMxpINxSivt+HisQCunAkywOAtk1BeZ8fm28tx/9cvofVCcLhuLhIE8mD4WLAXa/QYeEmCUFPLjEKMcARCVRU4pxt6Xw+gqeBkG/RQALy3BJzbA62tBeqlpnFjpX15nJfxXWcJ2oTcsxLmejSyAQRi1MTkWZbJods8fUaSAJIQEGgg5k03f7KiUfSERIFAhcCYPH1P+5KkAPSb1dF1iIIEnhMZCKB6I+oIg/XJDMpgQBZkFtFRg86kDJkAgo2LIubvYW5JRLvSJV5Ubq8ZVjHIQjzYE0kjEo8o8vCUO6YkLkIBIBQAQgEgJFMg35w31zefyXL5HqZZFUMqCULc4HD8ROJ2BokvRgIqsc9Zx/HPwgMFgJBqG8xd6sGqbaWYtciJw8/0o+lkAIO9MTjcArbeWQVO4PDbf28aFeY2F4BAfa2KhfHxUC9KJujimBh3D8fjl7YiPCe7oJjZVDnu/2wAgUAATSVhN8BsAxJbbBikkvRFGCqT2I/xRMej7ApYW/HK1B7VGbE1oM9Gp7lOTIHZKoCHPmSrwFQZiQNLv1UDhhb/gACCGuiGDg5SkYTyteXwLikGlyEoks0uMoAwFU8BIBQAQgEgzDCAkG9wQNPPFE6ZBXhJolFKDwbS6+YEEOINUX+CMJorhQe7cbJgpDjuPNqdAuYudWPz6yrx2M/aMNCrIOCL4br1xdjxlhr8+utN6G4buWFSA7kCBBEGSNXwzrAPjbqKVMakuTKiFgj4o93NwEFkkrIMZgMIuY51KsuNi4FA54mwhabDQQAh0gvXXA+8y0rgqHKAlzPbFhSVOiA7J1+9QDQaCxAyeSRkCo08VTp7Kx4TU7EXMrkrWhkz0dqsR0K2MZihQ0HFYIZaU1w23wAh3UUvbRp7FtNg/JVzyH5rHDVS+RkXAMJOmEnWRGF2b7ijitH27KEBOItELFxThOce6oK/b3QMBDMAIbFYdsPASiWE+VoMRSRiz9G4kDMMBHkeF/8fe98BL0d1n/tN3b63V/XeK2oIkAAhgTAYA8bExmBjMGBwXhLHKb+8JC/JS3lJnMQpjktwN640U0WXqJJQ773X29v23Zn3+5/ZuXfLzO7M7t4iaY990b27Z86cOXPmnG/+5ft4EbskN7rMJkGJnpFLESBoG202tySJSjrdcVTNFeCf5AMn5KZSJn0ph1uEd4hSHPsBwrYILiazGARBMKRMZ3VNNq1SgoNCNtMSTb2imzEDUIXwMNBmn0iNbUn2TtO80eJpMgsdY9YHu/eoDBCKng6D18BwA4T0uTfgPjDaG8weaLI2ZIo3lS0IpZszVi0ImWfUEvQGp+iWfgrlK7RcqgBB30AzozYrJznQdHV+vgh65mRJhK9+aFwL+v1hFoQyQCh0uqYdVwYINBxlJsWSTKZcjYwsgKD1lCHXlDcgLUibFPRS4w8GrkoQsvOJywChdFPHLkCoVeIYm4ihWkmAhJIHo5C1geISujge5wQZFwQRMZtg4VIGCOyJSKb36ObhyklJLYbs1z3mh+MFjmUtyC4RLq+cX7OhxDeuDBBKN6BlgFAGCKWbTTlaKvXybdfFYFSfmbUMfBIa227qG6P2HkkAIXO1KwOE0k0fOwBhXiyE1ZEApiUi8NK9UY1jUorunaoxbFK0xAlRxruiCx85PAjaiFe41AGCPoY6gK6Z5sT4G73ZQ8v0njVwQMRI/DAoOTKrR9mCUPS077fGZAh16Z+XXQwpQ1zqza1kd6//yS15iyVvsNRjaAcgmNbNCRCyfauiQYwVAYS9b5eZFEsxYawCBFJxfDTUhVHEhVCKE1tsg+ZwK3j82uHDuw6v5YyHywUg6MNUN9ONKbf6LY7aYFbTUpEzSxkglG7MyxaEsgWhdLNpiCwIdsABe+c3cR+bWxCMtx0jgBDubcWet64sgFCvrMJHH20q+bz5zJdW4IHHb8aJEyfQ0dHBXECNjY1wuVz4zGc+w/52qwp+r68di5WITUN/abpLIOEAL+Hb7iqcJu4AC2XEAgSyjigc1H6lJWtxFr7xFahb2mzhygexClFJU1aRGIG/Mgi3V+MoKVsQSjvmZYBQBgilnVEmrZXSgmAfIHCaK4FIYVK46AXRODXLOIOBXAzZC2ikrw273/zukIxhqU5iN/pXP+/q1avx6U9/Gtu2bStVV9LaWbFiBW699dacAGFaPIyvEZOiksznpwh1Ikqi6GjKVBFFqNEoy1/lBAFqPA5x7HiIo8cg/P4G8DW17Hu1twfSxMng6+oQ2fQR03UgPgI1FgUnEVkSx44llkbQDzmZerrZHAow3YZqfCy7Lek2jESAwNKAFR6qam6DoXkiiSKjZdZmvoqYkoB7TC0qFk1ibI65Ch3jlp2YVDMKc8ZMgiSIEHieRbJ3BHqx6dgetId6EdfvZY7GHIKEsZX1mDNmMipcmnsjmohhx8nDON5+HLL7NCpqwhDEkZnmWOgzV8oHzawPQyUylStl0cxlUU5zLMUMKOXuW4r+GLRRyi7aBQipgYipXcvMSKDvzDMY9ODF9Iu70gDC/fffDxej/rX2tmlnOo2eOAnTZs/NCRCujQbxULgLlZTW6HRCXrJME2vasRXC6LEQ6usR3b0DnMsDccwYhN9dD8fipVBjMUTe3wD3lx6D0t6G8MvPw3XDaijd3Yhs3wL5qsUQ6hsQXv8mnLfeAXR1ILprJ7i58+G+/yEkWi6i+49+F0IoyMIhf+Lw4WWH35KbYcQBBGY5yA0OJFGCS3YweufMMn/xVXDNHYM9547mDA0dU1GH+6+9DbPHTjacBt2BXjyz+U28f2QXwvHstFf9II/kxJ0Lr8dNc5dBFtOZLqPxGDYf3oPntqxDRNqHipoIC6ocTLGmXHPf6I27mDTHUmkX6KmERjeiUHnmUvXNzhphpa7Z/SmnOVoZvWGqM9IAAqNNNlj8NOKkjLcqlQiSVMP60UAbdr1x5VgQxo8fjxvFXiS6O0o+kyas+RRm3vHZnABhSTTE1ByrKP6gqhreLz0GYex4RDe+D8cttyHy4nMQxo5FbP8+SDNnI/jCs5DGTYA0Zx56v/tf8Hz5CSAcRvA3T8GxdDmzLoTfeQPONWshNo9G6LWX4f3Lf0D4Fz9C4vw5hDZ9CMedn0Fs+1YoWzayayatxR86/Hjd4UPcAlDKBxBIbElTbCQ1RZ3PYYDFU6ND1jgJiOtBV3fU5i9ZxhhvYvJ+6DyKSbZFOoIsI6TkmNzO6YVdVc1Ji0RBYG/+qW911Af9ebnxxhtx532fwX+89guc7zWeBz6HGw+v/BSumjgzC2R0dffA5XTC4ZDR0t2BH737InacyZb/1ifYHXOvw73X3NI/3/oCIeY29Li19MlYPI5Xtr+HV3a/iKqmM+D5MkDIfDjLAKEs1mS4YJNlXeCJYpUjErRhK8MFEBh6N8xUMH4DJoCQVV8lC/RA/VTLajTYhl2vXzkAgYiS/mnxWHS+8v2SzyXXnb+HinsezQkQxiRi+HqwHWOVuAYQHnoMnCghtO5FOBZfDYSCiLe3MVEmAgChdS9BJfa/G1cj8MwvIU2ZBnHcBITfWw/e54Pj6msR+eBdyHPmQxg1GsGXnof78w8i/OJzzF0R+XgjVFECFx8QleoAh/9wV2OXZE3YKRdAIIpjh+hObuCkuBhlokssXTC5sZOuAhX2eZKSmSiTSWeB7fmqijjJNKsk7kTaCzwTXSKRJ6JalgSZudaobQIgiTgBYHPXglOS4ZQHeA7i8QRzC0iSyEADAYRHvvIYfvnROry5/2PDeTC7aQIevuEu1FdUp33f2dmDtzdsxszpEzFj+kTmpnhhy3o8v30DcxlkFlHl8e8P/BGqvFpQZDAYwvsf7oDLJeO6a67qr370wmn891u/gOLcDJeXK1sQMgayDBDKACHr4XIKcTR4gyztiBcExBQRsQSPUJRDMMYhFqc3lpKv84YNlvI0hhTLSfr6zJOztyBTrYXsrupAILO/kknKViTQhp2vfWdoBrFEZynUPUAxCAQQ/nHJWLT95K+s9Ybj4Jq1Eg1/+K+sfs8rv0Dnc/8O1cCk7Lnvr1H1wNdyAgR6174v2IU7YgHwHi+c161E4sxpxA7sB+dygnO6ofT1ss0dsqzFDdBbtM8Pta9Hi1Pw+qAG+sjO3v8753CCk2UkOtrBV1Zp33Mc1HA6HTRFPrwnOvFTVyU6eGvUwbkBggBZcmlaDEqCCS9JvMQ0EXQBJ5JkZv1mWgkJBgDoM1JlJABAc5VEmEiMSeJl9hkpQcaUMGuD6pEFgUAFtZ8KEKgtZoRgQQmajYFcCw5pIACTzObRWFyLRxA0gPD4V5/Ai1vfxdNb34IsiphcPwZnOloBTkFvOITF46bjC9d9EtW+ChDAOHrsNJxOGXW11Qwg1NZUYdmSOWxOvLl7I369+Q30RcMYW9XALB0dfT3M7SAoHJ589P+ArBpUCKh8uGknOrt68clbV/bPwdbuTnzjlZ8iiPXwVQtlgFAGCFnrU9nFkDEkbimKBjctkAOFNkyiHhUEkuIVEE+I6Ivx6A1zCCdBg7WV336tUoAE2/EHJQAIzApjQClLMQzhvjbsWPdt+4NR5BGFbvL6IlvI6desWYNRo0bZBgieJbdj9L88z07Z+dR/oPXJP4Eai2R1wQpAoIO8CmUytGKRmv3GWch1WT2G5u9hXsT3XVU4lJRVtnJsPoDglMhUziUBQpRt6CxIMrlh08ZOgYI8LyASD7Ngv1giBll0aiqNiTA4TpOFps9IdimaiDKLARUCAaTySJYIaisVINBaIJJQE0fPv1Y/GyCoiMViEFMAAlkQfvHhK3jrwFbUeCowqWEMmitrsf3kQZxsP495oybjoes/hVp/FQMIJ06dh9MhobGhFuvf+xhej6cfIDy76S1mQSAryPLJc+F1uHGhuw17zh4Dp6j4zkN/Do/D2T/UH2/diwst7bh97Yr+zw6fP4Fvv/0bwLkJzrIFIXtzTNIZG83XcgxCvqf4MmVS9EoR1Ll7cl69bnqihYIWoIRK2vI8+wnHadEg/yXJxzKdlqLKsAAEE654owBFurg0V0LyagWeuMINdBzKACH/fKDUxNk3oPGP/xOJvh4E3nsV7b/5x6IAAtvEVAW3hnuwNBpGJTd4VMt0Lpq3BEVIEvollx+nbUpC5wIIFB+gAwIy+pPcc78rIRlzkFBjzEJAz6rASaC/yZqg/U1SzmAyzQQQNGuBJuGsSTtzTBKarAPkdmDXo5C1IncMgkt2sowDDVAqbJNnYELULAif+tw9+OarP0dLsMtwDjgFGY/dcBcWT56dFrvT3tGFfQeOsUDCqxbMRE+0Dz99/2XsOHPYeC6pwG1zluOe5TczYBQIhLDv4DH09QYwd85U1FRXggIVX9r6Ll7b8wJqRp9nd8xqkGIxQDuzw2YbbTFBivkfsPQaucSQCskUyHX+XOcyAyJ2r4fql+oeDZoFQV8kCrm4ITnGZOf1ymHUuXptd0ETzuDZpiiKMnjRiYs9HNp7i3dJFAsSbFsQDABCrgDFVCCg99UMIAgih1BP2YKQa4JJ9RPgmDgfNb/zv6AEehHasxk9G36NWMtpqPFQ2qFWLQj6QbR9VSoJVCdimke99IkVyQBAIMjzOC+Q6d/+SfIFKdp+QEtwgJLIncVA2QIOSWIvDalXTJvC3MUL4Zs/DrvOHs3Zk9EVtbh32c3MulDh9qYt9LFEHGfbL+LtvR/jvcM7EDGIP9AbF1QOn19+KxZMmI4aX4UGeFjoBbkiurH9xAGs2/UWIuI++KtjlrMYcvnl822MZvwARptmrg3OTKSo0FtcqDWg0PMZHZcLiORSz8xsSwdWhQAEQ1GoOWv/rLD9x8JRFqqUcozttWXQOXqofY4Qapx99trKqO10OuDz+XGuE+zHhHnT8jmKHcdSAAQz6wG9MKW6EvSob5HxH2RvDPQ2FexpLbsYctz9Uf/nN+ArqsDLDqiRMDjZwSwJrd/5S0ROpvMp2AUIdEecqoIqknxmSQD2N2+zrtNCS3TK3YKARAGgILXdkQgQrPAgiDy5U8tFsQAAIABJREFUIgcAghYPqcIztg6eheMtPfOVTi+mN49Hg6+KvXRoGRUJRGIxHG09g2OtZxEnk0aeQjwIM5omoKmyFo5kqiMFXJ7rasGJtgNIiGfgrzbmQTBrugwQ8o16Yd9ffgCBwdHcg1HsxlbYUFs8ygQgVDhCqCoSIBCLndfrxdkO4DwBhBIMRDFN2AEIdjMYyL1ghFZFSUslyywEJsoAIfccnfpaN+BwonfdTxE9eQRV930NQmUtzjyxFoGdr6UdbAcgiKqKayIBLImFUYcEDGQyLD48xtVoAw2Aw2FBwnqHB2cssiYatTYSAQJb8tiOT7EOuYdqIOFSq1cxyY/GazQZb0uFJBoIZLH/a7EVVBTSgrZZ6BD2jFI6KKeCF+NweuJwOBPQlVkZ1fL2KFqScs9lgGBzkIusXgYIRQ7goBye8azRQ10sQKAHkQCCx+PBqTbgokYkV3QptAkzcMBcBga9sg8Q6A0nvSH6m1wJmYUIZBhA6G7Ftlf/u+gxsdtAIWY3/RxG5jcr5y8kSHHKy20IfvwOnLMXQw32Qo1pfvCW//iTggGCQ1XxQKADNyTCTMVxsPQYaJ6SzPM5cPhXTy1OidaolTPHcqQCBCv33KhO/Sw3Jt1SUejhJT2O2fYyJkAZIBS6wpbm1pQBQmnGsbStGACEKmcQFY5AwedJBQhHLwLt9sMZTM9dyBS2DRB4Y4uAeYBiNkCguvqbSerFUAAXfVcGCLmn15SXWtD58/8C73QhcuYovEtXQ6iqQfuP/7kggEAbwqdCXbg/2lek4d/eY3FaEfAXFQ3oTgbu2Tl6xAMERrRkvVRPcWPcDZXWDyhxTbJA0LMnORUIEvFFpHsAywDBzt0s8c2hrBmTZ4Tu26UZg0BjdCm7GPR7nHIN9MyUAiCQ9YCsCKUGCBaGPGvmlhIgZJpNM+MP9JObAgTiluDKACHf8jLq755B7xtPI9HTiujZY/Cv/DSE6jr0vPErhI9uSTvciouhUYnh630dmGQjxZEomTmXG0pnB/iKSqjxGNRAbuBMmzorxCCY7OWTsg8vu+y/OY9UgKAmhZrM9Bj6g8RS7hJZEN1jq1G5eEq+W8++p7Gr8fhZ3IBu9UqoKnpDQfRF04NUczXolhyocHmSmRXkplAQTfQiFDsLT2UvXF6F5DdYGU6AkOsajKx+pc5wGOlBinb7V2gQZ2mDFC3sVsOLySw9i2kgh/xz1c4g/HLQ4sHZ1WjyUr6y7HDhaAvQWVy8Y9YJ7I6pfYBg5DLQUhZTiGxZv+gthDcIRiSBJlp4MvsqClqaWdmCYHF6cQLE6mZwooxYy3Et1y6jWAEIC2MhPB7qQg2l7FHa3ZhxEBqbEDu4H0J1DYRxExA/fhRCXQM4vx+JU8cZcyKRKgXXvQzXXfcA4QjCb61jn3MuFxJnzwCSzIiSlI4OJh7kuPUORpIU/2AD1HNnWE8/4mT8k7/e4gUPVBuJAEFJ0CbLeMUNr4csZKTHQIGKqc8dLfCjpk+EOKsZ3ZHcIMslylg8fiYWT5zJshj07ANKSzzT3oIPju7CwfMnKAwiZ5lUOwrXTpmHcbVNkEWZPXcUoNgd7MWWY3uw48wWyL4z8PgpFVQDCK0Ug/BRyj0w8I0Wujnn0iAoxvVne2KV6AC7mzYDfjkCgs2+K0QUqpT3qPA0x8sFIKRcBwGEGlcffFI6E5ydOUU3x+/1gpecOHYR6Coca5ie1g5IsAMQzOIPWO64IadBti+TOk2ZCv0vk8mroPWMRXdzuKIBglQ3Fs6pV4F3uFjgWWDrO0j0XEi716So6LvmLnCSA7ynGpzkROcL/57GgyB4auC9+haoU6+G/44v5BFrCuChcLcm1iTLcN50MxxLr0Hg5z+B55En2D2J7d0NcfRY8KPHMo0GEmcSmkej7/vfhvvhx6F2dSH026fh/ez94EePQZRol+sbwVdVIbZ9G8KH9sPz9T9nICb4rX+DeuYUu6bNnIz/56/PZ2zMBsIch4Tg6Y+W4KBAFsMQBC0eg+Yk0zpI0Vmw/pxm2sLyH6nxIFBYpwndOMczqmViSDQqK1auxPybrsFTG9chkqSBzqxHwYS3zlmOOxZdD6/LY9jO4fMn8bMPXsHhVg2AGRVScHzkxrsxsWG04fc9gV78dut6vH/kNVQ2tEFyKLYAQv7Rsl6j0M3Mjtk9X2/MzPu5jqPz2+1DIefJ1Qe7nAr5xsHo+0EFCBYwRCF9HpxjWKRviQCCzwdOcOBYC9A9AgECcz8arHPmAYoas1xmoTiDrHY4QLMUaLV1MKMHKNJnV7IFgXO44Jl9PbzX3Ib2X/0z4zlwz1kJwePX6H/7uhDatwmNv/9N9G16E45JsxA9exLhfZvgXXIjVCWB4M71CB/aCv+qByCv+RwcsxfnBAizYiH8XrgLdUoCRI/sXHE9HDesQfiNV+G69XYorS1InDsLcew48A3NiB/Yi8iOrXB/+rPo+cbfQV56DaTxExD87TNw3bQGwuhxzOLANzVDmjMfwR98F6G3XgNXXaNRLXe09+f2buAd+KavzvYzm0+LQRZd/dG/RJesEyWRpYsIheJqnL0xEwkSgYh+bQaeSJI0VxcdR2Z3Opbq0+9UaK7LgpMxKMaUmEa5nIcDgWiWSY9BfxMkFkUiSpIkCaIoMKKkBx95CP/z9nPYdvqg4XiMq2rAY6s+jXF1zex7Ikh6/4PtqKjyYdniuXA6ZCQUBev3fowff/CSYaojp3J4eMUduH7WIs1aFwpjy7a9OHjoBBYtnIkF82awto9cOIUfvfc0evkt8FXEywDB5gwtAwSrA3Y5xCEkdzKeU1Hv7oFLNJdRzTcshBJ9Ph/Ayzh+2QAECmoyyEowAAha/MGAO0IHCWWAMKDF4JqxHBWrP4+L3/o9Zh3wLrkdgk8LYIu3t6B307OQG2eicu3nIY+fgpYn/zeipw+i8oYvQqipRvvT/6ptjhwH3yP/hoq7HsoJEPxKAl8PtGGO/uYqiuAkGWo0wtrhvT4ovZrmQn9Jts/OQyRgbg/UIJnHOfBOJ5RQkFkjiCqU4hPMUnX+0VWFjbLx23DOt6McFgTSTXBKbg2AqgrbxEVOZNqMIk+aCwrTTyDzPAkbcfTD86yezMsMiJEaZChGSZkco1om3Ua6+kgsCJ4XIfGiJtLEBJzStRiM+p1JtRwOa7TYpL5IGzXTYniCtBg24Jltbxsi9MVjp+MLKzQtBgakg2FseG8LU1686cZlcLs06uTdpw7jf955Dm3BdEp4+o6Emv7mnq9gfBJk0GfEpPjq6+9jxbVXob5OE4LqCQbwgw3P42D7y6huiDNQZdXFkG8NtPN92YJgZ7TS6458C4K++ue5Rjsm8cKHq/gjeZQGIFT4/YgpEo63An2FeytyXpDVMTW0FJhZEHJkMGQCBGpXk3lO7yYBBIpBSC3UVxaXkLRCXKkWhPan/h6uudfDM2e5NnD0hrf7QwS2rUsbL87pQ/2j/4/t152//R4iJ3bBt+xOeBbfwISVet95HrGWs6i65zEokxdAnjA9J0Cgxq+OBPBouBv+gngN7T9bRLO8UZDxX546RAsgY8plQSAxJQdZEJhYk4KYGoXEDQT09Ss1QmXCS3ESMGJgQYEsONi/1D6JN+lWhlgiClEQNUsDgSbSceB4BjQytRiIvpjcZVQvQsGbqpqlxUCfRaJRDYDIElatWoWvPPE4Xti6Ac9tewe1vircMHMRwtEIDp4/iUMXT2HR2GkMINQkwSKBjO07D+Dw0VP45CeuR2WFj13zLgYQnkV7sAerZy1lTImn2s5j64kDSMQT+Ku7Hu13L1A/Pti4g8ULLVk0h2lDUOkO9OIH7/4WhzteQVV9GSDYneFlC4KdEbtMrAgEEBrcPXAWaUGoqKhANCEyC0IgW1/HzsgWDRKKBQgMCDA2t/Su2AEIdCSfzGCg369UgGBZzZG2FZIzjg8EtHGkQKix9GiBH8wcrsJKkCIbfwArw724ORbAGCUOEiYeDC6EmAp08gJ2CDJ+5a5EJ6dR/Not+bQYaKNnAIEpLpK1QHMlKMRKRkF3zGWgvahrUs4KyMdPgIG5EugzcjEwSWjNFKaJOGkPLNNrICsGa0c1djHQM5Fc+yjjgGIQ+rMOEgnE4woEkWeqiszF8OWH8J23nsbOs0f6h4MCGsltQAykoyvq8JWb7sGE+lHs+86uHuzecwhOp5NpKJCLIZ5I4K09m/DUR+uYUJPWby0mgzYtusYvXnsbbpqzrP+zbTv3o6GuBmNGN/af99C5E/jRu08jKG2Dt+xisDs92ViXYxDsDNtlABLIxdDs7oYkFK54Ry6GqqpKBKIiTraqCA4iQKDbk8+SYAcgGMk8a0CAcbqlFdqjjFJ3tQyGTDRBC7OWwXCpAgS7i4E+WESU1NzcbE/N0cZzZxUg6E1OiEcwLR5Bg5qAkwGOPOHwNvpC4YNdHI8TgoyDogO9BfAf6KfLl8WgzyU9SDE9WJFpMbNNN7OkBjdqz49xoGNm8CMNlZLIFaTIJYMUSVVSKzpAod+vv/56TFu5CM9sfRthEw0FOueq6YvwmWVr4KUUU0VFIhFn1go9wO3QuZP48fsv4ng7CSwZl1H+Gnz5hrsxtXmcYYWeYB+e2fwGNh1/ExX1FKRIAMiai4EaLGXWwUhwMRTSB1oPcmUYGA18KcdNm1/Gq38pz1NckGLmKFziIIGCFGudfXCLUfBcfq5zo0lAD3J1dRV6QjxOtgLhwrGGpaW5VADBPIOBNvcMVpUkE5tVgEBtszTJEgAEuw+lPojFPjSFnnekAQQaD7IcOCg4Ly+8tDQFBzZEkkzmOMakmG9e5ms5H0DId/xgfE8cCIpinuZIzz65H+hHB8l6Olzd5DFwzhuL3kjuqGWnKGNm00SsmDoPDVV1IAEogjF9oSCOXTyD9Ye34VT7hbzjO6aqHtdOmocpTeP6RZ/I+nC+qxUfHNqBAxd3wOk/C48/0Z/maIVqudTjWsqc/WL6Vuz6YPXcha4jVtsvdb0yQMgYUbIi0I/MJyDzMThFkoNNQOK19Kp8hSZ8TU0Ny1440UpBT/mOKP57s8XYjvXANIMhubln9tLIgsAollMyGPo3Z1K4JIXI5MtqoKsV214pjGq5mAesmEWg0POONIBAegzjE1E0xaMgL74+JprQEodTgoxzgoR4AXEDxc/kgRZGIkBgb20s3ZFAgrmDZsC6MWDh84yttUGUxLGYBiHp9tCebxWxRALhuPUAalmQWNplasiwohLR0kX4a3rg9Kj9rkOrREmlvMfUlvbyYN/ZVSj1eSn6PxzrSCn6XUgbpQUI2jzOWYp9syjkIgs6JqOjDDQIcTiEOJxCHLIQY1YGtucxXQPtAB0gtPcBp1qBJI1+QV2wepDpmNKenPGl7RRHE4BglOJoBhA0CWxtEaDuUAzC1pevHIAwatQoPN4sYcsz37d6Sy3Xm/WlP8W8R/84b5Ai3ffmRBQPBrpYNoNsIvoTVDl8KMj4hacaHUZ82ZZ7VlzFkQoQ9KvSMiKtu2iqpzox7notyHA4ig4yJCcPhys7LqQMEKzflTJAsD5WxjUvU5CQebFkVRB5ioyOMwuDRP8KPNxeP2NQbOtlWWBDUoyGvJ+6IOVL2wCB0hYz3ibNAhQZoRKlOGa4tekzXRL6SgQIV199NU69/yZCIes0uVYnzS333oc7v/hwXoAwKR7B7/e1Y7RF19lOTsJ/eWvQxhsT/1jtX6H1RjpAsHtddTNdmHyz3+5hlurrjzdz4xkQmllppAwQrIySVqcMEKyP1RUNEDIvnmIYJF5FQqUI6WIH0f7xmSDBFkAwSHHUIsCzxZvsZjAQOEhNfQxcYRaEL3/5y2hvb7d/Qy0cMW3aNCxcuDAnQPCoCh4NdODaRNhySCLNpd+KLvzMUwNrzjULnbVRZTABQqHuIhvdz6paN8OFCasHz4JAFg1mqZP5gkBCGSBYv7tlgGB9rMxrXiFWhFIMVanayBzyVNeeHvBqZkEwzWAwAwgG2WtGHAjM7SBqzHV6udIAwvz58zG50QVR0lLzSlkmz5yPeYuuyQkQppL1INSBJsVkqyf2w4Ym8G63xoLY3cVC8M9yAv7GU4sWYSAyv5R9z9XWYAEERs88DPEV9bPdmLLWvmiVnfGOheMMHIiy/dRSHSC0pmgx2Dl3znuZQ+9+KGMQhuO+l2oMB7sd04yIOWv/bPDCAsogYbDva1r7qcNNa2AmMR5VNrNAmgEESk/MLMyCkLEGaVaF7BRH5nYQ090UFIOw5QqKQaA0xy/evgQHtrxR0HxwuisQCfdCVbLNUtOX3o4FN9ydEyBcF+3DQ+EeVBAXgMvFdBhIsCmyZRNiB/eReAZcf/wXcCxcguDPf4zoC88A0Qi6OR5/76rCIUkjJRrKMlIAQn+AX1L7IW+QlckgDQVAiEeIFwEFA4TW7TG0bSo87TWXgFGpU/LM0o5zgQC7AKGQ9Ee6/bn6ZrcPpX7mcqVrG92j0gcppl5RGSCU+v7mbU8f8kyAQAcy1lyj5z/JdZANBMxEmoi6Nr0hLUDRyB1BAYrpn1+JAOHB25fg47d+kff+pVbwVNRi+a1fwtSF1yMaDePNn/0Tju/fmNbG3BX3Yuna+3MChGXRAB4Jd6OKRdZxcKy4Ae5770PfN/8JscOaLgA3fhLEa1ci9vrLQMtF9pkGEKpxSNIofoey5AMIkuBkAcFEehRPxBjbYWYhNkRBEJFQKAtJRCQeYfX1RdohuCAKMjtMhcKol4lUSeIdUEDtUrqzwGiZWRgyk0sOM+4EkXew8xOxkq7hoJ+fyJhIA4K+IyInKmYAodbdjOvG34Ed597F8a69eYe4yTcBc+qvxs7zH6C177xG7oQwA+dFA4QdMbRtLBwg5NoctfWndO+ihQAOu5tzqQFCIdkaeSeEzQojCyBoT17OUropY3Ok7Fa/RDra300iMsq4xpIBBCHbTGslg0HvThkg5J98giBh/sq7cM0nv4zWM0dw+vB2BHu7sGP901BSXAVWAMK4eAxfD7ZjtBpnmgruWz4Bce4CRN5bj8iGtzUtBYNyBAL+1leH7mEIVMzJpAgKepXYpk9UyAQAMjMKaMMnUSYSXdI26gTb2FNdDJLgYBu5TqkcTYSSf4vss0g8zMCEQ3D2p+gSJXOCtB94GaIgIRTry9r43LKPfU7np3NQW7UzZHzta3+IjuBFdIXbMKZiCtOAeG7ff+PqMbfhXO9xBKJdmNd4HcZXzcRTO/8Z10+4Exd6T6En0oE5jVejK9SGt479GhOrZ2FBw/UYXTEZdK6fbfsGTvftLwOEAiWVzZ7GMkAABteCoI98js31Etl38wKd/Ev+0NVgY2oAEOhjw/cDk1RGIkgyQt28CUDQUxlTrzQ1xbEMEKxbEBwuL66+9UuYv+JTeOfp/8C+TesYMEhkbOZWAIIEFfcHOrE2HoTVnISoCjwl+/CCe3D95mZPRT4LgvamL2tiSmoiSTc8AIkJENAGTUCC3vDph0SX0gACL7MNnB5uomKOxkOMipnRMUNllgmeF9h56DkgawBpNZCGA1keePCaRSGFtZHquSQvQtE+dixRQBOgmHrVOPzJ1/8Uxzv2IkGyUoqCybVz8ePt/4DlYz6BtuA5JkDlEr24euwt+PnOf8OC5hV4/+QLmFIzH+MrZzCQ88y+/8YY/xSM9k1GOBZEOB7C3raNzJ1YtiDkzjAoWxDM3R9mFp5hBwgWMMTQ7az5znTJoBkNIBh6E1L44/XLJaU7o7gtM4AgGOwydLwRQKAARY2JcaCULQh5JhrHoaZxPBav/hwmzl6OzpbTOH98L9rOH8fej15JM2lbAQh0toZEDJ8PdWNJIgzNqG5egirwjuTGL90V6CtQSyHfo5Tv+3wAgY6njZwKE19KmvJT2+U4Co6ljKJ4/8epAIGsB6TDQI81qSEkyKXAC6DjmMVBUZgbgee08zBNBnJRJF0S9DlZKgi4pdI6k8VBV4Jk+hBqAk1zfbjjgTVoD15Ak388/I4aXOg9gf1tWzChciaTno4rUdS6R8HnqMSOC+9hSvU8tAXOMVBS7apHX6wH3ZE2TKtdhK5QC4517GbgSC9lgFAGCPmeq5HnYrCIAC6ZvfcS6Wh/imPKjOkHARnXYBSgSIcx9sPMwmINsj821GCgNqT0DAY6sgwQcj/GFTVNWHXv11BR24SulrPgRRF93e0MHJw9ujPNpG0VINAZ65Q4lkcDWBwNM8DARDdTkGFcBU4LEjZKLmyS3ei5LIiS0hFxKkBgAYhpCtfag0FvmrqPW6szoO2QqdGgNZD+QDHZJ06Lj9CBA8UgTF2rSXr7nTXsX3IdZAObgfb0/rE+g6TkVDhFF7xyFXoi7cx6kVpiYY02WXQUlsXQWo5BSBvPsothqFwMDH7nwzaWquRvZLBrWLiOwe5CvvbZmm9gPkizEqRcByktGhUjgEBcD3yGnDMdawoQ9BTHlP6UAYL5HfRV1uOOR/8eNc0T0NNxEe//9ns4c2Q7EvE4YpFglr/bDkCgs0okTUyyxxRop22H7L80HehdNMJxCCX1FPLNs8H83ooFoZDzj4w0RwMzXiEXk3KMqqiIRUg9koMg2acuZmJNRQKEXFkMbI6VSFwoV7CjXTdCrmEvNUAotL0ip0ba4SPXglAGCaW8zznbMrIesK0gFTQUCBB4PjuDgdrOzFTQtx5RzH6bCfVeeWmOVrIYKqqbsPYLf47G8TMQ6OnABy89if2bXzc0n+sTwC5AoClARnVBU0VOKwwkcAQUihdbKnayDxZA0DYqi4tRsReRcnzNVBcmrPKUsMWBprTLUSG5JGaxK6QMJ1GS3f4Wmg1gd3M061cpQYiVay9l9oeV86XWGZoYhNQzXg5ZDSPcimAJIKSskUYWBMZpYBCYYAYQJIOFiZk7DfwR4UArPn7xytFiIB4EKwDhujsegyA5MGHmUnz8xlPYs/FVTR0oR7EDEMhyMDUexcJ4CJNjUbhT2qYpTS6Fw6KELZIbxwWZKTMOVzECCJIQhihouf6XWiGq5UmDRLVc7FgwKeuIipYtMXTsKrY1e8cXstmWAYK9MS6m9ogDCEOP7QscvhEMEiwDBGZgNuZv1+Vq9dEh1wJFPoomYfBGAIEe5MwARWovHGjD5hf+q8CBv7QO09UcrQCEKfNXYtz0xThzZAcObH07LzigkbAKEDyKgtsivbg52oeqHP4+giPnOQEvyR687fANG0jIBgjEPUAAIZYECBpKMMMww2ElyDUza6e7MOEm74icvMS/1XcqgZb3VSTCQ4u+ygAh/5S4siwIFhDACN570+/mCO2oHYBAUd5Gb2SZAEG/cGMgoMUgZBZiYTRqJxpsw8bflgGCtrtRAJxmJaBsEofTi3CwJ/+qkaxhBSCQ0fnWUDfui/bBaSUYiEiSwOE7rkpslAfHLJ7vAq24GPrpwzOmntnn+c45mN/XzSSq5WyxJlpCNN/0YJ49f9ttByI49/rQL2hlgJD/3lx5AKEMEvLPikJrZFAsD1gAjBs0M9cZbewcrxq6DLQAxez2Ke0xVYterxELtuGjKxQgcLyA8TMWo/XsUcxbcSeLDqRYg0xXQkVNM2qaxuP4vk1QlQQqa5vh8lTC5avEqMnzcGjb2+zvmjEzsPCGT+dkUmxMxPD1QAcmqcaESGZTbTsn45+8tQgb3dxC56fF46wABL2pzNg3ttcO84bLljiFUTOxblZOkjH6GnfW1WsZCkRdzsPhFuHwSAWJLVkcVtNq7YcjOPtqGSBYGcdCQI2Vds3qXJkA4XIBCUP/TOWca5YyGFJasAMQKJzAqL4ZQJAMAhTJYBHpu3ItCA1jp2H5bQ+DiJB4QcSO9c9i3+ZX0+4pgYiZS26G0+PH9nd+w/LsJ825Dv7qetSOmgSvvwbrn/lPrLz7d9Fy/hRmLVubEyBcFQ3hK+Eu1BB5kCxDaGiCEg6Dk0QkLl7U+PvX3AqhvgGx3Tug7NoBxGLo4nj8rasGRwdBZCrfgmkHIORra6i/J8CSqZtRMcmB5qvzi3UJHAdfvbvgYMNCr7UMEKwv5GWAUOgss3vc5RCwaAHo2B2WYurbcS/QeYw2fE3HwcBlYAIQJMn4dc0YIHAI9bRg84vfKuYyL5ljU2MQtm14mhEf0RvBtIU3YuNrP0Gwuw2LV38e3qo6dk1dLWew5a1fYOVdXwUvCAj2dmLLm79EqK8bvso6XHXjvbh45hD2b34Ndz/xL7h4/hRmLF6dEyCsjAbwYLibiTXxXh/cd94Dcco0RDd9iNAb69hm5njkq3CtuRV93/1PxN94BYjHmRbDP7iqcPAyEmsa7IljBA7onDWTPGhe7kVcJe6CPAufoqKiwQOpAD6DQq/PDkCgNcPuJpkrg8BunwtJFxyqFEy712Klvl0LQiEKmWbjM/RBipkjcjmABOvg08p8KKqOHYBg9qCZxR+YWRCMAAKTfjZSghQ4hLqvTIBAYk2i7MTkudehbvQUfPDC9xhtb2ZpGj8LS9bch5Yzh0GkSVvf+hUCvR2YuWQt81Xv+uAFREJ9uOX+/w1B9qJ58pycAGFOLIzfDXWijlj3OA7y0mvg+fyD6PvvbyK2b7d2eq8XXOMoKKdOgItG2EctnID/667BGTEf92JRU9bw4EvSgkDZABmKm0RwRBahiXOnYeoNk9DRdxR94RYkVBpj84WDnp/KBjdzPQxFMQIIhup+pM5qxJSWp5P5NuhSXqPdDTXXue0CIfa+WEJRqlx9MzsP3Z9C+m0E4oYfILARzT09RtD+a97REdJJOwDBjnuBLlzjOqDfBiwGGsWy9QBFInIJdF05AOHmm29GU1NTf5ojuRaIRrmr7RyCvR2G84niD2SXB6HeLjjcXibSJEoysyAQaIjHtA28Yex0TF64BjOXrskJEKqUOP4g0I45SgycwwHn8uvAef0Ib3gLSk+36Zx+l3fiW96aYclkuBQBAou7JmnDAAAgAElEQVQ56N8c6FnRtBgo+HTa4llY+dnV6O3txIXzR3Ch4yBiXFfOxc/lleGpzO+WKMXmWgYIxqNYyEZbBgilmJE2LAkjZO+9JFBMTorljCsoBCBkDgKlMerMiqnYQRCyKZbp2CsJIBCSJxdDQ0ODJR6EQh4rK1kMdF+WRAP4arALPkmA0NgEpa8PSpf5BnUBHP7VU4PD4tBLPbN3Bo5DQvBATWqSclAgi2EIxIOQUnheZHCVFB11mJqqi5A5pjoNcqo8NGXy6EqPGvwlEzq9uWtUyakLvh50S2uSwDKAOE2LgXQa0qwHNP9lCKL2Njd18Uzc8Lk1CIUiOHn8DE6d2wXOdRYcb85zQRlD/jr3kAQtlgFCGSAYWhDmrv2zITKI5LNBXRL774ju5GAGKGpyzkaWAspgMPicZTAk89QpjSv5O4GJK8GCQOBLFEXcdNNNqK+vH1aAwKw/qoqFsRC+FOpCA6kJmhSSIjrKCfihuwIHRVeOmoXAGevH5AMIpMLI5hQvMpElmmEknqQwmWcw4SPG3ME2cEXLJiW2QYGUGQW2uUfiIXYctdWv1KgmIAlOiLwm4kRKjCTxTJYAgcSZVAWKGmciSSQWRbLPJCfNlCKV1FcZATxZD5KxPFMXz8Lc1Utx7ORJdAZ6EAu1wFlxAbygwO+sxKJx10OWnNh64j209p1jlgXKAvJWOyHK9rUVrI+0VrMMEMoAYWQDBPbaYD6tLwkrQp5rsPvQ2q1fCoBgFqBI4QRGQID0GgyVIMVs3ymLSxA4BC/zGATaFAgcEEhYtWrViAAI+lyqUhK4OtqHOdEIvPRqkMR29Hx18QJ2iA5skj0IDENqY+p8zwcQ2Js+x4MUGWlz1hQXFSTU+MBnJN2ctAYQYFCSoke00EiiA+FYgNXVwUZciTMBJPpbgMDGhpQUdWBBv9O9JRloOrdTdGuqjUqcgQiyJPQXTgDPDQAE/6gGVC8cg4SQAKdygNIBh/sCOD4Bv7MKd131MOp8jfjpB9/Ehd7TrBlSQiUXg+y0KtJtd8UYqF8GCGWAYAoQhnlfS78zlzpIGEYkYxcgGPnXaBM3/tw6QKB+GAVX6YJOge4WfHyZZjGkggOa2DfeeCNzMdy5Yho+fue5wldwkyOXrP4cVt7xYM4YhJKfdAgazAcQ2DjzEtu8aeOWeJlJNZPrgFwEGiBQwHMCq0dv+eQuoI2drAi0ybO6HAeJd2hggDZ5VYEokLVAYtaFKLWTEkgq8iTxrLkdqB3SQCCx50QihkRiIOCUrBRcEiDQklAxvgH+2c2au4CCGWPtcPk1CwIVr1zB+tYb6ewfXQII/hpXQeJLdm9RGSBcegCB7dsG9v+SBimSi0EfmmHc2wbuTjlg0e6zPfDSkiTmy2zAjKXNDkCgWINMAKK5HTRXQmphIMPA7aALOl3OAIEsB3qUNz28ZEGYO3cuop2ncPz4iYLvrdmBt911L+75nHWAUKEkMCYRQ4USp3fktIBTev/t4AWcEmUEzKJdS34Fxg3mAwi08dP8pbd3dhXMjaWJTNF8ZFHzZKYnC4Ma719I6Thtgx9ws2htaTEH9BZFroMBlUuVuRmMCtUjMEJAg6wHBC4GrKDEIkoWBM2S5htbj4p5o0B/KtE4OLTC5e/MGYMgywJ8FIMwBKRPVtMccwXtFZp+mEikx5Xo9zNXtkSphJcKmc6FBC7277FD4NDP1T+7OhbciAMIDBblvm0jAsjk6uIwddCOBUHXVsi8DHrz759gKZOZ5T6n7ycgDMAynpJf6OuYOUDQ3BGXK0CgBY0Ago7saZOiGISHHnoIHR3GGQuFLFCpx0ydOhULFiywZEGYGo9gbaQXk5UYKhIJLfwvZfNJqBw6eQF7BRkvO304J0jFdq/g4/MBhIIbHsQD07MY6EQ03wl8CPAzC0ITeITA850QHQEIUg5mSw7w+h1w+oYmxbQMEKxPjCsWIFjYm62PYjE1LWywFqoU04Pijx2GDtpJcbQDEJjLwKBxakPPYEjda0iPXn/r0aO++60NlylAYMJUAgWm8WnR7AQQFi9ejE4lxALfSl2WL1qGNStvyAsQJsUjeDzUiXH9lgPzntC2dYAT8U1vHbMoDEe5FAECjZOSyAwA1cx6nqZq1Mz3wunrAy/GQLTluYokCfDXuYYkg4H6UQYI1mf5FQ0QLhWQMAz7r/UZpNccwk6aWQ8yO92/cZvYLdMsCNqrMNvsjQAC7R2GAYpChvgMWRpYgCK9TV1+FgRaMHS/H/2e6hckgNDY2Iibn/gcTne32Z9DeY6YWzsOy8bPygkQHKqK3+9rxVKFov2tFZq6LwsufN9bY+2AEte6VAECiy/IIEuioamY6EDT1U5owNy86F9Xj/Ixd8RQlTJAsD7SZYBgfawGt2bZ1WB5fK0CBL3BbH8hAYFkymLqrm8TIDAwoccrpPSe0s0oXoEKuRi2vDz0VMvFPNhmNyIVHBjVIYBAQYq3f+1BvH54i6X7SW1Wu7xYNGoqWgLd2HvxJKIJY3P0DWPmYO20pTkBwpR4BH8Y6kADRdmTr16Sid0KiEahxkk+mQPnr2CfqaEQEAoyYHgGAv7aV4s2fuhdDZcsQEje4UxLgqkWgx40QfTmKiA5JfhqCEhYmiolq1QGCNaHsph1ZChIlAYtBiF1iIbw5df8zljohIUq1u/8YNQcog7aAQhmwUQsxZE29/4gEG2Vos19YMEaWLmMLAjahpk9kCyDIflKdLkABA1QUTCa+aueXYBAYzSjfiyWjZmBCdXN6I0EsbflODafOoCWABEbpRcrAGF5NIAvh7tRSUF0ogh59lzICxYhuvEjRA/uZYEk8iNfhWP+QgSf/TUSb73GwENZi6HIBYFEm5JxPFWTZYxZYaDmSBQNPCDIAktnlIjzYIjBAV1l+5EIzqVrhtm++EKDFMnikrlx6sDbrBOFaDuUanMeDIBQTJt2blRRQYqZJxqivS339V3qVgS6uiEYyJIBBIPFiSwCBBK0kvyX4g8MLAXmAGGAWfFyAQh6zAG7xczSkj14dgHC7IYJ+NTMa7DzwlH4HG4Eo2FUuXyQeBE/2/EGgkmaZf2hsQIQlkUDeCTcjSoGECQ4ll8Hx9LlCD7/NOJHDjILgrBgMaRFSxB94xUox48xCwKpOf6dqxpHpKFnU7zULQiZi1r9bDemrK2ws5YPad32I1FceK04ZFLIBmwqEpQE36UahGymy4GWh2pzznUtdjfuQsfF7j1Ky2IYkQDBwgY7BPtvofdDO26oOshUGPN3NacFIeN4nThJDzbUW9e4DtIr6+6FrBdqFoNweQEEPShRBwcMOhUJEJyijMeW3o5TXRfx8sFN8MhORONx9u8Ty+7AKwc3YfOZg1o6XbJYAQjjky6G0URH7HLBtXothOZRCL/zJmJHDgGUZkZmH0kCIhEGDqgcg4C/8dWjexgCFUcsQGBWAfqx8KClPIoVk3xourYh/8M5WDWSpFgCl4DLF4LTnR4n1HEkivNFAgTqulHKYiGXpFvnCjnW6BjaGM36VujmbCZmVUifC+2D3XPZvT85AcJQ7m15L/QSIFCijbHWq8AhqgjHgHCMRyhGzGtDCBJSB9IEMNgFCIxBMWNBNAIIdGrN2pDsRPL8zKrAJGK1zy91C4IROCgFQPjsvBtx9dhZ6IkE8OMtr6G5og6tgS5MqmnCqkkLmbvh17vXY/eF47YAAlH7fKmvA7ckQkw4iHe7tXiDcBhqCiDIfAZ/KHnxortyyPBt6vlHJEBgAYgUhEouJXOAQHNd6AdV2sbkGluDysWT8i5zrIIK1Dh9mN40Dg5JZuPfEejB/nPHEUU2Z4BZoy5OxOT6MajxVULgOEQTCRw4fxxd0VZ4vG2oqA4zbRQqZYBg7dakzVEDToNCrRGXLEAYMSBhhLsaJD6BMZUBOCUt3S2V5CMU5RGJAcEYxwAD/U2BzuyS6G3E/ty0doQNgKBlKmT3RbcKaAvXwKJIsQpGrvd+QqWUHmptkLCNBiCIavlSDVLMDEpME/Ip0oLQ6K3E41ffiY9O7MFbx7YzvQCSC/LKLmZB2H3xONYd+hihFDeDFQsC3QpSdPyTnhZM4ZSk/JH5FKIt6H3egW95axGzYpKyNhtt1RqJAEFJEDgwT/skUOBxOA1jUqbMnYnQBB+6osGc4yBxAj5/9a1YPW9ZVr1gJITvvfE0Pj5zMKekMFn7ZtWPw1duvhdVXn9aO+S7X79nC369+UWI3hOoqI6wGIgyQLA1PbXlsAwQtEEbtA3M7j0ZwSDBIcTR6O4Cn8xTSg1gY7z8nGZip88VldA8j3Cc/uUQjnGIxjgkVOJ+T1oc7I6NUX07AKFfWCm9ITOAwPb7DLbE/gyGjL5oYGIAXAS7W7Ht1UsviyEXOKBLLtbFQG2snbYE8xon4+k961HvqUJvNIhqpw83TFqAb218Hq2BdHlmqwCB2ib2xLtDPZijROGGCiHjeYpzQDc4fCy68KrTj8AwgQMNi+ZWc9QUGJNFX6hT+qst3tkLRqqrLFX1UQvNHaifma5KzSmJflawrKeNrAZuh4tZyrTNg86u9sfuEOX2mrtvxzfX/Rx98bDh0y0LIj637Basmr2UtUObOak/kiKkQ9Z0HboCPXjy7eew7cwh0xViZv14/PEnvwhZ0qioqY14IgGvx82ew1gijrd2b8RzW5+Bv/48HC6lDBAKWG/LACFj0EYEUBihrganGEejqytnnnMqaNDM7iTootESK6oABQJ6wgLOdtrzb5rObQOAYOpe0AGCvuYm/9YyG9j2pxlVk+NP8QeZG+LlDhDMXAv6+GePB9ev5mg1zZHiED45czlG++rgd3mYtaAvGsSHJ/Zg+/mjWbfaDkCgg4louCkRZxYFR+oGqnIIcRzaeAFtgogB8eQCVs4SHJILIBA4cAikNKnFYpAWA8/ElTQQzvzNJLLENmhiACWxaIqUT9IoM0uYirgaZzs5SUZTLVJoJNpkOkYUZEafrNM057MeOCUZTtnRf+W0ucdicWZJFEWBaXI8/Ngj+PGGF/HBsV2GIzS5dhS+ctM9aKqqY9+3tHZg48e7UOH3Ycmi2XA5SXVSxYcHt+P7G15AxIACmlc5/O7qe7Fkymx23dSHM2cvYu++I1i2dC5qa6pY26fbLuAHG55Bu/IB/JVxdBwtxyDYnbZlgHCJAYSU/cvuvS66vluKod5F71/2YBTLDiDBGEmC1+NBd1DA4YtFd4c1YES0Ygcg6G3oL2basqpBBXIlEGJITX+k39nnGSWTevlStCDkAwdsrFLeYPXfdblnqwCB2pFFETPrxmHJ6OloCXbj49MHcK633dCkaRcgMJCgqvCpCiSbc9XqrKRngNQGejgB8QKtELkAgsAJkCWXJnqkKkyYicSaCASQPgJtzqTRwAA5aS9QUCdH0s1xVo/dG7LWqYn+Y6leQkkgpoRZG1SPjiMQQccl4oSSNeuA/gyxDYJpPgAu2cHiBfRC30WjMeZukCSRAYTHn3gCL2zdgGe2vQ1RENBcWYe2XrIIqQwILhk3Aw9cdzuqfRVQFBW79hzEujc+YHoOX3rgU6ir1Tb33acO43/eeQ5twW7UeCogCQK6gn3MMkAGzL/59Fcwvq6Z1aV2LlxsxYb3tuLG65egoV4jvuoJ9uEHG36Lg+0vo7ohCRDWWb3D5vXsph8WkhqZ+axZ7bVZgF6uPtiN+rfal8x6hcYu2D2f7fuTqsVg5WT2tj8rLRZQZwS6GrxyBLXOXtsAQb96Agg+nw+tvSJOtZVmlIsBCNQv6gWzmGZmNpBEjVmKY0p9Jp+jcyukbBSXGkBIdS3kWjD0hzz1YS8EILBNnOPhd3oYQVIgamySpnp2AcKCaAjXRAJoUBNwZIprFPAoGh7CFA6BDo7DHsmFDx1udHP2KJtzWxAEOCUXaTNCVbRNnkSZ9DlL85be/mnTJ2tAVImAVBjJ0iALDvBJtUfa8JkSJH3G8UyymdrSgQUBEQYO1EQaQNCCELWJHiWiKQOAQG/uTPFREll7BBAeffwreHrTG3h1z0eocHkxtXEcvA4XDl08hbOdLVgwZiq+tPIOFlRIx+7cdRDr3vwQFRU+fOauNaip1tIktx7bj++98wx6oyHMGzOFtdUTDmD3maMgP+Vf3fUIJjWOYXX7AkFs+ng36mqrMWvGpH6ysraeTgYQTvW9gYraGDqOpvMgWJnnmfe+kM00V7aCWQpkIQAhV99yBQjm6kMhj4tZP+wChHxjbdZevuOygItdgKA/hIUMTkmPGWGuBq8cRq2zr2CA4JBleH0+XOgWcKZ9ZAAEzUKQpHhLuXmaeyTbUqCnRKbeZ2ZVIHcEI2BijzYuNYCgCzDlm79GbyJGAIE2F4cgYXbDeASjUexp0bISyL0wq34sDrWfYxkLVopVgEDb2e8EOnBrPARtax18Ph6axUTuvEWQ8TNXFS4ImpCVlZILIGiSzQ5myaLrSKgxJs9MhYI66VNyMcSTVgQCD2zjJ2hA7oMkmEj0Wx80Xz39jwADjQy94ZOBQFeLJCOEopj3XxYlZkXQF+ZYjOSfCSBoAcsEEL7w8JfwjZd/guMd55MgRHOJkOWCXAc+yY0/vu2B/s29o7MbH23ahaoqP65aMJPFIRAgeXnbe3h6y9tQOVXLDkquOtQOofq7Fq7EXUtXs7Z7evqwbecB9PQGsGjBTDQ3ae6L3ScP40cbfgH4D8DljRtqMZRqM8t1v/MBBKM3Xrubab75NpQAwewNvpBrGpL7czkChOEAMZXOICrlYMEAwSnL8Ph8ONnGo7Un35S29n0+8SZtUupsiQZt9scfpH9nBhC0+KxsbgQCCKkl2NOKHeu+be0iSlirkIfQKjigbhotNKkA4Y0jWzHKX8MolMdXNsHn9GDX+cPYc/EkVk6Yix3nj+DacXPx6sFNqPdVsjobTuxEd7gPfZEwXJLMNjgyq4fjUSxsmoxlzTMwtrI+J9Uy3Zabwz14KNKTlHguYlB1S5AN2doYOLwuuvErlx+9FjkV8gUpFnEFBR+a6mbIbIRmOMUgEFAwmmfXrrgOjUum4bW9m8wdOyowp3kivrzqblS6fQykpJZILIp9Z47iyfXPozPcZ3odMifia7fch2mjxrNAxdTAzISi4EJXG3696TXsu7gBNQ09xJ1VBggmo1lqC8IVARCGYwM2vH8jyNVQ5QyiogiA4HI64fF4cOgij+5AwWtY2oHGLgbjtrV1Pz3wkMEHA8twOrPiQHuXG0DIR6OcOpJmfsxMC8Kk6iasnDgPHskFhVPxi+1vocFbiWZ/LSLxGOY0TsSTW17B8rEzWeR5pcvDXAzvndyD26YtQ5O/Gh2BXrx+ZCvC8QjumbECcxom5AQIdYkY/jDQgWlqUs+BTOS19CbJQeloh5qIg/f5wNc3MtKkxMXzTJNBaGxCouWiRqSULNL02eBkkdVROjqgxnJIFqcMUAt4/Ke7Gnslp6XIh5EIEJgVgdIcTUiS6HmRRBES7bhJqMxyKVQVFeMbIc5pzn/tKjC+uhErZ1yFen+1FnRJVhIlgQPnjuO9gzvQkydVks5N6ZKrZy3B1ObxkAUCLdR3FR293XjvwEac7t2HqppuOD1aoKeRFsOQvKHmYEw0Yz8sBOjnWlHLFgTz0clLlJRrYEtjCC9yMxwhIKHWGYBPtmYWNrpit8sFt8eD/Wc59Jm7nC0PVopxIB00mCRI6AAhfdPTdBgyYxBI8THLw8B4FIzdDpeiBcEOOKAxM1tkUgHCm0e2YX7zJEytGc3GihbuzWcOMAvB3MZJ8Dvc2HbuMI52nGNBihTVHknEsPn0frQHe3HrtCVo8tWgLxrGG4e3oMrlxXWjZmFmw/icAIHiDp4Id6FGTbCgEqGuHq5P3AHE41C6uxF8+Xm4Vq2BMHosY1SM7d2NyMYP4V59C2LHjrDPlJ5u8E4nvI//AeKHD0LpbEdo3cuMPINLug7UWBRKby+EmbMhzZrLtsjQi8+CCwYQB/BDhx+vO3yWAhdHIkBgL0YqxT2kMIHleCL1oF6q4htfidplWlyAlUJq0FowMM8ABm3uCcrasBH0SQGL1AeKZ6FNlTFw8lHIzjA8viAcxKCdvJQyQDC+K2ULwto/K3ifL/hAK0+I1TqXCUDwuN1wud3YeYo4EaxefA7kZ6IfZLa+GKFyFohokE3OYgoyAxdTuQ5S7gmzNmT0ZbhcDFZHNTVjwcox+cSa6uvrmZrjm0e2Ml0Fl+RgYIBYEmmE40oCtZ4KdIcD7DMavtH+WlDq3MXeThaPoH9Gfm7SZTjeeQEVTg9WjJqFRaOn5QQI10UDeCjcjQoWzc9BqK2H6857kDh/DvKCq9D9d38Jef5CqIEAHMuuQfzIIYQ/fI8BCWnqdIhTpyP89uvgRAnC+InsmNjunYh89D7kWXPB+4mMR0WitRXRXTvAzZwN/5/+FSK7dyD4jb8FR2yNAH4pe/GcswJRC5vcSAUI/fOBzXHr6cg1M1yYcFO1lek0SHW0h5LnExCk7GcyU6yp0ABBu2/3+TII7AbVFTJ4Q2lBKCT40+iahuz+FBKDkNrhMkjQRqPe1QuPVPirv9frgcvlwpajhPQLmebpx+SLP8g8Qy6AQHVTu5RpEdAWHtp70pGAlvaYTag0kgECjUOxcQepY2sUpEiggIAT+YPtFOby0cm2FC2ozkqQ4pxYGL8b7kQdBbGJIhyLlrKNH+Qe8HjQ9+S3wVdUwnntSnAeD0JvrgPCUbh/5z5wgoDwu+uZZgPvccP96c+SvRuB3/wcaiQMzukCRzeZMv4ScU0umgL8mkeB6+oCejRiJ7IgfN9ZgTcdXpYCma9QqGFC8EBNziliMpDFMATBOtVwvnMU/b2N57R2ugsT1viKPmUxDdDzKMqaNSGz2FFzNNuccm32Zt/l2jCHAhwUM552j801BqW81lzgwQwMmfWtKBeDPkA2nhO7Y2qtvoUO5KtCj4xLVlHjIXIUDsEYj2CEWMeSXchDiVzv6oFH0t6UCimU4ijLLmw9rupaOYU003+MHYDAMfbHbJODbkFI7QjVNAYI2cRJ/cBBbyCZFUEAYedrQx+kaGVACRxYfQsyetjo4Uw9ftWqVWhoaGAWhNcPb7HSBVt1rACEGiWOrwfaMV0n1qHgNx2c6MGGFA1PzHsEGkyAC+/1gff7ED93zlYfqfIF8PimuwYHpQEyoVyNjFSAwKgPLOgxZF6bd1w1KhdPsDxujECNpREN0LHrmRZWG9HSjAeyhyjHg0cAbk8Po1gWtTxXVgYTIOQCDnRuu7n5dEwpN1Sr49m/jFmwgBm1OVSWijJAMBr9Il0Nte4wGvwJ5kvWF3j6NxrnNTrkuEaJHIlrVMhaCpT2tk8/TZ4uOIXCfAN0Hp/PC453YuepfjE9u/M2rb49gJCa9DYwkEapjGSiNtJg0HgRst9M0gKxk02H+tpGJEBIlW/ON/hm4ICO08eBHlQCCI2NjcMKEKhP10f68GCkG34b2Qf5xsDq9wFweEX24LeMvtnE95XR2EgECFqqozndspbdw7MgRYohoGeF2XlUFf7xDfAsmMB4LXIVihdo8tdg6YRZaKysSYo+qYwEaeepI9h/8QQ6g715h55cWLOaJmHOmIlwiDKzWFHQa0dfDz44sh0dkaPwV7fC6dICFcoAIe+Q9lew+gKR2eIVCxAYorM+voNXswiQMNrbARJc0vNy9X9p09ARsP5ZLMGTlRUhAg9xMCtDpdRHtCuI0xc2Cz28Xq8PCTiw98zgAQTz+IPsRZu2eiMgQOu7MRAwaIOJM2Wt/BiJAMFO3IHRG1HqGw19r6N4cjEQQFjz+Gfx6q4Pbc6M/NXXTF2ET85bkTMGgVoh1sRV4V7cHAuiidEsD34h41s7x+MjyYVXZR8u2uFByONiyNROGOyr0bQYBtgUM89H99whSXBIxM+QXZZdsxyNS6bjnYNbQfwLZmXBqKm4/7pPoLGqNqsKLW8fHdyOX29+Ey19XaZtVDq9+J2la3DdjIVZzyq1ca79In710as41P4hKuu7tDTHI+lESbnG066LoWxB0EbzigYIIwIkFAEQxvraIXDGD24mQMgEESziXY0iFIkhGisEIPCMRTGSkHHgXPEAwY71gO5bZuwAm8wmbmLSYEgNztLcE+R2MHJRGAddh3vbsGMEuRiKBQds7iffzHXwpJtNCSCMGzcO3W4F+ykjoMTl87fdjUc+c39egMDuEYApsTCmx6NoVGIaJ0KB5tKcl5Eciy5ewCFBxkHRgR6L/Ad6u7ksCMQFIQlEhazNPSJEItZEPUaDPif2Q6JKJp0FRpykapEPVI/mL5nwiUaZ1eEEpsEwcA95SLzEov6JKImsAPm0GCi90SU7+zN5WB8SdH6yuPGMKOmzD96Pb73+KxxpO2s4fLVuPx5bdQ9mjJrANvbevgAOHDzOiJaIBdHhkEFcCC9texfPbVvPSKGygIoKfGrBSty9TCNKiscTOHb8NLq6+zBz+kR4vW52nbtOHsJPP/gNFPc+uH3xMkCw8VyWLQg2Biu16qVsRcgFEIyGI9UNof2uLQiFFFoACCD0RWQcuVh8DII9gGASO2AKEAxMxIzRbeAAfc8xomOm8Qn3tQ0LUZLZfdStRPnundVAq1RrAgGEBx54gHEZJMg3VeIybcpULJw/3xJA0E8tqSqcqmIhVLC4zlK2QtiiSyHzTLkBAlEtu9khtMHHiGqZ05QldBVEnUWR2BN1nUYCBKSxQEXkBYRiRGzGQRJJBImeXRWxeAQ8L2jaDkSxTD8ZWgxGo0IkSZR1ohfi/Q9HopBliXEjEEB47PGv4JnNb+HlXe8bArP5o6cwquVav6a5EI3FsGv3IZy70IYbVy5maoxUth/fj++tf45lvWQWUeXx53c+jKlN49hXF1va8eY7G9mxq25Y2t9Ge28XfrDheZzoeR2VdaTFULYgWJ3tZYBgdaQM6l2KIIEsB0KZ7nwAACAASURBVKO8naYWhCKGw9KhFBjn9XrRHZZxvGVoAYKR9YA6bW5BMLIUMIdr1rXqEs/9boZkzNVIAQjMZ5x0IVm5UbniDlKPzwQId911F7Zu3WrlFLbrrFy5Ep/4xCcsAwS6e7WJOEbFwyANw7wWBJWEl1ScER1oF8SkfqLtbto+IBdAIDElh+hibepiTQQQdACnKiSylGBv/lQ3FotApL6rCtNiYLwCRBykkNUgwaiXo4kIBEGCQhYDpvAoaAqPBloMtOGTtgO1HyXuB1VNE2ui40limUACAQT6oViUx7/6BHv7/82Wt9Dgr8HaecsRjISx9+xR7Dt3HEvGJ8WavJrmQldXLz7ctANTJo/D5Ilj+t0Fe04fwZPvPIeWQBdun38d6vxVOHbxDDYe3YNEPI6/ThFrOn3mAl55/X32dM6YNhHXXbOQtd0bCjAthgNtLyXFmuwBBLMbarZ55gLXwxlwaHtiFnFAPheDWdN2x6eQVEqz+1OSLIbMCxvpICGzfyKnoHkYAQITavJ6caFXxLmOwXMxZN4nI/ZEvY4hQGABikZAwBggkFUhc6wJLIR7W7Hz9e8U8aiV5tBSZCwY9SQTIFAMwu9Pf0CLZi1x8SysRf3VuYmS6JR01yjN8e5gJ5bFw/DnzzRM62mPCnwouvCsu5JJQpf+StIHJq/cs6i9TZPrgHQXRJ4El5Kpo0QKxOSeNb4OEl0iiwIV3XVAX8SVCAs2ZtoMNLfBIxLXyM4EXmIEQ2SdYO6CFDXH/p6mkISQ9cBBWgwpl0GCTbTwpsk9v/siPjg6IPdMSoxxhaSoVUxrGItHbrirX+55/4FjePOdTVgwbzquWjiTyT1TvQ8O7sCTG55HlK6JgqoZoOEZIBFUDn+w9j4smDCD9aW3L4gN721hloTrVyzGpAmjWQ9Ptp7HD999Fh2JD+GvijEXw9lXB/uulmbypwaSl6ZF+62QC9FMJ8IMJOUCCLnAQSFZHvavyPiIKxIg0FCkPgoin0Czp2vYLAi6kuPZLgEX9NijIp5VO1bdLMKj5Af9LpSUecMElwx81rwWsp02w6haKrOifjkjBSBYjTuw6lZIvXgjgPAHM7+Afd/7OO9zywkcvGMrEWoJwFnjQqw3Cl4WoETjiHRm82xM/PJ8TH9saV4Lwvh4FI+EOjFDT3XM2xPjCnt4Cd91V+OMoNEJD1bJR5SkzUOaj8TBoLn29Dmm7dta9kBmofrkltAtZ+z3fifEQO3Mz/KJNZFrg2IQMvUT9BbJxXD9p9bi22/+Br2xkOGwiRyPzy69GTfNXQbJJKDzYlc7nvrwVWw5ud906Gc3TWCxDCQbTYVcnzQWBFSoUBzDm7s34qWdz8NXdw6yUzGkWh6se1tsu2WAUOwIWj9+UABC5gZsvTslrpljk039ShbiaHJ3gzcJUixxr7Kak2WZxSCcbE8RaioUIDCuAes9tsKsmBpvwQwIae2bpT1qVLFZC/QIsCBYBQfUd6tuhdTrLAYgSH4Z1/z7J3Hypf1ovnESOndfgLPWg659F3Hs2X1Z42kFILhVBQ8FO3FDPJQ37oDYEvmqKiTaWg1NWTQtXxdd+JG7quD4AiuzMx9AsNJGqetQFoOqmqdpEjiglEIK2NUBDJkoaD5MnjcT8qxmnOluzdmtKqcXN89djvljp6LGV8HSHGnMI9EIznS04N0D27Dx2B7mQslVrpk4BytmXIXmqnq4HZryJblCWrs7sPPUIaw/8C6i0mH4qyjmwliLodTjV6r2ygChVCOZv51BAwiXEkgYboDgcDhYDMKxVh4dqSJtBYAEO9YDukdGAMGMOCmNF6F/79cAwkA72hfsM6O4BAEIEVHSMLkY7MQd5EtnNHu8igEIzjo3btvwKIJne+Bq9CLaGYLglHD0qe3Y/e/ZaZJWAMKkeBR/EOzAKDXObpQ4bgJjTEQ0SjSXiB09DMfceVC6u8A3j4FQU810FtRIBIrsAJxOIBQCH4uySz7Ni/gXdxVOCoOXLDkSAYIVkiTKsEjjBGEEaypcY2pQsWhy/hUZYFLgo6sb4He6ITGAQDwsEbT1dTMlRhOtqLS26SmkOIdabwWj9qa5TMydXcFutPYeg+RpgbciCt1QYaTFYKmzw1CpDBCGbtAHFSCMCJBgIfXRIcTROIwWBCeJ4Hi92H8uQ6hpkAGCufWATpz9pmREnGQGSDSxI20ipwIFynYbLoBQLDhg89kC0VAxAEFwilj9zOfhmzTA26/EEtj8Ry/j9LrsNEkrAOGaaAAPh7tRSeZ0WYZjydUQxo6HUN/AlBp7f/g/8N77OShdnZBmz0Nk8wcIvf4a4HDA+ehX4Vp1C4IvPovIT38ABAPo4AR8x1WBj5OZBIOxXI1EgNB/nbTpW9mlUwamcrIbo1cUosWgI/ECFoP+83PMGsQCMmUOTg8xbiuEDftLGSDYm8XlGAR745WzdjFTuyTdyNMBpxgDUSUPl4uBlBw9Xi8jSQpksjXbHDw7FgQr7gV9/DNjCvo/N7G4GpnmCTDQ2xUBhF1vDH2QolWmxELiDvTxyAQQOlGS1RgEaqdyZh1u/Pln0bnnApw1bnTsvogtf/EGEhEt0C61WAMIQTwc7tIAgtMF56o14CurmBhT/NgRhF5/Bf7/9XXE9u+FOG0mgr9+CvFTJ9hp+CnTIH3iDkRffA7q0cPsMwII33ZVYoukZRIMRhnRAKGAC66f7caUtVpMwEgsZYBg766UAYK98RrZAIF6l2OjdYkx1LkoBsHmblyiMSKRJqfTiwPngaBmxR0oNrs0WADBSJeBOpnLgpA5PLrbIdzXgUMf/TLH6Gn0r0YuCnZQamiDoiAaDkDJQ2FrVb65GHDAplmGhaEQgFC/dDSW/ettOPzjraie38y0ETZ+/VUkwoUBhAnxCP4w2MlcDKS34Fh+HRwrboQaDkHp7EDw+afhufc+gISXnC7Etn3MQANZF4zKaU7EN9zVOCUO5P2X6FHob2YwAYIVK1Cpr6dmmhMTVnlL3ezAeCmA6BAgysT8av80dpkU7Z/B+IhcnAJm90knqrPbh1Le90LaynWtRt/p57B7Lrv1c43joLsY9JPb3Ofs3vv89XN0gESWapy9wwYQ3G43RMmDQxeAkBFVu9XBK0mAolGmgiZAZJT6aAQQtFRIo3RIbdNXlQTCwQGqWMPqjKZ5QGgmjXwp5W73tp/Fmf3vI0LSySkUx/knRHaNYsFBJkCg9gggkFiTHQvChLtmYuFfr0bofC8knwN9p7qw4cGnEQ9mTw4rFgSHquKLgU6sSYTAE1Imbl1CawQAElpcAgEDMF4AhRh6TIePIMOrghs/8VQhVshOZPHGDBZAoMWzUKIbi103rDbYFgTCpbFIHLzAQ5Ss6V2kdtQOQDACwoWOTT6AYLTZFZIuWGifjTNhjLO5+vc6C27IzPEq9ZwsFUgYMoDAblChs6hUx5l0wCNHUOMYHoBAE8NDDGmCG4cvAGGztdnC4CUzvyyPlnGAovHmTnfPKCXSTLjJjDgpCzaYgBqWUplyJakAgT6mcYuFenBq99toP3uQJarpi0Dmw2H1YSkkYyFzsPVz6Q98IQBh0V+vwoR75/U3HeuJ4NW1P0CkPTs9zgpAoIZGxWMsk2GuGtUolgsoZL/Yzsv4obsK54c5zbGA7vfPD7uLsa6qaHUeGfVtsAECnTMWIS0ZknS2f4fLAMF4RpUBwto/s7D1FPo4ph83ZCcy6+6IBQgexOHCsRbAwM08cDVWBjC5q1p5ubMLEIxQb+bbP+O7Z3oNbBtPO8QwyNEEjxgRMqX2NxEN4fzBD9F6cidzL+iLvhGpiJWFvdCMBSOAkLoB2QUIo1dPxvg7ZsJRPeDfpxeS9q1nsfe7mxEPpPugrAIE6mdjIobrowEsjwZRrSogJoN81miacoRZ2zkB78subJA9aBlkcMCAHkXdCx6oyWBZDgpkMQxB0NweIi+DI3SqKowEiVk+MoqWUUA6CwojS4olNNIj/f4QqyLPicmjVEQSIcaPQKyMpHNABEyk00DH0kipUBBLaEFCAp2fZQZobaYWSk0UOFE7XxK4mgGECmct5jZeiyNtO3G+73jehbbG3YSJVbNxpH0XOgIXtPqMnwSIRxLshpYBgvXNPt+AlwHCEAIE9uDnuyOD/b1BB/yOEKocJEo79L2jt1bKYAgnnDjeqjJ1SNNSYPeM3AC5AxSNto3sk5u7HdJ3fToXC3I0SH00tHpkkCzp46H3mR7a8wfew4Ujm/tJcvQ6mQChUHDA5moBpsLMe2cXINTMa4J3nD97Cqgqzrx2FIloelyAHYBAjZIOgwsKqpQEXAbXR3c5806HOQ5dvIggsQ/mhRSleYBzAQR6oxcFmdEdEzggOmSt1wMR/xoQ4CELTsQSYQYSdPIkHSBIguP/t/ce0JHUd77vt0JnSa2syZHJiTTDMGCGGXIyYDAYbIONccTg+Hb9fO99b/fce/ftnr1nzyZv8DqyNmaxycbkOAwww8AMk7M0Go1GsSW11Lmr6p3fv1WaUquqK3S1pNF0cTgC6V//HD71+/8CA42cB0YJKSnOvCoSNNC76WySQQCBhPoOxWog7430HtUhkRkaAydBTwUSWdpPckGlKL/qpRweeuRbiCZ70Z/owYLalSyfV47+Fhvm3IJT0aOIxDtx8ayrMa1iDn6/9x+xcd7tiKYiOB1twYppl6A33ontbS9jUd0arKi/FNMq56DCF8YTn/wTWgb3lQHBZOo5Wc9lQBhnQJiMkDAZAGEo40drD8V9N5vlNjfgAnoJrkkQ8qrEvuzyf5enAJqDhpzrZr2rC/26gbmVHehpwfHtT0PKnpEcUHGTDQ6oTnqAQN4SPSEvo6bMUBr0/7zIMyVEMegB7xGYxQJ5UKSrFpmggMOIV0V6V5FkBgsECIu+dJGpJ8URyKKvb0Vh1wxMH8Glh/wR0jEtkR6IC3maSRDoy57cJlMAJoqpQAc6eTPMgR25YJaYvgvFV8jNDQq6lBklQaCATAQJLNCaIiOdTTCJQc71MpibZfp/AoRcvjlpRVZKwyv6GY6ksskRKQGlIamF3xNCPD3I4kCQy2YCmOVrF+LPfvjnONF3kMV9iKUHcNHMTfj5R3+JtTOvQ+fQCVT5a9gcvmrhZ/HEnn/C0oaL8Ebz73HRjM2YX72M5fXb3X+LGZXzMa9qOSq8NSyvN1r+qyxBsDDnyoBgoZPy9+3VZUBA2BdHtY8iu7mxtdkbBBbJsaICfUkv2iKApYB/NqppXy8h/8A2tsOmL6+xh7u+aYMaFjq/d7TWEWpeWpfOrHT12gQKot3NaP74BWRT8THKZlpAsLIZuKGUaDbaeoBQt2YaFt69mn30HvntTlQtrEPtqiYcf2IPln1zPdNGb3/7OGpWTEPFrCp0fdiGqnnV2PbjVzHtsrlY/s316P7wJFK9ccy6dyX8jSFLgOBVFCyU0liRSWK6LCGI0REdh7U4zJo0Fv7I5z8nMAdK+0UfTgpepKzccRUoyQwQaFLQQU5jmLtiGEvW6hVDVmPhor1iIMCgQ5d+R/KFLAvY5GXTjSI5ktSB8qArhpyLZjDIYMqwLBCUhyncZlnchzOL0i+Ghq8iFAYY9PcZq6vxlW/ej7aBI6gJNqIhNBN9iW681/oCzp92BbveSEtJzA4vRkNoOl468hjWzbwaJ/oPsvenV85Ff7IXx/r2YEndhaxu+7u2sbarXT0Zrhjs6ncUmmyFrBhsT1KHL0yGOjipulv1HlclRW1DbZxxTvrH/B1NBWp9MVT6yA3t+NeKAgaRm+XuWC5Qk6WI0TaqaQcQrF07nCm8WEAw9K0wTAXa+tDGE+tvQ+uuF0FmkvkbES0I7aIwA4TxgAOahBTFj4I1aa0YFn3xfAQaQuj95DSbp6RzULWoHvv/5X3M2LQQmcEUIns7keyNo3ZlI/r2d2Hx/Rfhzfv+gJnXnYfz7l6NQz/fgaoFtZhx11IEp1eZAkJAkXFtchDXZeJoUiQdN1jmS8YsBUkQWjgRL/gq8L43VBQkmAOCWW1yf1ctW9TUWkCgQz+nCps73lU9hhwM5C5bWBpmHSOP3GKMnlu597UPAxNOYJIDrQ7C4hurWXlNFXMY9XYOtTIQ0T5qrAi17nRNQWkoP8IYkho0hWajfbAZ8Ux01LsTraToxMNh/rq1NqrOUjm1ftArjT5GjK4fnJTjdkAmt+o2YYBAnW7jnHM2I8zeGq7ARANCVVUVOqICTvdZDPhno+PcB4QznaqVCqgHdu7qwPyKIbcBjg7opOas9xWSivXi9MG3Ee06PhxsZ7SehB3pwXjBAS1SPT8IMzYvwPzbVyATy6Bvz2nMvHYREt0xJLuGUDmvlgVp6tjSgsj+LtSuyAHCyu9ejoM/287iMsy5aSnaXjzMVtD0zyyBv7HCFBCuSUZxf3IQoRL7+qCp2c4J+PdANfYU4UjJLUDI3wK0gGC2Pbj5d62Sojq/zSDWTvmTwczRCSBQG90+HI36zcnBbZSXkaMkq/5W9Oalu/PBQGdMz+yswEQ7twFhmFLq/EOo8JoHsrGzYK2mpdjy4XAYJyM8OqM2Qj1bhIRSAoIe4rEIjpo4DaqCop50giwg9GAg/3eylEbXsW3oad4BSWOxoP0qVBeXlUXmhjmjlfE1AgQxICIwrYrpHuRiLYhM/4D38BADpJ0PpPqTTA9B8Insp78hxPQVSM4thrzIxjJMP2Hel1dh/l2rCwJCk5TB9+K9WDIc8pjVnW0UHPN9YOthzvtJ1m78Hk3NLYIff19R7/gjoFSAwJY8WzsWF5CtzjFOXFJHScz18/g5Ssr14dj+KwNCLribExBxW5IyJSQI479MdRawAtQHBlHhGRtK16W9oWA2FOo5HK5CSzeP7kGbJVrY44r3rFjIKYg+perZQJzRLzjTRlIqM1aUPJMuEe1E256XQT/1vgDVxWUFDtwyZzQbKbUuTjwpmuWt/bsVK4Y12QS+nehHvQYGvGsuhNDQgNS7WyCnEhAXLoL/ik3gBB7x555mAOFZsBCpHR+Cr6yEPDAAYcFCVHz+y5C7O5HesR2pHdshSVl41l8GoaKCuWeWDu5nfNgpc3ikZgbSDq0eSgkIdvrXrbTj4QehmLr2HE3i9ItmRq9nSigDgqwr+SgDQjGz0OBdC+dcCUo9k2W9f2IBobKqGs1dQCRms5lmHWfTsyKVPvbAtg4IzLjRQJHB0CqBRYLMbUwj72vcLEvZFLqPb0fXsQ9Gvlq0ZUxmOKA2TQZA2JgawpdTUYSHfQVwogjf+svhXb8B6W1bkXz3HfChEIRpM9inaKalGeLsWQjc8Gnmhtl/2RVI798HJTaI8P/zVxj693+GdLIF2a5OyLyIyr/8a/guvgRDv/opUo/9io1jv8Lhe1VNzDzSyZMPCPTFL/JJeASNJzEdJdmRsoajKI6zoMCwqXWL/Zi7uXSulp30sfadwVYJmT6LHhgN9p2ctLIQZCiQksDQcR4UWFR9ylcMOYmMlQ8cq+M8ZSQI1GCzc85qpzhNR4GagmJ+lCSnudl7z+v1IlQRZoDQF7f3LktdqPMcAIK2Brm1rrVUyF/8owu3BQgFzS9zUKJIGfS37ULnsQ8gZVKG0gMrG8x46h1o+3AyAMKazLAEgRTiOA6e8xYjeOsdUCQJyVdfQvrAXgQ2bgZfFUZ6/15IXZ1QkkmE//y/I7X1HchDg1CSKciDUYS++ABk+vvQIOLP/B5yNAqlohKedZci884b4LK5nf80OHy3ajrSdkRYmo7TkyB4xBRE4czJokq5888ko987WF2uvTLZJQiuNdQkIzmr4NgzaaQ7VZNUdw/GQsU7Ef0b5VfWQRivGTNczkRCQlNgAAExP0rS+HQAhXr2BSrR3A0MOAEEbTXzO7FIQFCzHr0BayFhtPtl0tC2LEEwAQQqO9L6EXqOvo9sNgcHDFfyTgMjbeLRoDO2Xm7SulqWXp6TARDqZAk/iPVgmZxh0bXE+fNBVwxKNAqppwvp3bsgzp0HoWkGC+AknToJqbeHSQUIDrLNx5nXQiWdhrh0OfhAAHIyiezhA1BS+mD9uuDHT8ZDB2F4zqvWAizWR4EP2RH9Aysbjo41jdNdoQwIZ3ru6LMJJE+ecQdttBYLrVEn5pRO3jEab7fr5vZ+ZJSfXUiaUCVFvc63sm6dLlKj9yYSECiSo+irQEs3EB3rat9ZU9VOLAkgGFeJfaWPkjjk0upKHY1iMAxvyoNdR9Fx8HVkU7ER8ZueaaOZ9GC8dQ7ye0cFhI3p1dj+2gfOxrPAW1c+dAOu/+5nCiop0rfa5akhfCMxgABZMZDuh9cHJZMuqGyoX+ywS8wCyo1tEPCTUA0Oin7H7bWtg6CZ87qFKmQhNKzNZ6dWbE4TV1m/n9fLvgwIZ3rlyDPxEUAodDAa/c3pQe/0PTvTpVRp3QIIu31wzgMChXhuDAzAr73bLNUo5+VLg0WRHBUhyAAh5vYtRx5tOZH22vN3oy9BUC0ZRiQSjBr0wYHSxiIn0XnwDaTjfSNwoKecaCY9mGg4oGaSH4Sbb74Zn3y4Cxk6kF1+rr7uGnz69ltNzRxFKLgyOYQvJKMIl8jUkaZbG3j8zl+NHd5AUdEebQNCoX4lOJDHxmqwOxTs68smJzAmkTlUzK1E06XT7RY5YekVWYbHIyNUNYRAJWnmu1cVAoREq3mGbgOCkxbYPVCdlGH2jltwYFaO3t8nHSBQJcdTiiBwMhoC0QkDhFAoBJkLoKWnBICgjri2Q21KFewAgp7/g1wV9Kwdcm5pc6Bw5u/poR50HHoDif72ouCASs0Xp5VioRXKkw6la665Bg899BC8/pyHPrefxsYmLJi/wBQQ1HLnZtO4Ih3DeZkkBCaLd6NGCovRcNAbwFveEDpcCObkJiDIlryPmfcDA04bkgRZptDmOXPSirkNqF67aKQQ6na/x4taXwWaqush8uRYSUJkMIqe5ABiaYofYb4T0ntVniCaqmpREQhCkRUkMkmc7uvBoJREhsJ5mzxUl6AngPpQGHUVVawu6WwG3dF+9Kf7wQltqGkYhCfncbropwwI9rqwFPuW1RqUAYGTQX4QSIJA0oTxxBPacMjNclL240RPgVDPVkezUDqH1w6lAgTmLyHvkdJD6Gvdjv72vaAvGFoY6pefluTV3xVaOOPp60Cv29W6X3vttViwYAGy4Sjzm+/2c/WlN+DTV91pGRDcLr9U+bkFCHRgjponMsCRC4f8s1cAFAtRkrVuwAu1PQcHZzLUAgLN/NnVjbhj7WasPW/VmGyaO0/hD9tfw+5TR1mMCKMn6PFj85KLcMvFG1EZCI1Klkqn8cLH7+DVA9sxkCxsHrW4YTbuWX8dlsyaPyoP0uvY3XwYz3z0Ok7HP0Z1QxRiLrRFUU8ZEOx1XxkQdPrLnJ3tdbJRavp69fFZeHgJIk++1yk0rOZfnvzVl6Y2dOhVVVYilvUxQCgYydGd5g6bEtrHICugYEeCkA8I5Aypt3kroqf3s/DNWjigpquAYAUOJvpqQVt3AoTp06dj85cvxLZjb1oaRbr1rgk1oCZUz9z1dg2cQjwTx5o563CytxmRWNdIPhvPuwXXrbnDMiAEFRmzshk0ylmQ8143RAi0PsjfQYcg4rTgQcLJXVZez7gFCPnSA+bZOEuBqvIeAgQLFpn5UoSchoLqrDmXJ334y1IuRLT6aAGhLlCJ+z91Cy6cv4xJueKJJHp6+lBTXYXKytxB3zUQwb+8+gQOd5/UnTP0LXPtivW457Lr4RU9DKT7+wchyTJqa8IQBB6pTBp//PgdPLvzHWR1YlVQxjMq6/CDm+7D9Jp6Vk4mk0UikUQoFGR5kBRjb+sR/ObdJ5Hy7UFlOMvuBilKJj1pKac4ReGtGytmswiW5BI6no4imu5jnRH0VEGGjEQm5+ilDAiWtoGRRGVAMOiv0hzLhQeHDkICBB4ECRRsRWbwwH4KEjwcgYRN73MGRdJmUx0OI5ryMEAwjeRob17pbyxaR4fDKdzoZyMXy8Nb5pi65ANC5MR2Jj2QJQq8c0ZyQC9qXdOqi8WOlm4pFlghzWvtfbcKCFc9cBGe+ehR0xH0iD5cs/I2nD9nPSoD1QwQTve14o87f4cHN/0Znvvot/iw+e2RfG5e+Xl8Zt2XLQHCrGwat6QGsUjOsHDP7l0x0JnLoUsQsFfw4nVvBbtmKGZeuQIIeroHZOnJJAh5tRO4UYBAc46iMdKBx4IxqT4kmO+F3CKiKzKKBkmRI1ncheE09EOWR9PGCCAowKULVuILl9+EmopcWO/BwRg+2XOYHcgXnL8Mfp+XXTe8ue9D/HLL81B0roGq/RV4+Nq7sXTmAoYhfX1RvL/9E3R1RXDTDVegob6G5X20oxX/8ebTONl/BirVyUNz+PYLNuKOS66GwAsMMg4facHhY63YdMU6VFYEWdJEKonfvPsCPm5/DrVNCYiCiDnhpfB76O8c+uKdiGcHcd2ie+EVgqwvDvV8hD2dWxH2N2BBzUr2/9FUry1AKLRYxks3wG45ZnuNk/zsWkyY1cF0E9IkmJRXDCMT2E5LSpF2eA8hKUPOxl9hfEw/CRoEXmb+E5wqODJAqK5Gf0JkgODSVWnBnih0hVrMhp47yPWLPqNjcOa7TQsIg52H0H3kDZBTJHrylQ+ZTwSNI5GzBQ6oLXYAgUIH3XPpN3Hlilvw8u4nsbv1A4R8VbhhzV2or5qGCl8V/vPdf8SWQy/ZBoQZUhrfHerDfGRg4UPZ0Wqi+ZMCh+2CF78M1qKftyCzNyjJDUBgc0bOm9V0xZAZLUFjm7agjLpioOBIdADyvIB4KsqiJ6qPqqxI0SQpFDSVQxChRnVUJPryzs31HGjwqF4wHdUXL2Jf9TevuRx3XnI1PMxtNdA/MIinn3sDDfXVuGbzpfD5vOz3O1sO4u/+9BvIHLCgfgaiyTiysoS+eBTnNczE1zffgZm1TSxtXjoTwAAAIABJREFUc8spPP7kS8hmJdx569VYtnQB+317pAu/fPtZ7OtoQdhfgZm1jWjtPY10Nsv0DB655m5cct6qkaBWpzu6se3DPdi8cR3C4cqRNv/u3Rfx5pGnUD8zCq8oYln9OgZIXfE2ROIdDBSuXXQvCyRFfbXlxLM4HtmDO1c8jDdankJv7NRIYKqjpKSoMXM0mmyFDlO7B62jCe3wJSOFWLsmhlS8+rGUv+dR+41cW+d/YGmbYbffJjUgsA5yOEiuvGZauIKwL4Ean10XiLna0SFZW1OD7pjAAMGCTpIrzcqVrZ+VaZMNamDlCkJ9lU3u4RcGuw7n4CCTc3VtBgfqosmvxmTROcivlx1AWD7jQnzvhv+Fx977V7x54HkWZnjtgiuwaPoqXL3iVhaS+Bdv/R/bgEAWDN8e7MEVMh3fpX8kRcHP/WG85K9yvH5LCQjIKuC1n+Xk44EnQBg9+wkOaAfK3/BVQKDrBZ8YYBIErZRBK0Fg4aIFAUvOXwlx5XT0DPZj87KLcc+l1yPkD4wMxvHmNuzddwSXb7gQtbVhdjB8eGwv/vGV/4Lf68WCxllY0DgT7X3d2NFyAE2VNXj42s+x39PTevI0Xnh5C5MkfP7uGzF3zgz2+7aeDvzinWdxsLMVCxpmYVZtA7yCB9uP78NAYgj3X3ojrl2zYUShtzfSj/e3fYJPbbhwBBCo/Y9tfRHvNv8BddNi8IgeXDLresyrWYbdnVtxOtqMgXQv7lz2EMAJEAQR77X+Ec29ezGneimW1F+ArSf+iNhw9MljzyQQP1nYikHvmrD0M9edEtwGBEkn7kkZEDRj5fTQcmW4CxROX8ZhbwLVDgGBBrmmuprd85EVVirLIZnJ/UxkOKQyHOgDKPdv7r9LBRH5XlLt9rk9QKDNQUEyeho9R95AOtZrSMp6QKAnQZhIiwVVuqFXLzuAcMe6B3DRvMvx4yceYFOXvlBvXHM3Lph3KRNpJzMJvPDx49h7asfI1LZyxbAwk8IPkxFM0/guEOfNh9DQiMyRw5D7+8AFQ+BrapmWvtTZCUWWELj6emT27YbQ2ITM0SM5V8weARxPrpo3IPXRh0jv3AEuXA1OEJj3RfKwSM9RCPhReDqcXsa5AQhEJ2M2a7piyOZm9yiXX3lXDEZ7R74OAt29E0jQVzOJ1pk2QqErBgBzq5vwwMZbcd50CvsMtLZ14MCh41i6aB7mzJ7ODuvBRAy/fud5vHd8j25VeAW477KbcdWqdex6IJlKY/+BYyDlxPNXLUUg4GP6CFsP7cSvtjyPpKRxUa3JccW0eXjk+s+jMhCEJMloaW3HidZ2zJzegCWL57N1eaLnNB7d8jS60u8hXJdh5TWGZkPkBPjEIOLZGLrjbbh6wV1IZGJMlHiy/zBO9B9kUgPSTfAJAbQOHGIllwHB+slE/V8GBAv9ZffAspCl9SQGhZPVQ7UvjiqvMxeItNmQJ0V6VHGRSs70U5I5ZIfBgaAhkyVFRg6Skvs9+7tkMUS09daOpCQpg9V+twcIHPNx0Ne8FbFIM7NYMPJpkH/oWoEDPahw0PxRrxS61ysk0rMDCPdueAjzG5bgfz/7iOXqWgGES9NxfDXZjxqNmNx7wcXwrV3HAi6ld34EcdZs+D61CUomg+SrL4KvrkbgxluRPdECz/wFSLz0R/guuRTZ9lMQ58wDBAHxp/4L2VgMwW99F54F5yH5yotIv/AMO3gjCodHwtMRc6iw6Aog0HGdZ8WgKinmS1I4q0qKfKHYJGeGTZZ4KMPXDPTbUVYMCnDZeWtw0/mXY07D9DHeQXsH+7H10C48ueNNZLRBC/JmRVOoBp+/7AasmLUQAd9op1R0fbD35FE8uf01NEfoCkD/oX64ZfWnsHnlOjRU1YypS1tvJ17+5F1sa3kD1U298PqK9ydRBgTLy5sBWhkQLPSX1YPKQlb2kxQABLpeqPQW7wJRFRmpX8JqVDCtKIl+R1KErJQDhIzEIZoU0DtUGsFx/jVEoTGwAwiKnEX/ie0YOLULMlPuGivGNTrk8w/q8bhaMFP6KeSwyQ4gbFp2C267+H789fM/wOn+E5bmqW1A4DiIM2bBv+kq8HX1iD/7JLInW+FbdymUoSFkDu5j5XqWrYD/pluRJclBYxOSr7yAwE23IXvkEPjGaUwhL/GH30GOxSBu3Az/ldcg/rtfQz50gL3fqwDfCc+YcEAYI0Wg8y2jgMsXxYmkpGiyjpgTSXMHP7m5S3ByBhLy/SCQvsniptlYMm0eKv1Bdp9PJo3JTJrpCOw+eQQpbXhug9lQG6jEBXOWoL6yGj7Rw9ZShvQUYoP45ORhdAxGTOcRWUSsmb0YCxpmIOj1s+u/rExWBykc6WjGib7dCFb3IlghFY7FZFpSLkEZECx21LAOQhkQLPbXhEICW/WjK0pWDjX+GCo8xQOCXhdopQn0dy000L1mwOdD+4CAU30WO9BGsmFFbd03rI6DETQk+lrRfehVZNM53Q29A1bvUJ6McGBUf7Xj7AACmTV+//q/Yopoj77792juPsQU5UgPoS3SzP4//7ECCHTF8INEH6bT1yjHw7tiFQI356QD2ZMtSL33LjxLl8O7bAWUeAzpvbuhZCUE77gbSioJZaCfRXz0rVsPPhAE3zQNmYP7kXpvC+ToAOhrn64nlEhOS52ewxDx43ATJIdaD25JEHKHtUZZccTVSd4sLjThh9tk25MiuxIkBVsOoTnVaFif0xfQPjx4eAVxREmQxt7IJNFo+XIKB1EQIJIuBbuOlJGRJCg2PWYKZJVBlhscB5nuvYUkPIEYQpVZeLwyTR1XnjIgWO/GsgTBel9ZFnfbyNJe0nxA4GXU+ocQGudIkDmpAoeamlqc6OHRFbV6ZFtvrpnDOCclqsDQsftpxPtz9t1WrxbUjV5twWSQHKh1cUuCQLfis6rn4uHr/5L5QYjGI/B6/PB7g3jivZ/itf3POAIEMjj85mAPrhxWUuTI243fR0bvDHqVdIpdGVB8BjrPKSgTKcVwTGzNLvLZ1QPn8eRMVUh5L5OBkqX3x84Euu3+pa9qwpUUtZ2la9FgfTmAF4o7HRuWB7Hw+pzp4VnxKLlAbBw/OiCbG3W3AghUjlVpjRt1cisPrbVVfp5OFC8L7S1lKwadUTM6mOhAC3hz5oipbE6pT9272EeDkxNNb9Zo8iHHSgQIExEqWhRFZiJ5pINDvzMViIJrwgwQ1Jftdmui/wQ69z43yo2yFWmBFhAmExwUghz6mx0JgtqnZH+/bv5GzG9cgsHkAHa1vI+2/mbdePFWJAiUb1M2gx8PdWMmOQFzazfUyScDDtt4H34eqplwM0fd5atn+mjQHyMbugs3eOVgTWc6OR8Q9LT+nRymbk/rQnUoBAJu1qPQ9aaRyaLZlahe/YzymvRmjiZnNPuzR5DRWCmjNkSeEHMwkJZyVgBpmSwDOOalkJT6yNcAifyk3IeRfalEHiDUBQYRENwPwmM2yVRAONDOYShnIejqYxUQtIWawYIipdG++ymkh3JOW5xID/QWrZMFYdZZdvJ0T4JgVitAFDzs2iGRjjGteauAoELCnakBLJGzqFBk1/wh0H1+muPRz/HYLXjxkq8SncM2/uYt0k/h5hWD0zq4+V4ZEHK9SUqjR59JInnqjETGbUCws3YLjbGq/2UImg6+Ot2qm5tzk/Ka0oDQGIyhOpAddUevHiTq1yYdXqTcR94KszIBA4c0/fewwh/BAyn9kfKf6bgPn4TkUbEhOAgfr29C5PYgavPz+XyorKzE7pMEQqUs6UzeejoFeh9XeqAgZ5OItu9G34ltOVOwYcdHdqQHkxEOCoEO/c2KBCEcrMWiphVIZ1M40L4LGWk0cJK547KZ57OrhupAHar81Xjn0IvoHjxtCxCoPj5FwRwpjRlSFn4aBxemDgFCjBfQxovM3XLShcvqfECgOSPyZGI3HHyIeTKURwX6ym+KzJQEXfj8d6GPKs+rQ91lo2MduJDtJMpCQSDZAY9soI81PAzZhIKuD2RIGqlnGRAmfhinFCAwEtX06TQK1yzmNlWtYp/WMkD731oRtWpKSJKFHCSQKSG5VwUSWY5JGUj6QFcWox4FzJtiYzAKj7ppjeM4BwIBVIRC+LD5zFXKOBY/UpTe9qsFCXWchroPIXLsHUiZ3AZSyDTQiLL1JrE2Lf23XU9h2j5zSvfFShDOa1oB8oHQN9SDP2z/OeLpQSxoWAqez3naG0oMwO8LIuSrxKXnXcViMTz30W8wlIraBgS1veQ8iWzprTzkyY9cKY/nMxYQSD0ip2HIfjJAkOAR07qQkJUEZCUvdP0Uj2dDhstKT1uF1kU3T0DJ41fk/M53MGvojI+OUSUPTx/Sk5WTo+dSGRDGb4yMSppygKCFBC0g6HWA2njtT7ICoP+nnwQM9FN9VIdE5G+ApAkED6kMj5QEJDI8A4ZkmoN3GBDECQCEYDAIry+Endas4SZuBipAYqAVfc3vIh3vZeKZUsGBCohOGusUDqisYgCBvPFdOP8y3Hz+Pejob0NNRT0ef/+nmFk9F14xF1+3ve8EjnTtxdy6RfjM2i/hqR2/GrFosHPFQHktzqSwIRPDtGwGFIDa7NinIznNAe2CB1s9QRxzK+avySDpAcLYV3JSBZFd8Z2hHYqDQHBQWm0Le7Ms3ngx9i68195LZ1nqpR1vYlHvi7q1LgTuZUCY+IGekoCgQoIZIFjtfi0s0H+rEJH/PtuKSM8hA3i4BFJp8mtevAMRq/WkdBUVFZARwL52O2+Nf1rSN+g+/DIy8f6RqwUjV6SsW3Xud8wkB+p7TqUHxcBBIdihepldMVQFqnHn2q+AfP8vmbGaRXx8cvsv8tz8ARuX3ojrVt+BR7f8Ew6c3jkykHYA4YbkAO5NDSHEvsLtPTTnhxQOj/qr8Jr/jI9+e7lYT20NEKznN9Epy4BgPOPKgDDRs3OK6SBou5M2rmnBfscBk8yGRvU9oIUH9SASaM7LKQwlMsiS1uM4PuHKSqQVP/ZPYkCQMnFEjr6BOHlLNJEcqF2Xf1hbhQN6/2wEBPqGF3kS+NP8ISXarK5mgJf3Mvv2bJ5nPSuAQNP0itQQvpHsx2h/e/YnLF0Q/bO/Fu/7gq7oLxjVoAwI9sdmot9Y3vkWFve9rFsNI61/o98XsiBw28LBzDRRr0HFfFTo5WfUpkLSSaPxNjJ/LDQ/DMdh9Q0/Ht+TrQSzeEYowvQBxutRB4B+SlIWcn7EuHGoCMVw6E94cLx7HApzUISUTSDa9hGip3aOSAXMJrsVOFClBXpA4QQQil3oZm0ykyA46NpRr1gBhFpJwg9jPVim5LRZuWAQPAUK8vkgd3cxV9firDnMFwLzgxCLQ+rqMNTW3cd78H9C9UWZMZq1uwwIZj00+f6+vOstLI4YA4KR5NCq1FBtsZMD0MnhOJ49bOTzwUxCmV9HrQ6e3frremycCoAwMxQBWRScKw9NgnA4jO4hL9oik4/vSHLQ3/oBhjr2ndNwQPNxMgDCmkwC3070o54CEQgifBevg2fxMnB+HzJHDyOzdw9CD34TfE0NeadBds8niD32a3YRIVx4MYSZcyCdOA5pzy4gnUY3J+AfAjXY5ylWHmG8YsuAcPbtZmVAcD5mZUBw3nemb84KRSCcQ4BAk4kAoa1PRFfUtHvGNYEiZRDt2IOB1m2QhyPImX1l50sFRkxTdfQR1K8Nq9IGo8YXIzkoZKKZX95kAIQr0jE8kBxAWJHBVVQgdOc9EJcsQ3b3LgYFQ7/5FSq//T2Iy1YyqUHyxecR+/1jzC2z55bbEbz7C4j958+RffkF5kGxj+PxU381PvAGSza3yoBQsq4tWcZLO9/G0r6XdPO3q5hcSBpYliAYD2FZgqDTNwQIdMUwvmqCJVtnphmTPkRVVRW6hgREBikMcC4U9GR4hroOoP/EB8imcmF/rYjItIe1ao6qJ46cDHBAbbICPOpYqIBwwe0L8PTrv3N9iD77qS/jC9d+HS0tLYhEIkwPY9q0aSAz2Lvuuov9/5pMEt9O9DEJArlZ9q9dD8/5F7IYCtKpkyxSY/Vf/DX4+noo8ThS776N2NNPANksUFkF1DdA6eoEFxti9e/mBfy9vwb7SyhBYPoYQhAyhVmcAk+i4SLsW3jPFGiJQRNkCRedehoz42cUaLUpy4BQeOjLEoQSLg0VENjmXcJyJkvWHo8HZOaoPjJ5iyTHT1lgMMUzh09khkl6kyyqHDupHXiNtNngTKIPkeNvIdGXi7NgBQ7UdPRTq6hj5EDJ7n1lfhOKkRzYaROlJW+X115zLZYsXYKX338WQ4O54FRuPl+97xt4+OvfKwgITVIGP4j3YhFFBxQEeFdfAN+GT4ETRUDKIvHyiwh85i723yQ1yB47jPhzT+UAQec5yHQQ6tA77KfBzfaMzouDMkUAgfOHIVSPDdZUur47kzP7GtfzcmYQRbVgnVgcmLFxKThZQnX2tOGrZUAoA8J4zPUxZQicjBnB/hEdhHMBEFjkNo9nxAxT699B/W8Cg1SWZ3EpcvCQcz1N0EB+HQgiTD1G2hhRCv8b69qPSPMWyNmMYzig+jvReLZS1fGEA5LyECBctfkqfO3rX0MqlbJSRdtp5syZg2XLlhUEBMr0+kQUX0gPMhPHYp5BcPi1rwqvj4OpYzH1nGzvqp5PrdSr2HmaX0YhrX870jDKV5XwWWmHNo0RIJgpFhva59uJL29SWSf97eSdQtUoJEEoZGWhl6eTKxjD8TnblRTzAYE67FyABHViaC0q1MWr/k7dGLSTj0AhlubRERVcddHMpAfH3kKi/2RBN8r5E5ompvberFRwQOUWs6itSkOoHBUOyIRx8+bNWLtuLZKBEAvH6/azdvVKXLl+vSkg+BUZNyWj2JxJoFGWINp0hECyhA5OwGueIF7yVyLlgjtlt/tiMufn9/uZa3Qrj525ps2v0GFrxVxYb23agQ2jthVad05NFotZy3ptsjIu2jR2wUqFK6NyjMauUDuN/uakTw3zmoqAcK5BgtEi1gKCCgkeUURa9uFEhEfCtRhTCqJtH6NvWDHRLvHmXy3oTVYjEymzLxC1b4rZUOxs2Fo4oLIJEBobG7H+S1/BzpNtdvch0/SbFszD9SvNJQiUkVdRsCybxNJsCnWyBI/Fr7CMoqCHF3BA9OOQ6EPa4numlT+HEtgBBOqWrMH1TqEDxupasNrtxV7nWSnHyWHG9nfyge/S4ySsNJVvtw5OyinUxEKA4FLX4KyM5qhtPEUdrPLGWTwEHy+xqwby1Z7z2l5+1B5QNw+v1wtJqMKJnlyMCTceKTWE9l2/Y3EW7JJ1/gaht+gKLUSzTbEYMKC+sQMHVBevxzvKYZMKCBu+/CAe/0hfgctsDGhjuWTubHzQfGLMnP7squW4Z91FphKEkXnAAjbJ8CgKmDzD9LBXmAIsQQFFbCyvKbPR0v97GRD0+6UMCM7mk7o36b1ttifaKfGsBwTtxpfb7xR4eBleIcOgwTv8L/2+/AAECFkhzAAh65LriJ7Dr2Ooa1/RcKD3ZWBG6YUWw0TDAbXHDiDMDFchHPBjMJXCyb4BNl0rfT4sbqzHf7vpOjz/yV786v3tow5pu4BAeQYUGTOzafZT+9CtA02JHsGLLoG8O5Yft3qgDAhlQChLENxaTS7mk3NgCwgMGrIMGsgk0stJ4HkZpMOQixJ3bjyBQBBD2RBae91pbybei1Mf/9Y2HFDp+Qsm/2rCDA5yQGh8mV4MIKh1sZIHz/EQPSLoZ/5jBxB+eM0mrJ07B15RwN+98iaO9fTigcsuwfmzZ6HC50NvbAj/34uvYe/pjpFirAIC9VK1LOGGZBRXpOOoJZDWmQLkHCmmKDjJC3jKH8YeTwApUymDO3NpKudSBoQyIJQBYZKucKPj3ydkUesfgo/PuaCd6g8dpgQI/akgTvUV31pZSqP36JsY6jpo6z5OVUzMXzBaIDhr4IDnIQqirukX9bAdQDivvh61oSCuWLSAxVmUFBkLG+rx1qGjuHbFUrx24BCe2rkbGc39q1VAmCFl8NV4BKulLHiL0rR+jscfvJV43RdCsqyUWNSCKQNCGRDKgFDUEirty3qQQBKFOt8QfMK5AwjBQAV6En505CTYRT1DXfvRe+wdSJmkZQsB9cs8P1KmVnpgVcnRieavlQZb1aOg8j2ixxAO7AKCWrdpVZV44NJLMKeuBs/t2oOtzS24fc0qPPbhx0hLo++FrAACWTDcF+/D9dlELoqjIIIjiwqeh5JJk8aXbrfQmmnjRPwsEMZuT8BK15XTGPQAmTlSBFYrD80rK4Ccn5ebd8+U97gowXGcoyBrTvrHSt9bSVPIFLvQ++M1PlQHt8qaMjoIZgNrBAj1/kGmp3AuPEyCEKxE15AP3TlHh46fbDKKnqOvIx45YQsOaGFTPchHgPZRF/zZAgdUd3JYJfCFPf3ZkSDMCFehyu/HdcuX4ILZs7C9pZXpIOw+1Y5b1qzES/sO4vk9Z+JbUB2sAMK8bArfT/RhNjlKIqhZtBTe8y8CV98A+dRJpN57BxIFbSLtcPJDQQxB5qcAyNDlOU8FngyEkSxfNTheLwQIoVDI0vvFbO5WrsQsVWKcEqmm2XaL0wssZDcPp+nPqfE5280c7QxyPiSQ5KDOPzQhgMDzHEIBLwZjpXGgo9cvNLGDFdU41edBX7w4vYvBjr3oPbYFUjZpaQho4yLTLRKzERxoF5kWCqx8GUy05MAqHFA6O4BAOgjr5pEOgoj/eOc97Gk/ja9cth6rZk5H0JvTQfibl17H7vYzHuusAMKGdAxfTQ6gWpHBV1Yh9KUH4VmyHKgKM+lB/ze+BDmZgHDROgS/8QiE2jpEfvRd8EcOsbF9V/Tjl4FqREruOdHSVDorE5UBQX/YyoAwuaczt/rGH+dsAs+BRw8Q6v1DTHFxvJ/6miDSGRkDQ6lxU5KkwzkQqkZzr4CYtXNdt1vIKVLPkbcQ72ux1G0qHKibgZH0oBg4oIoU8/Vk9VrBDhzYBYRlTU1oqAhhIJHAJ8MQ0FgZwuoZM/CtKy/HW4eP4idvb4VkUwfh8nQMXxkGBM7nh/+a6+HbeFXOQVVVGP3ffhByOgUEK+B/8FuQM0mkfvav4DK5q7etoh+/KAOCpblulKgMCGVAKHaPKmoCOnw5Bwis5g5zOMte0zbTL2RAVwzjHSqaRNM11VXo6pfQF8vAw5H/Bhk8J4MszckkU/3pZvcyQKioxZFOcrvsLGdFlhBt341Iy3sgJUUrD0kO6AAecSKUJ6q26nSkVBYLVuGAymdtEEZfjxTqAzsSBKN8PDyPzUsX4bWDR0bBAaW3IkFYyK4YIpghS+A8HvguuQzeKzbRHQnIh/7gT/4BcqSHFU/aCHS1oNqG0DR5wRPCE4EwEmVFRSvTXTdNGRDKgHB2A8I5CAkBka4YBiFyLjkEsLh9+LxeVFZV4Xg3j8hQDllUU0yqC5lkihyZYOb+m0wxBYKG4Z9OaY6+3D2BGhzucO4DIZPoR8e+55GO5Q4Us4fuCunfkcNVR/fAiuSA9ZHOHXgxUgN1wVop3wkcUP5uAEKhPrYCCEFFxlfifdhESoocD6GmBnx1DZRUEookQY70QkmPhT2amac5Ab/wh/FRCUM7m82hqfD3MiCUAaEMCGfRSqbNb6IAIUAKS5WVONzBIZoo3GlkkpYDBJIwDP83AQR5jeQIJHIQYcWXAzlJUsQwjnbCcXjovhPvI9LygaWRVuGAEqu6B1pTH9VLoZVDvhR6B3a8JJIyIkl+7D6br9qMxoZGWPGkuLSpEXWhIDyCgIDXg49b2zCnpga1FSHwHEl9svik7RR64/GRalgBBEq8IJtmkLBMyYxIB8zaMggez3lD+JO/EvGy9MCsuwr+3ciKwa7CW6G1Yjevohqk87JR3czqbNf8z8661VbTSf84ecesvW73u9X8zPZZXdfaI1cMainnyFUDNdcvptkVAx2+4/kEAgGm0XygnYMTHUXtFQRJHggcCBY8zHskOYEigMiyqwrt4/UFEElWoEdjwWBnuKV0HCd3/JqZNZo99FWeGb7Dpg2ARPN6po1WtJEnGg6o/mTOaHezoPQkQWhobMCGLxV2tUyBnL5wycVYP28uRVxGLJXG9uYTqA+FsGRaI3yiB0OpFB794EPsOtVuGxDIhdN0KcMCNl2SSaKaXWPpPykoOAUBz/ursMMbxFAZDsymu+nf9QDB7sGofoEabfRO8jOtuM0ERtI4Nw/NQpZOhdaok/Vr9x3qLqM+mMzjo86t/OE+o4Og/YudU8PmBJpMyYNiGnX+qGXHMW7VvSIYRCAYxJ42DkmHugBGdWF3xyxCYs57JFlqkL8HHyeBE304HfXrqptYGfLOfc9jqOeoaTfQAiY40DpEouuN/AVCcGBGtZMBDii+gt2HKWRyPDZt2oT6xnpTQKD8bz9/FTYtWcSggPplW0srRJ7D3Lpa1ISC6BuK49/e2YoDnV22AUF9gRwok0fF2dk0fBTvW+OIkniSULlXENAq+JAle3y7DS+n1+0BtwDB6ABiCqeTwAy10HWd2Vq3M3Wc+Giw2z9O+3TqAwI7ZOwM19mZNiimmARhvOM0kMMUvz+AHc0l7DeH42f02lDXIXQdehmkpFjoUS0W1EWi1T3IN200Uw6cDHDgVHLANhdwtgDhoY2X47KF85kiIpnB7mxtQyKTxcL6WtQEgzjRF8Ev3/sQJyJn3GBavWLQjhkFahJIGbaE06+UWRO0nG2Bo8qAUJyVUf58KgOCsxVmF+D0JQjnCCBUeAgQouPOQlWVlRA9fnx8wtkg23rLASjkv0Jmbx0H/oREXysjR1UyoFcP+htJBtTDX9U9oOsF7WNmuVAKOFC/vqx8yRRzraDCAZVnR4JwzdLFmF9Xh8FUksVjaOsbwJHObnbFMD0cRjyTu3Zo7et3JEEQFQXzpTQWZVNRKmwBAAAgAElEQVRolLPgGcKcTZigMIkGeQ45JPpxTPSi38RRla21UsLEZUAoA8LUuWJQF4qDw6WEa8z1rANiGrW+WC5g0zjqIVRVVUHhfNjT5nqTCmfocDyjneRSeQukTHzkSqDQAa5VPlT1D+xcL0y0OSNdDZBCohORZH7AJjuA4GQ2WJUgeBUZm1IxXJuJYZachf1LEye1K907fQqH971B/MlXgVOCfeXR0tVMP+cyIJQBYeoBwhSXJJByHyn15cwH6c6eAtnI8PHZnOWAResAu5tNOBxGRvZi/xldM7tZFJfeBiiQWWP30ZxTJGXYQU+hg1NPhJXvGEmVMhg1ohTSA7PrDLUuVDbV18yFcn7d1fvK/C/yyQIIVyYHcX8qiupxl5cVN1ULvU2RJV73BPCkPzzpJQllQCgDwtQEhCkOCdoNiHQRck5icicoAwghBwvkVIlMC8mpUTE6C3SQECDE0h4c6Szd5mkpZxNQUBQJgx370dP8LqT0GXtMM+nBiACK7roFYYxyYqHrhYmEA6o3KSQ6WcgkOdCr+2QAhDopi+/He7Fc1mjE+v3gRA+LzaAMRnPBm8hSwx+AHBsCpJx3Ufq9Cob0/0LTdCiZFOS+PqYMO+ahyJYVlQDpqkhZyBqTTEtz0maiHnD412ANdnqCkxp99ADBTEKl9/dCd8hO5q2V6zY7Q+LU1NFOGWxeGihkWt2brJZn1yqikIUFO1Nondl4xmt82DGvs56NdRC0jbDxxWmj7WdFUr2mk9TBI0hM0kCBnshKgCQPI1+hBbYqmiB0xdCf9KCle5J0gcH4ZuIRdB58CYlox5m2FdCUzt+86P/1RPXkWVHvKQUc2LGZJj8R+VcEVkbICA7oXRUQ1n3xy3jio4+tZGcrzV2rV+Le9WvR0tKCSCTCNs5p06aBTGnvuusu9v8rM0k8kuhDgyKB8/vh33QNvBdeDGHeQsin2jD4s39B1fd/lLN+qahE6r0tSPzpOYRuuxPiBRch+cwTSH3wPsT5CxC87U7ws+ch9coLSG17D3xVFfzX3gh++iwM/OWPITY1wX/1deArw2zDSb35Krxr18N77U3gAgEGI/3f+QbE2XPAkaRm1hyktr8P6eQJVHz56+Dq6pA9dBCJl1+Akoij9pePI/Lg5wGyeAlXA7Nm50wtDu8HR7ouAJ7wVuAZfxipSaDFbzR44+UoydbkKdI9ud2y7Kz5QnnbPWTVvOwq6BnVwQzs3OiXUcevHoi7XYhBftYAgeHFONVokhZj1nxylUz/UlwHkjIQRJAnRNqztH4LRIGH4K3CyX4RCWueisevR7SNVBQMnN6NrsOvjyrfKqHT4aDqH2gzsCs9KIagrcKB02sFahd5JiQnRkYPAcK8BfPQE6zE/r17XR/LL956C756910FAWFjKoYvpwYQVmSAvGmetwSB2z8LccF5LPRz3zfuR+UPfgQ+GAIfrkbyjVeQeOVFVH7jYXaIp/ftQfqTjxG6/6sQGhqh9EWQPXIQiTdfA19VjeAddyGzfx/Suz6CZ/kq+C5eh8yxw+CDQaR37YQ4Zx5819wALlwNqbUF0b/5S4gLFoH3eiEsWorUu28he+wI+Kowgp++A1JfBIk/PcuApe6plxD7h79Feu9uCKvWIPTwD4FMGn3f/gq4nhxhP+8J4vFA9aR25lQGBP2p7+SwLQOC69uIYYbWAaEMCawTzUBB29PMgRFzlawCAzkz4jCU8SOesSdqGr8pkWskKSSe2vV7pGK9I0Xb0T0wkh4Y+T7Qy/tshwPqOAKEez5/D06ePFmSIVy9ejU2bNhQEBAuyCTwUKIfdSRB8HrZF3/g1s9CPnkCCIcR/V//A9X/71+RfQqQTkPqaEfssUcRuPHTDCbo4Kcvet+69eDpaqK2FtLpDqR3fQz/lVdBXHMhlK7TUNIZpN55E771G8BVVoFvakLs179g73nXXwaQb4xsBv3/9/fAVYbhXbocwvzzkHz1RSiZNHwbPsWgRWpvR/KtVyH3dKP2V/+F2L/9A5RkCql9u+HZ8Clk204Cx46w/jwjQahCahI7dCoDQhkQnG4AxeyDTstU37MHCHZPyGJrN8nftwMLIx1OH5uKPdCYiG7oPb4VkRPbHEkPcl/WucBG2qeQcmI+IBSzKKxKDqhuIwGkbJr7FbpW0LaZAOHhRx5G/NA+SE4mjMngz1q+EkvXrSsICA1SFj+M9WCxkgXn8cKzYiU8i5eDCwbYV3rilZfgW7uOxWXgw2FI7W1IbnmbXQN4FiyC3N+P9KH9EOfNYzoKfCCAbFsbsm2tEGpq4b30cnDkHOvQAXaF4Fm2kkWJhFdE9sA+8LUNEBcsBLJZKNksEn98GkomA8+ipVBSKWSbjzKgEOcvhHSiGXxDI6TODhYjInjn5xD/w+OGvRABj/8IVGO7NzipnTqVAaEMCE738WL2QqdlOgeEMiSM6fMS7PvFjmvR76eiHejY/yLSiZxTHjvSA5rQZAmQ/45V6UExC8I2HAhj62nWeVbhQJUgECDs+P63sNDrvjne/PsewJIHvlYQEEhWdW1ykF0zeJmLTYEpKJI+AnGRMhQbDuHIgQsE2Ze+HI/ldBJY/AmOffmT9GH4zoxJC0YUGen3xL0U8InG3es7Q8Fk+SLwDEyYUqOiQInHcoqPpLBFPwvcsXI+H4MIvYc0Wd4V/PhNoIZ5f5zMTxkQyoDgdH4Wsx86LbM4QChDgm6/TzVQyKZjiLRsQ7T9E8N5lq+1a6R7MF7SA6vmjHSP6cSFsh040ALC2/fdiW/WVhVcr3QAC3UNuYNT51EG+iENaQJpAPB89SH4v/KtgoBAWdHxeUdiALenhuDPi9FR7CYyEe/T1cInnIifh+rQLnhsXf1NRH31AMHJ/bvbdXdy+Ex0vcdTB2Gi28qOWgdKim7V2/4VgzpDp9pp6PLKmyrdk0lG0X34dcQjLbo9lK8ZTJO5GNNGJ4tBrZhlOOB4kMWC3YcWnV0rB/WKgQDh2yaAELjmBgS/9yNmSaD3ZF54GgN/8z9H/Un46kPwWQAE9aVVmQQ2pYYwTZZYLIZJrAkzpgtoTWXBYQjAh/4gtnhDGOImt+RAbcRkBASztaZr9qZzdWhlHZmZ/1nJQ5vGTYunQv3g1kFrt33a9HZNR/OD4lktW8/KwzkglKUIlvr9bAYFirsQ7diHSPNW3QiOetIDVffAyfWC2YZl1OF2rhXogBfJVl+wdzQ6gYN8CYIZIIiz58K3/jJwPn14yRw8gNSO0XohdgGB6kRqMD5FhpAXrMnShJ7gROSpJMHxk15ikN9NbgKC03Vid+gmMyAUaoub/eMEENws30k7Jw8glCHB8po7G0GBvCh2HngJyehp3Xa6eb3gdFHZgQMySRR5gcGBnYXvFA7sAoJv3aUI3PcguFBIt7/Tb76K2KM/L0qCQIGaKOxzvZKTIDCdgiIfTpGZiWEnL6KHF5FxIc8iqzTpXi8DQi6Gy3g8bpZjZ59Q2+Zm+Wc/IJQhwfacH59lYrtao19QZOYHoefoO7oRHPVEhnaVE4usIdtw1GsFs4XMJBu8yHwWcLz10LjFwIFdQCAvhcLS5cOKgWN7R247iczBfY4BoU7O4uZEFMvkLMKKBPdUJhWkOQ69nIBdgg9v+ULo5cVih3dKvV8GhDIguD2hjUDEVQnCmht/7A7XnRWnnttDVFx+k7nLZCmDkx89BvKmqPcY3SnqxV2wqhtgtze1TpcKukQFmVzm4IAeq9cLxcKBXUAgfwGBLz4ILqgvQci8/TqGHv2ZI0Col7P4frQHC7nSBWqi+UzxEbaIfjwWqEb0LIm0aHfeOUlfBoQyIDiZNxMuQSBAcEUIMJlPO7dHxuX8JmPX9bfvRM/htyzDgRG1moV1dtqVVuGA8hcFzyhvh1YAwQ04sA0IK1ch8Ok7c6aGOk9q+3uIP/+0bUAgbYuvDfXiWomOb+YQfsRckZkYSuRhUaPsR6aHzDxROGOCqP6/en1A7xmYKFLEh3/3h/GGr/Ks0xVwOh/N3isDQhkQzOaI3b+PmwTBFUBwLRO73TR10k8WUJCySbRufxRSOmYJENhhyuvf6xv5Pihm1PKhw0h6oL1W0JZnBghuwQEt4Cs3XYlHvvMI3rnvs6ZWDKSk6L1kA8j2X+/JHtqP1I7ttgFhfjaFH8YjmDHsSZG8I1JcBXHuPMjRKOLPPY3Q3feAoy9+rw/pnTvYv8HbPovsiRZwHhGpD7fBf91NEGbNYlcgck8Pkm+8iuzJE+DCYfaukkpCieXmzAFOxH+vmjapnRcVMwftvusmIBiVPV533/kO0Oz2hTZ9IesGI3NGM4sIN/vB7OrSbtvdrJtR2VRn9V+79ctPz6kSBNfO98lyyhXbMxP0/mTovkjL+4i0fGAJDnIfpLxulLJSSA/08jRaxPmSA6orWzh8IcU8MmW0rqNQaLOWFAmbN2/Gd77zHUuA4Lv4Evg/90XjK4atbyP221/ZBoRL0nF8PTmAGgIE0QPv6vMRuOV2cE3TWRCk6P/4ISq/+2fMSyJ8fqR3bGMeDQN33sN+IpFActt78H3qSnjWrgcXqoB0YB9iv/opUs3HEXrwGxBnzUVyy5tIv/wCk1L0KhweCU+f1PERxnOJj5ejpFIfQAWv8hysG6ovfUSMOZhMzCndCrzkZA4UAw2lHh91jzNql10fEqMAwRVImAwnnJNRn6TvjHd3pmM9OL33eZAFg96TvzBVs8b8tOMFB0YLQuAF0L96G48xILgEB1AgyRJTorzqqqssAwJJDihYkqGjpNgQ5MHRjpKsmDluSMfx1WQ/qilYkyCyWAmh+x4EyENhZSUL1lT1vT/PeVikw//4UaQ/3oHA9TdD6u2GMjCA5NZ3WJRG/5VXQx6MItvSjPjvHkXmdDs8190I/1XXIf7rn0Hes4t1eUTh8J3wdAxN4vgI47nky4Cg39tlQHB/FhYCmIkHBFcow/1OO9tzHA9QkKU0Is3vY6D9E13LBerDfEDQkx6oSolu0rIRcOgtBiM4YDBhaMFA1yQc6J9iHrbhKTk4oMcOILAXOA6+i9ayqwRyTyxMmw6uqgqcwLMgRXJktNKoFUBYlEnh+4kIprFwzwEWYInKAF0LAIg//iiCt9/FdAr4+kZmKUHhniu+/DXIiQR4UWCxGbyXXwmhvp5JHaSebiSefxrZ5mNQSAG0rg5ydxeLyUBPM3j8X+EZGPttWEzvnr3vlgGhDAjsaHTHJKDgQigpILh2vo/HiXb27heOa17Kbk30t6H7yBtIayI4aiuqJz3I1z3QWiy4tRi05ox6EgHt76g+YgETO31AcAcOqB5ZOTtqE7ADCMHP3oPAnfcC02cCrSeQfusVCMtWQLx4PZTBQZAVQ+LZPyBz+OBIk60AAvk7+M5gL9YrydwViygSKeU8JtGmlc3mfpcjKICkH5nh2AvDJVEgJ47FO1BfUlh8BqaomPfIioLf+KvwjD9cVlIc7psyIJQBYcoAQhkSHJ/f4/ai26AgZ1MseuPAKZIeUBicsY+Z9EDrtGg84ICdZxqnPAQHAicUdII0FhDcuVagutC1gkxifM1jBxBCX/kmAvd/lQU3Ulqakd62BcLSlfBs2MgCI0l7diL64x8g237KFiBQ4nnZNH4Q6wV909vzIWlvStPM2cl78W+hWkTKvhBGOq8MCGVAmFKA4AokuH2K2durzonU7nSxgnikFd2HXwPFXrACB/mWC/keDd0AhEKSA7WOKiCYSQ5UmMjXP7AbfEmvbxTkHDblwwGltQwIdLWwdj0q/tv/BF/fgPRrLyHxh8cQ/NrD8FyyAXJbK1MW7PvWA5AHchE26bEiQVDTLsim8JlEFAuULCrlYVAo7kZlpB6ERX28iH28Fy/5KtAqesvSA81kmUhAcEuj3cqGaleBz+g60ki3Sa2D3f3FzPLBStvy9xw775jV265ugJOy1T3QzrtjlBTzXy76ACo6AzvNObfTOu1qkh70Nm9l0gPdA5BC9ObdnWl1DyYKDkYOfY6HRzD33JdvwVBqOLAFCLyA4E23QlyxCtLQEPh0CtkjB8DPXwRh7jwo0SgDg/TWt5E5sN8RINBLlYqEBdk0pmUzOUmCS4BAuganRC9OCJ6zJoDSeO4WBAgVFRXjWeRIWeMFCE4PYb3DXv0AcbPD9KwlnByabtZJzWu8AKGQ9Ydeu0oPCFSq05OrFCNxDuRpt7tTgx1o3/0MpEzCEiBopQf5cMCG2wVFHKv+E1SFRCtfLlpAcMvXgd61grYT7UgQWKhnuqqI9ECoq2dWBUo6nctOlqGkU0xHQIlRPMPcY0eCcA5M/UnbRLuAYLSGrMzz/E4Yr8OHzV0dk0Ung+I2IBhZS1DdnPaPEdg4aa/TOtgty+74mAKCa+e73VPLbsvL6fUPdwv90nXwFRa1Ue/R+ypQpQfq3/IXSiFAoL+ZbXJWTSR5XmDBl8zyU9ul6h8wxUoXPp3zFRL1+s8yIFgYJ70kdgGhSc7g0lQci9JJMJmLSxIE29UnB44Ajnl9eN8bwmnBM6W/I8qAYG+GlAHBXn9ZTV0SQHAFEsqAYHUMXU9XqOuziQG0bPuFYZlGgEALWO9v4wUHVL5H8FiGA3YW8jmPj3S1UOxjBQ6ojMkCCMQB5DDpa7EIaopvfrHdN+r9fhn4RbAG7/pCUxYSyoBgb8qUAcFef1lNXTJAKEOC1SGYvOnyQUFRZHTu+yOGeo4ZVtrItNHovtEIENT0hURpVv0nOIIDcgctuAMHZtcK2s5UAeG9B+7Ft2Y0uj45uPsehO++B9HS0oJIJMKAadq0aQgEArjrrrtyZo0A1qZjeCTRj8l6BFOUiH/2V+P9KQoJZUCwN/XLgGCvv6ymNgME2oMzGYqmknssXTGoiV0RAriSidXuKKfT6wF1CBL9J9H+yVMgUNBNZ6CcSItXT9mlEBxQeqN4DVS2Vf8JdNx5RHuSg5z0gIdgEC/C6iwpZK1glIcKCP2/+ik2Ll1stSjL6ZSL1iP4qSsLAkK1LOH7sV6sktNMr4GvCoPz+8EHgsyXgdTeDnHO3FwAJ0GA3BdhjpDEWbMhx2IMMqTeHogzZ4MLBlg60o2QujrBCeKwzwQP86egJJPMGRPFb6A0SiIBzusDV1HBfDkomWGdCp0WHuE9+OtQPSJTMArkRALCeCkp0pCaHUBWJ7bbgEDlZrNjzbeL6ZupqIPQ39+PtrY2Z4DgihTBtUysTrVyOr0ekDJxdB58FbHe44YdZEd6YCY5oL8bBXmxagVBcEB56LlQLjTK6mZTrCKQHcmBWh8VEKozKXi8+kGYipmhFY2NaJq/oCAgrMok8HCiHw0sFoMIz8LF8F5yKcSly5lnxtgv/g0VX/sW86zIeXxIffAuMrt3IvSFB5BtOQbO60Vy6xb4r78JwvyFDCykUyeReOr3EJqaIHV3QZg+g4FF9thReJYsh7hkKeToABJ/fIZ5g/SuOh/pnR9B6ulirqT55SshzpoDqbMD0oG9QDKJKMfj7/012OkNFNMlk/Jdv9+PysrKUXVzqvVv1EA3FRuddqJdBWWzA9rNQ7hQ/+jpMbk9PuzoM1DgtqpH5XRc1PfMxqezsxOHDh1yDgiune9lSUKxY13U+9HTe9FzfAukTFI3H73FoR7w+eBQaNKpkgGjLwKrVhBO4YDk66rkohjdA/JxQIBg9yFAIFG/dtHZzaNQ+nXr1rGAUIWuGK5IxfBAagBhRWZf8771l8F//c0slDMXrkb/nz2Mqm8+Aq6yioWazh46AKmrC74rNkM61Qq5swPp3TvhuWgdc9OMQAjZvZ8g9p+/gGfFSkinT8GzeDmyHe1Iv7+VAUHFd36I+GOPsqiQ4rz5CH3ui5AGBpB45g+QujogXnczKh78FmLPPIHM7x9jPh7iHIdf+sJ4zTcx5oBujkt+XuMFCON1oLrVV4UkBXp7A5Xr9mFa6MPBbUgwMjN00qZSwIYrgFCGBLeWx8Tkk0kOoPvw64hFThQtPbACB1SI3vXCeMFBblMh/QNnKvtUT1JKdPIQIMyYMQObNn8Bfr/HSRYF35k9qxpLlswqCAgXZhP4VqIfdQQ4HAfvRetQ8e3vsz6BKCLywD0I//gv2JUAXQVIRw4h+fKfEPzcFyD19QFSBolXXkTwM3fDt+EKyKdPseuF2OOPQjrdDj5Ugcrv/QhD//6PkONxkMtoPlQJrq4W0f/9FxAaG+G7bCOkkyeYBCFz8ABQUQlu7nwop08BfREGK4Mcz/QQtnuDrvfTRGdYBgT9ESgDQq5fphwguAIJZSnC+O9bioL+9t1MeqBIZ5RRtBUpZLmgJWCrcKCKEbWLwOjrID/PYiUHarucmjYWAwdUNgFCY2Mjbvn0N/Ha63sLjrcoCpg5owbB0NirCOr31tYeJBKjx2zjFYtww/VrCgLCdCnD3CwvVLLggkH4L7+S6ReQqJ+WIDlf8l1+JasbC9Z05CCSb76G0Oe+wKCB93iQ+uhDeFZfAM7vAyd4IPf1sjRSJILgLbci8+E2pI8ehrjgPHAeDzJHj8C7ag3k/j7IgwPwLFyEzOFD7P+NnlMcj78O1qNN9I7/uihxiWVAKAMC9cA5I0FwBRBcy6TEq3sKZU9hnLsOv454X2vJpAdahUOVjrViPCM4YNNBc0fnFhywg8+B7wOn1wrajrUDCMuWzsA9n9uA7p6x7q6bGsP4YPtR/PGPO0eNmxVAoBduSURxbzoK/ySdy2kFeMJXgacC1VPS1LEMCGVAOOcAQR1yVwQBrmQySXe/SVItslYY7DyArsNvGAZkKlZ6kA8HI4ezRrxvpOmcLz0gZUTRggvlUd3L5cR1+SI7u4qNBAesLUUeV3YA4aIL52PzphX4yb++MmbG3H7bWsiygt89/p4jQAgpMm5LDODKTAJ1kCfMP1J+w2jZR8Bji+jHk8HwlHXTXAaEMiCcs4DguiCgDAslQQqKuXBq99NIRk/bkh6oh616gBeyWNCzfNAe2HoAMQKaGukBc6EsCPY8Hg4rJOY3jiQRdiwY3IIDqoddQLj6qpX49X9uGTM+N96whl0vOAUEyjCgyFiRSWJVNonpsoQglAkDBVriSYXDaUHAHtGPfR4/Yi44sCrJwnEh0/EABBeqOSoLM413vfIK3aUb/c3o93bjBjhtv5ElhdsKik7rZ/ReKcano6OjeCsGvQqX5EwvSaZuD9PZk1+0Yz+6Dr1qy++BqkSkLlY7cEA9o1VCKikc0DWCoO8i0A4gFKtzkD8b7ALCnXesQzo9ViEyFPLho49bigIENh4A/IoMn6KUNOyzlVVB3jfSHIckx0PfE4eVXM6ONHp+ENzUQi9kLuj2QWeUX6E6uG0p4ORwLDRTjMwc7UJQoTLc7oNC4GDUP0Z1UMeOAOHgwYMjWdtylGS2FEt6npc0c7OWTYW/K2h+/xfIpvTDOVML8xe+dsEX2mQK6RSo1guF4EAtm36ysM2CaE9yMOwIychIwar+gdtw4ESCcNXmFfiPn7+Brz14Fd7fdhQrls/Etu30cxayWdkVQBCgICTL8CoyFBPLDk5RkOJ4xHkeErgiL1ymwjpy1oZSh3uezIBg5uvAiaTAbUCwM6pOLA7Uvc3JoW6nbnr7uPb9CQUEVjm7rbGTvqSZ26nIWZaWLBdO7UL30bd0K06ThsT5afJ8NyzmV7/86Weh4EmF4EBdFFa+YChNKeBArYNZcKZSwIETQLjt1otx/HgXli6dge7uKKqrg3jsd+9h1ao54HmuKECokSVclo5hYzqGekmC18IVA7NyAIcuQcDb3hC2ekMYmIKeDku9osuAYGxiXAaEsR9nxczHQvvt1AYEtdfKoGBr/qRjvWjf+xzIgiH/oQnjIbO0TGaUK1JRFNmBTYvXKPSyGRzk6y4UqjSldSY5GKuQmF+OmYIitYOcIBWrkKjXPrtXDDfdeD7efe8wrty4jIHCjOk1eOa5j7B61Wx2XeNUB6FRzuK+WB/WySk49caQAYf3RB9+E6hGD89iQZYfiz1QBoQyIJzzVwwTdn6XgcFwm1LkLHpbPkB/28dQ8jwB0oHj9XqZ1CCVSo1ID0iaQICgwoFR3AUzyQDlb1UUyOIr2FSZU8M3m+3RhQCBoIDBgYELVLO8zf5uBxBISvCZ2y7G/gOncMH5c3HqVB/q6yvRfrqf/Tx06DSeenr7qCKtmDl6FQX3JvpwcyYOwazCJn8n7YhnPSE8HqxG1uZ4FVn0Wf16GRDKgFAGBM0SnpAze0IKndz7FlkskN+D1FD3qIrS4U2SA4IBggM1kAmLdSDkjhH2ZS1Jus49zHQKrPYK1YMOcLtukCn4kjXHiJS/vvJiqeGA+uDqq65GY1Mjbr7lG6aOkioqfLjg/HkIhcZ6K5AVBXt2n8DpjgHbgDA3m8IPEhHMliXmxMizbCXEmTNZcCVylpTa/gG8a84HBBFyby+QTiN9cD9g4Fr6BC/ib4N1OCU4lUVYnR1TJ10ZEMqAUAaEvPU8Yef1hBU8uTY08pRIHhPJcyK5slUfLRwQACSTuXgMquSA/lsFAL3rBTfhQORF225GrcNBYQdJ5D65VJID6kOCns1XbWaeFK0AQm4M9MGHhi/X76PnmBUJwvp0HF9L9qOGYjH4AwjecTfznDj0s5/Ac95ipHd9DN9FayEsWAQlNgSZ3Cg/8VsoHi+89z0A/8XrkdjyVi5mQjyGXk7AvwSq8bFn6gVVKtUK1jNzNCrLTDKn956ZIqDeO07KUT8cjOpu15TRLD+jcuyYLZdiTJ30nZM6Oymn0J5mZoZaMjPHQoMwYef1hBVciilpP08K50zSg3T8jHtbLRxQjgQHBAGqLoK6YNWJmR8i1VU4ID0H8PYOaQNfB4U2Er2ri/GAA+rrTZs3WQYEslhYs2Yedu1qwerVc/DCn3biyo3L0dBQiTlz6vHhh8ewY8dxdHadsUSxAgijgjWFKhC69z54L9sILpVEastbSL7zBuLs+asAAAX7SURBVEL3fQV8IAR5aBByWyuGHv9PKJIE4dIrEPz8/Yj9+j8gf/gBUQr6OB7/FqjGds/Ui5lgf5VZe8MOIFCOeqGJGXQaSMOcAIL2Q8BaKyZHqkJh48erhkaK205NPQvBohMlTqf94FqwJicVmLDzesIKdtJL7rwjS2lETmxDX+uOURmSbgFdLaibEF0vqNCg0qU6IWmT0tKomVKi1ZozhUSCA24YDqyOj004UDdULSCMx7UCtUvtSzuAsHnTcqy/ZBHa2/vQ2BTGiy/uwrJlM5k+AulbkE7CP/3zy6O62QogLMqm8L1EhDlH4isqELzts/CsPh9KKo3km69Aam0BX1MHz+KlUFJJFhI69uR/QclkoPACFFEEl8mAU3LeCk7xIv4uUIPjovvhq63OobMtXRkQ3BuxMiC415f5OU0oIKiVsXoelKQbJrTwkrRIN9PUYBdO73semeSZr006lOlfVXmQ4IBgQLVYKCQ9cFtyQHoHTEohWxwQB3BA7dEqKI43HFD5dgBh/fpFuOLyJdi1uxVLl8zAE79/H+vWnocNly6CIPLo6oriJ//yCuLx9MiYWwGECkXG12O9uExKgfd64Vm6AkJjE91nQMmkkTmwH0LTNBZtka+tA+f3I71vD5MW5D80Wm+JAfwsWIP4FPZ86PZKLQOCez1aBgT3+nJSAoLeplO6JhfI2eLZNCF1K6pQBT3H3kHfyY9HctHCgSo9INNG0jvQii1V6YFWOdEtOKByvR7vSHkEB5Z0ABzCAfkNVBUUJwIO7ALC5ZctwfpLzsP2D49h/vxGPPvcDhabIRwOIhj04sD+U9i2/Rhi8ZQtQKDEizMpfCPeh/lwFrZaLfAIJ+Lfg7U4NgUjLha15ExeLgOCe71bBgT3+vKsAIQJlyxMMVDIpgZxYvujoGsGevLhgH5HcKA6Jxrpf/qiH/5XvQN1Ew5YPTTBlywBgmM4IDfPPHgytSyxKSP1n/ZaQbvo7EgQQkEfAkEvEok0PB4Bg4NJkItldZzo95kMXfucKcGKBIHVD8CcbBqfTUZxfjaFIGdv0sdkBR95AvhDIMysF6a6a2S3t+AyILjXo2VAcK8vzypAKIOCOwPfefAlRDsOsMxU5cP8cMt6ERVVOFClB27pHIxAihYOrFwvFAEHattJ/2C8FBL1Rs8OIDgZfauAoOZNbpZnZDOYIaVBro6Mjc9ybxBGkMzhlOBDu1gGAydjRO/YBQSjiKeFrAScuAB2ogBnSepnsaOM6lyojMkCCEZ1NGrTZLBiMBuWSaGDYFbJMihY7aGx6VKDnWj96DFDOKA/6Gngas1pVOVEt6QHJDUQxNGRGU2lB0XCAbWTzCHlEjpBKiQ5UEdmsgGC85lVfrOYHrATrInNXWtOPixXSS+/Yg76Yt7VVrpQO41M/JwCgt06OzUXtDwoeQndHCO7bVWrclYBwoSDgvoJ5XTEx/k9OZtGx/4XEIu06EoOWHMUZcTHgbZ6+dIDt+BA9a2Qb2rIvlyMpNwuwIE6dMqw5n0phsLoWkFbVhkQStHzZ1+eeo6SCn2Bmh2cdnrAbdhQ9xE7dTBKa9ZOvT5y8iXutM565ZuZlDo5nN0eIyd1oD46KwEhf3LZuz11YxqXOgqVO3Uc7DzAAjIpEt1he3RtpgtJD2hSkfTALTggnQMCBD0/BLJkfIttxxFSoZ6TJxgOqG4qICxddhW2bPnInYHW5HLLLZfhc3dfg5aWFkQiEfblOW3aNAQCAdx1112uf4m63oBzJMMyIOgPdBkQcv1SBoQSbAQTAgqTVKqQSQ6g6/AbSPS1wuvVhwOqer4DFq2eAYFBvu8Dp8NGYEDxFfSeQuaNbsEBzY1SSQ+sSA7UdhMgXHHFFTh8+AQGBka7SXbat9r3brjhWtx5521lQHCjM0uYRxkQyoBQaHqVAaGEi68MCsDA6b3MtFHgcn4N9B496YEKDHRoG8VdsDt0NNnJnNFo0htdL7gFBzmGs2hCabNxduBAlSA89NBDhmNis/gxycmN8/z588uAUGxHlvj9MiCUAeFsBIT/H0vJjnumhkQXAAAAAElFTkSuQmCC;" vertex="1" parent="1">
                    <mxGeometry x="10" y="10" width="520" height="282" as="geometry"/>
                </mxCell>
                <mxCell id="3" value="" style="whiteSpace=wrap;html=1;fillColor=none;strokeColor=#FF0000;strokeWidth=3;" vertex="1" parent="1">
                    <mxGeometry x="220" y="240" width="40" height="40" as="geometry"/>
                </mxCell>
                <mxCell id="4" value="" style="whiteSpace=wrap;html=1;fillColor=none;strokeColor=#FF0000;strokeWidth=3;" vertex="1" parent="1">
                    <mxGeometry x="250" y="10" width="70" height="30" as="geometry"/>
                </mxCell>
            </root>
        </mxGraphModel>
    </diagram>
</mxfile>